<?xml version="1.0" encoding="utf-8"?>
<!-- Generator: Adobe Illustrator 24.2.3, SVG Export Plug-In . SVG Version: 6.00 Build 0)  -->
<svg version="1.1" xmlns="http://www.w3.org/2000/svg" xmlns:xlink="http://www.w3.org/1999/xlink" x="0px" y="0px"
	 viewBox="0 0 100 100" style="enable-background:new 0 0 100 100;" xml:space="preserve">
<style type="text/css">
	.st0{display:none;}
	.st1{display:inline;}
	.st2{fill:url(#SVGID_1_);}
	.st3{display:inline;fill-rule:evenodd;clip-rule:evenodd;fill:url(#SVGID_2_);}
	.st4{fill:url(#SVGID_3_);}
	.st5{fill:url(#SVGID_4_);}
	.st6{fill:url(#SVGID_5_);}
	.st7{display:inline;fill:url(#SVGID_6_);}
	.st8{fill:url(#SVGID_7_);}
	.st9{fill:url(#SVGID_8_);}
	.st10{fill:url(#SVGID_9_);}
	.st11{fill:url(#SVGID_10_);}
	.st12{display:inline;fill:url(#SVGID_11_);}
	.st13{fill:url(#SVGID_12_);}
	.st14{fill:url(#SVGID_13_);}
	.st15{fill:url(#SVGID_14_);}
	.st16{fill:url(#SVGID_15_);}
	.st17{fill-rule:evenodd;clip-rule:evenodd;fill:#FFFFFF;}
</style>
<g id="Layer_1" class="st0">
	<g class="st1">
		<linearGradient id="SVGID_1_" gradientUnits="userSpaceOnUse" x1="0.6077" y1="49.6143" x2="98.4306" y2="49.6143">
			<stop  offset="3.535350e-02" style="stop-color:#9F19AB"/>
			<stop  offset="0.2438" style="stop-color:#AE25B1"/>
			<stop  offset="0.6455" style="stop-color:#D744BF"/>
			<stop  offset="1" style="stop-color:#FF63CE"/>
		</linearGradient>
		<path class="st2" d="M98.4,49.9C98.4,22.9,76.5,1,49.5,1S0.6,22.9,0.6,49.9c0,24.4,17.9,44.6,41.3,48.3V64H29.5V49.9h12.4V39.1
			c0-12.3,7.3-19,18.5-19c5.4,0,10.9,1,10.9,1v12h-6.2c-6.1,0-8,3.8-8,7.6v9.2h13.6L68.6,64H57.2v34.2
			C80.5,94.6,98.4,74.3,98.4,49.9z"/>
	</g>
</g>
<g id="Layer_2" class="st0">
	<linearGradient id="SVGID_2_" gradientUnits="userSpaceOnUse" x1="1.0382" y1="49.9114" x2="98" y2="49.9114">
		<stop  offset="3.535350e-02" style="stop-color:#9F19AB"/>
		<stop  offset="0.2438" style="stop-color:#AE25B1"/>
		<stop  offset="0.6455" style="stop-color:#D744BF"/>
		<stop  offset="1" style="stop-color:#FF63CE"/>
	</linearGradient>
	<path class="st3" d="M49.5,1.4C22.7,1.4,1,23.1,1,49.9c0,26.8,21.7,48.5,48.5,48.5S98,76.7,98,49.9C98,23.1,76.3,1.4,49.5,1.4z
		 M76.3,39.5c0,0.6,0,1.1,0,1.7c0,17-12.9,36.6-36.6,36.6c-7.3,0-14-2.1-19.7-5.8c1,0.1,2,0.2,3.1,0.2c6,0,11.6-2.1,16-5.5
		c-5.6-0.1-10.4-3.8-12-8.9c0.8,0.2,1.6,0.2,2.4,0.2c1.2,0,2.3-0.2,3.4-0.5c-5.9-1.2-10.3-6.4-10.3-12.6c0-0.1,0-0.1,0-0.2
		c1.7,1,3.7,1.5,5.8,1.6c-3.5-2.3-5.7-6.2-5.7-10.7c0-2.4,0.6-4.6,1.7-6.5c6.3,7.8,15.8,12.9,26.5,13.5c-0.2-0.9-0.3-1.9-0.3-2.9
		c0-7.1,5.8-12.9,12.9-12.9c3.7,0,7,1.6,9.4,4.1c2.9-0.6,5.7-1.7,8.2-3.1c-1,3-3,5.5-5.7,7.1c2.6-0.3,5.1-1,7.4-2
		C81,35.5,78.8,37.7,76.3,39.5z"/>
</g>
<g id="Layer_3">
	<g>
		<linearGradient id="SVGID_3_" gradientUnits="userSpaceOnUse" x1="0.6077" y1="49.9114" x2="98.4306" y2="49.9114">
			<stop  offset="3.535350e-02" style="stop-color:#9F19AB"/>
			<stop  offset="0.2438" style="stop-color:#AE25B1"/>
			<stop  offset="0.6455" style="stop-color:#D744BF"/>
			<stop  offset="1" style="stop-color:#FF63CE"/>
		</linearGradient>
		<path class="st4" d="M49.5,1C22.5,1,0.6,22.9,0.6,49.9s21.9,48.9,48.9,48.9s48.9-21.9,48.9-48.9S76.5,1,49.5,1z M80.1,62.6
			c-0.1,3.3-0.7,5.5-1.4,7.5c-0.8,2-1.8,3.7-3.6,5.5c-1.7,1.7-3.4,2.8-5.5,3.6c-2,0.8-4.2,1.3-7.5,1.4c-3.3,0.1-4.3,0.2-12.7,0.2
			s-9.4,0-12.7-0.2c-3.3-0.1-5.5-0.7-7.5-1.4c-2-0.8-3.7-1.8-5.5-3.6c-1.7-1.7-2.8-3.4-3.6-5.5c-0.8-2-1.3-4.2-1.4-7.5
			c-0.1-3.3-0.2-4.3-0.2-12.7c0-8.4,0-9.4,0.2-12.7c0.1-3.3,0.7-5.5,1.4-7.5c0.8-2,1.8-3.7,3.6-5.5s3.4-2.8,5.5-3.6
			c2-0.8,4.2-1.3,7.5-1.4c3.3-0.1,4.3-0.2,12.7-0.2s9.4,0,12.7,0.2c3.3,0.1,5.5,0.7,7.5,1.4c2,0.8,3.7,1.8,5.5,3.6s2.8,3.4,3.6,5.5
			c0.8,2,1.3,4.2,1.4,7.5c0.1,3.3,0.2,4.3,0.2,12.7S80.3,59.3,80.1,62.6z"/>
		<linearGradient id="SVGID_4_" gradientUnits="userSpaceOnUse" x1="39.2537" y1="49.9114" x2="59.7845" y2="49.9114">
			<stop  offset="3.535350e-02" style="stop-color:#9F19AB"/>
			<stop  offset="0.2438" style="stop-color:#AE25B1"/>
			<stop  offset="0.6455" style="stop-color:#D744BF"/>
			<stop  offset="1" style="stop-color:#FF63CE"/>
		</linearGradient>
		<circle class="st5" cx="49.5" cy="49.9" r="10.3"/>
		<linearGradient id="SVGID_5_" gradientUnits="userSpaceOnUse" x1="24.2719" y1="49.9115" x2="74.7664" y2="49.9115">
			<stop  offset="3.535350e-02" style="stop-color:#9F19AB"/>
			<stop  offset="0.2438" style="stop-color:#AE25B1"/>
			<stop  offset="0.6455" style="stop-color:#D744BF"/>
			<stop  offset="1" style="stop-color:#FF63CE"/>
		</linearGradient>
		<path class="st6" d="M73.5,31.7c-0.6-1.4-1.2-2.5-2.3-3.5c-1.1-1.1-2.1-1.7-3.5-2.3C66.6,25.5,65,25,62,24.8
			c-3.2-0.1-4.2-0.2-12.4-0.2c-8.2,0-9.2,0-12.4,0.2c-3,0.1-4.6,0.6-5.7,1.1c-1.4,0.6-2.5,1.2-3.5,2.3c-1.1,1.1-1.7,2.1-2.3,3.5
			c-0.4,1.1-0.9,2.7-1.1,5.7c-0.1,3.2-0.2,4.2-0.2,12.4s0,9.2,0.2,12.4c0.1,3,0.6,4.6,1.1,5.7c0.6,1.4,1.2,2.5,2.3,3.5
			c1.1,1.1,2.1,1.7,3.5,2.3c1.1,0.4,2.7,0.9,5.7,1.1c3.2,0.1,4.2,0.2,12.4,0.2s9.2,0,12.4-0.2c3-0.1,4.6-0.6,5.7-1.1
			c1.4-0.6,2.5-1.2,3.5-2.3c1.1-1.1,1.7-2.1,2.3-3.5c0.4-1.1,0.9-2.7,1.1-5.7c0.1-3.2,0.2-4.2,0.2-12.4s0-9.2-0.2-12.4
			C74.4,34.5,73.9,32.8,73.5,31.7z M49.5,65.7c-8.7,0-15.8-7.1-15.8-15.8c0-8.7,7.1-15.8,15.8-15.8s15.8,7.1,15.8,15.8
			C65.3,58.6,58.3,65.7,49.5,65.7z M66,37.2c-2,0-3.7-1.7-3.7-3.7s1.7-3.7,3.7-3.7s3.7,1.7,3.7,3.7S68,37.2,66,37.2z"/>
	</g>
</g>
<g id="Layer_5" class="st0">
	<linearGradient id="SVGID_6_" gradientUnits="userSpaceOnUse" x1="1.0382" y1="49.9114" x2="98" y2="49.9114">
		<stop  offset="3.535350e-02" style="stop-color:#9F19AB"/>
		<stop  offset="0.2438" style="stop-color:#AE25B1"/>
		<stop  offset="0.6455" style="stop-color:#D744BF"/>
		<stop  offset="1" style="stop-color:#FF63CE"/>
	</linearGradient>
	<path class="st7" d="M49.5,1.4C22.7,1.4,1,23.1,1,49.9c0,26.8,21.7,48.5,48.5,48.5C76.3,98.4,98,76.7,98,49.9
		C98,23.1,76.3,1.4,49.5,1.4z M33.5,76.4c-3.4,0-6.9,0-10.3,0c-0.6,0-0.7-0.1-0.7-0.7c0-12.3,0-24.6,0-36.9c0-0.5,0.1-0.7,0.7-0.7
		c3.5,0,7,0,10.5,0c0.7,0,0.8,0.3,0.8,0.8c0,6.1,0,12.2,0,18.4c0,6.1,0,12.1,0,18.2C34.4,76.2,34.2,76.4,33.5,76.4z M28.4,32.9
		c-3.8,0-6.9-3.1-6.9-6.9c0-3.8,3.1-6.9,6.9-6.9c3.8,0,6.9,3.1,6.9,6.9C35.3,29.8,32.2,32.9,28.4,32.9z M79,75.6
		c0,0.6-0.2,0.8-0.8,0.8c-3.5,0-6.9,0-10.4,0c-0.6,0-0.7-0.2-0.7-0.8c0-6.4,0-12.7,0-19.1c0-1.6-0.1-3.2-0.6-4.7
		c-0.8-2.9-2.9-4.3-5.9-4.2c-4.1,0.2-6.2,2.2-6.7,6.4c-0.1,1-0.2,2-0.2,3c0,6.2,0,12.4,0,18.6c0,0.6-0.2,0.8-0.8,0.8
		c-3.5,0-7,0-10.4,0c-0.6,0-0.7-0.1-0.7-0.7c0-12.3,0-24.5,0-36.8c0-0.6,0.2-0.7,0.8-0.7c3.3,0,6.6,0,9.9,0c0.6,0,0.8,0.2,0.8,0.8
		c0,1.5,0,2.9,0,4.4c0.8-0.9,1.5-1.8,2.3-2.6c2.5-2.4,5.5-3.6,9-3.5c1.9,0,3.8,0.2,5.6,0.7c4.2,1.2,6.7,4.1,7.8,8.2
		c0.9,3.1,1,6.2,1,9.4C79,62.2,79,68.9,79,75.6z"/>
</g>
<g id="Layer_6" class="st0">
	<g class="st1">
		<linearGradient id="SVGID_7_" gradientUnits="userSpaceOnUse" x1="37.1515" y1="69.0438" x2="61.9025" y2="69.0438">
			<stop  offset="3.535350e-02" style="stop-color:#9F19AB"/>
			<stop  offset="0.2438" style="stop-color:#AE25B1"/>
			<stop  offset="0.6455" style="stop-color:#D744BF"/>
			<stop  offset="1" style="stop-color:#FF63CE"/>
		</linearGradient>
		<path class="st8" d="M59.7,66.5c-2.2,2.2-6.8,2.9-10.1,2.9c-3.3,0-8-0.8-10.1-2.9c-0.5-0.5-1.3-0.5-1.9,0c-0.5,0.5-0.5,1.3,0,1.9
			c3.4,3.4,10,3.7,12,3.7c1.9,0,8.5-0.3,12-3.7c0.5-0.5,0.5-1.3,0-1.9C61,65.9,60.2,65.9,59.7,66.5z"/>
		<linearGradient id="SVGID_8_" gradientUnits="userSpaceOnUse" x1="33.3588" y1="54.9614" x2="43.459" y2="54.9614">
			<stop  offset="3.535350e-02" style="stop-color:#9F19AB"/>
			<stop  offset="0.2438" style="stop-color:#AE25B1"/>
			<stop  offset="0.6455" style="stop-color:#D744BF"/>
			<stop  offset="1" style="stop-color:#FF63CE"/>
		</linearGradient>
		<path class="st9" d="M43.5,55c0-2.8-2.3-5.1-5-5.1c-2.8,0-5.1,2.3-5.1,5.1c0,2.8,2.3,5,5.1,5C41.2,60,43.5,57.7,43.5,55z"/>
		<linearGradient id="SVGID_9_" gradientUnits="userSpaceOnUse" x1="1.0382" y1="49.9114" x2="98" y2="49.9114">
			<stop  offset="3.535350e-02" style="stop-color:#9F19AB"/>
			<stop  offset="0.2438" style="stop-color:#AE25B1"/>
			<stop  offset="0.6455" style="stop-color:#D744BF"/>
			<stop  offset="1" style="stop-color:#FF63CE"/>
		</linearGradient>
		<path class="st10" d="M49.5,1.4C22.7,1.4,1,23.1,1,49.9c0,26.8,21.7,48.5,48.5,48.5C76.3,98.4,98,76.7,98,49.9
			C98,23.1,76.3,1.4,49.5,1.4z M77.6,56.4c0.1,0.7,0.2,1.4,0.2,2.1c0,10.9-12.7,19.7-28.3,19.7c-15.6,0-28.3-8.8-28.3-19.7
			c0-0.7,0.1-1.4,0.2-2.1c-2.5-1.1-4.2-3.6-4.2-6.4c0-3.9,3.2-7.1,7.1-7.1c1.9,0,3.6,0.8,4.9,2c4.9-3.5,11.7-5.8,19.2-6L52,21.9
			c0.1-0.3,0.3-0.6,0.5-0.8c0.3-0.2,0.6-0.2,0.9-0.2l11.7,2.5c0.8-1.7,2.5-2.8,4.5-2.8c2.8,0,5.1,2.3,5.1,5.1c0,2.8-2.3,5.1-5.1,5.1
			c-2.7,0-4.9-2.1-5-4.8l-10.5-2.2L51,38.8c7.4,0.3,14.1,2.5,18.9,6c1.3-1.2,3-2,4.9-2c3.9,0,7.1,3.2,7.1,7.1
			C81.8,52.8,80.1,55.3,77.6,56.4z"/>
		<linearGradient id="SVGID_10_" gradientUnits="userSpaceOnUse" x1="55.5792" y1="54.962" x2="65.6794" y2="54.962">
			<stop  offset="3.535350e-02" style="stop-color:#9F19AB"/>
			<stop  offset="0.2438" style="stop-color:#AE25B1"/>
			<stop  offset="0.6455" style="stop-color:#D744BF"/>
			<stop  offset="1" style="stop-color:#FF63CE"/>
		</linearGradient>
		<path class="st11" d="M60.6,49.9c-2.8,0-5.1,2.3-5.1,5.1c0,2.8,2.3,5,5.1,5c2.8,0,5.1-2.3,5.1-5C65.7,52.2,63.4,49.9,60.6,49.9z"
			/>
	</g>
</g>
<g id="Layer_7" class="st0">
	<linearGradient id="SVGID_11_" gradientUnits="userSpaceOnUse" x1="1.0382" y1="49.9114" x2="98" y2="49.9114">
		<stop  offset="3.535350e-02" style="stop-color:#9F19AB"/>
		<stop  offset="0.2438" style="stop-color:#AE25B1"/>
		<stop  offset="0.6455" style="stop-color:#D744BF"/>
		<stop  offset="1" style="stop-color:#FF63CE"/>
	</linearGradient>
	<path class="st12" d="M49.5,1.4C22.7,1.4,1,23.1,1,49.9c0,26.8,21.7,48.5,48.5,48.5C76.3,98.4,98,76.7,98,49.9
		C98,23.1,76.3,1.4,49.5,1.4z M73.2,32.3c-0.3,4.5-8.5,37.7-8.5,37.7s-0.5,1.9-2.3,2c-0.6,0-1.4-0.1-2.4-0.9
		c-1.9-1.6-6.2-4.7-10.2-7.4c-1.2,1-3.6,3.1-6.1,5.6c-3.5,3.5-3.1,0-3.1,0l1.1-11.6l0,0c0.1-0.1,0.1-0.2,0.1-0.2
		s20.9-18.6,21.5-20.5c0-0.2-0.1-0.2-0.3-0.2c-1.4,0.5-25.5,15.7-28.1,17.4c-0.2,0.1-0.6,0-0.6,0l-11.7-3.8c0,0-1.4-0.6-0.9-1.9
		c0.1-0.3,0.3-0.5,0.8-0.9c2.6-1.8,47.9-18.1,47.9-18.1s1.3-0.4,2-0.1c0.3,0.1,0.6,0.3,0.8,0.8c0.1,0.2,0.1,0.6,0.1,1
		C73.2,31.5,73.2,31.8,73.2,32.3z"/>
</g>
<g id="Layer_8" class="st0">
	<g class="st1">
		<linearGradient id="SVGID_12_" gradientUnits="userSpaceOnUse" x1="43.055" y1="49.9114" x2="59.8486" y2="49.9114">
			<stop  offset="3.535350e-02" style="stop-color:#9F19AB"/>
			<stop  offset="0.2438" style="stop-color:#AE25B1"/>
			<stop  offset="0.6455" style="stop-color:#D744BF"/>
			<stop  offset="1" style="stop-color:#FF63CE"/>
		</linearGradient>
		<polygon class="st13" points="43.1,59.6 59.8,49.9 43.1,40.2 		"/>
		<linearGradient id="SVGID_13_" gradientUnits="userSpaceOnUse" x1="1.0382" y1="49.9114" x2="98" y2="49.9114">
			<stop  offset="3.535350e-02" style="stop-color:#9F19AB"/>
			<stop  offset="0.2438" style="stop-color:#AE25B1"/>
			<stop  offset="0.6455" style="stop-color:#D744BF"/>
			<stop  offset="1" style="stop-color:#FF63CE"/>
		</linearGradient>
		<path class="st14" d="M49.5,1.4C22.7,1.4,1,23.1,1,49.9c0,26.8,21.7,48.5,48.5,48.5C76.3,98.4,98,76.7,98,49.9
			C98,23.1,76.3,1.4,49.5,1.4z M80.5,65.5c-0.7,2.8-2.9,5-5.7,5.7c-5,1.4-25.3,1.4-25.3,1.4s-20.2,0-25.3-1.4
			c-2.8-0.7-5-2.9-5.7-5.7c-1.4-5-1.4-15.6-1.4-15.6s0-10.5,1.4-15.6c0.7-2.8,2.9-5,5.7-5.7c5-1.4,25.3-1.4,25.3-1.4
			s20.2,0,25.3,1.4c2.8,0.7,5,2.9,5.7,5.7c1.4,5,1.4,15.6,1.4,15.6S81.8,60.4,80.5,65.5z"/>
	</g>
</g>
<g id="Layer_9" class="st0">
	<g id="Layer_10" class="st1">
		<g>
			<linearGradient id="SVGID_14_" gradientUnits="userSpaceOnUse" x1="1.0382" y1="49.9114" x2="98" y2="49.9114">
				<stop  offset="3.535350e-02" style="stop-color:#9F19AB"/>
				<stop  offset="0.2438" style="stop-color:#AE25B1"/>
				<stop  offset="0.6455" style="stop-color:#D744BF"/>
				<stop  offset="1" style="stop-color:#FF63CE"/>
			</linearGradient>
			<path class="st15" d="M49.5,1.4C22.7,1.4,1,23.1,1,49.9c0,26.8,21.7,48.5,48.5,48.5C76.3,98.4,98,76.7,98,49.9
				C98,23.1,76.3,1.4,49.5,1.4z M51.1,79.7C51.1,79.7,51.1,79.7,51.1,79.7L51.1,79.7c-5.2,0-10.2-1.3-14.7-3.7l-16.3,4.3l4.4-15.9
				c-2.7-4.7-4.1-10-4.1-15.4c0-17,13.8-30.7,30.8-30.7c8.2,0,15.9,3.2,21.8,9c5.8,5.8,9,13.5,9,21.8C81.8,65.9,68,79.7,51.1,79.7z"
				/>
		</g>
	</g>
	<g id="Layer_12" class="st1">
	</g>
	<g id="Layer_11" class="st1">
	</g>
	<g id="Layer_13" class="st1">
		<linearGradient id="SVGID_15_" gradientUnits="userSpaceOnUse" x1="25.522" y1="48.9267" x2="76.647" y2="48.9267">
			<stop  offset="3.535350e-02" style="stop-color:#9F19AB"/>
			<stop  offset="0.2438" style="stop-color:#AE25B1"/>
			<stop  offset="0.6455" style="stop-color:#D744BF"/>
			<stop  offset="1" style="stop-color:#FF63CE"/>
		</linearGradient>
		<path class="st16" d="M69.2,30.9c-4.8-4.8-11.2-7.5-18.1-7.5c-14.1,0-25.6,11.5-25.6,25.6c0,4.8,1.3,9.5,3.9,13.6l0.6,1l-2.6,9.4
			l9.7-2.5l0.9,0.6c3.9,2.3,8.4,3.6,13,3.6h0c14.1,0,25.6-11.5,25.6-25.6C76.6,42.1,74,35.7,69.2,30.9z"/>
		<g id="Layer_14">
			<g>
				<g id="WA_Logo_10_">
					<g>
						<path class="st17" d="M66.6,56.2c-0.2-0.3-0.7-0.5-1.5-0.9s-4.5-2.2-5.3-2.5c-0.7-0.3-1.2-0.4-1.7,0.4c-0.5,0.8-2,2.5-2.4,3
							s-0.9,0.6-1.7,0.2c-0.8-0.4-3.2-1.2-6.2-3.8c-2.3-2-3.8-4.6-4.3-5.3c-0.4-0.8,0-1.2,0.3-1.6c0.3-0.3,0.8-0.9,1.2-1.3
							c0.4-0.4,0.5-0.8,0.8-1.3c0.3-0.5,0.1-1-0.1-1.3s-1.7-4.2-2.4-5.7c-0.6-1.5-1.3-1.3-1.7-1.3c-0.4,0-1,0-1.5,0
							c-0.5,0-1.3,0.2-2,1c-0.7,0.8-2.7,2.6-2.7,6.4s2.8,7.4,3.1,7.9c0.4,0.5,5.4,8.3,13.1,11.6c1.8,0.8,3.3,1.3,4.4,1.6
							c1.8,0.6,3.5,0.5,4.8,0.3c1.5-0.2,4.5-1.9,5.2-3.7C66.8,58.1,66.8,56.6,66.6,56.2z"/>
					</g>
				</g>
			</g>
		</g>
	</g>
</g>
</svg>
