<?xml version="1.0" encoding="utf-8"?>
<!-- Generator: Adobe Illustrator 24.2.3, SVG Export Plug-In . SVG Version: 6.00 Build 0)  -->
<svg version="1.1" id="Layer_1" xmlns="http://www.w3.org/2000/svg" xmlns:xlink="http://www.w3.org/1999/xlink" x="0px" y="0px"
	 viewBox="0 0 512 512" style="enable-background:new 0 0 512 512;" xml:space="preserve">
<style type="text/css">
	.st0{opacity:0.2;}
	.st1{opacity:0;}
	.st2{opacity:0.0909;}
	.st3{opacity:0.1818;}
	.st4{opacity:0.2727;}
	.st5{opacity:0.3636;}
	.st6{opacity:0.4545;}
	.st7{opacity:0.5455;}
	.st8{opacity:0.6364;}
	.st9{opacity:0.7273;}
	.st10{opacity:0.8182;}
	.st11{opacity:0.9091;}
	.st12{fill:url(#SVGID_1_);}
	.st13{fill:url(#SVGID_2_);}
	.st14{opacity:0.6;fill:url(#SVGID_3_);}
	.st15{fill:url(#SVGID_4_);}
	.st16{fill:url(#SVGID_5_);}
	.st17{fill:url(#SVGID_6_);}
	.st18{fill:url(#SVGID_7_);}
	.st19{fill:url(#SVGID_8_);}
	.st20{fill:url(#SVGID_9_);}
	.st21{fill:url(#SVGID_10_);}
	.st22{opacity:0.3;}
	.st23{opacity:0;fill:url(#SVGID_11_);}
	.st24{opacity:0.0909;fill:url(#SVGID_12_);}
	.st25{opacity:0.1818;fill:url(#SVGID_13_);}
	.st26{opacity:0.2727;fill:url(#SVGID_14_);}
	.st27{opacity:0.3636;fill:url(#SVGID_15_);}
	.st28{opacity:0.4545;fill:url(#SVGID_16_);}
	.st29{opacity:0.5455;fill:url(#SVGID_17_);}
	.st30{opacity:0.6364;fill:url(#SVGID_18_);}
	.st31{opacity:0.7273;fill:url(#SVGID_19_);}
	.st32{opacity:0.8182;fill:url(#SVGID_20_);}
	.st33{opacity:0.9091;fill:url(#SVGID_21_);}
	.st34{fill:url(#SVGID_22_);}
	.st35{fill:url(#SVGID_23_);}
	.st36{fill:url(#SVGID_24_);}
	.st37{fill:#FFFFFF;}
	.st38{fill:url(#SVGID_25_);}
	.st39{fill:url(#SVGID_26_);}
	.st40{fill:url(#SVGID_27_);}
	.st41{fill:url(#SVGID_28_);}
	.st42{fill:url(#SVGID_29_);}
	.st43{fill:#414042;}
	.st44{fill:url(#SVGID_30_);}
	.st45{fill:url(#SVGID_31_);}
	.st46{fill:url(#SVGID_32_);}
	.st47{fill:#9122EB;}
	.st48{opacity:0;fill:url(#SVGID_33_);}
	.st49{opacity:0.0909;fill:url(#SVGID_34_);}
	.st50{opacity:0.1818;fill:url(#SVGID_35_);}
	.st51{opacity:0.2727;fill:url(#SVGID_36_);}
	.st52{opacity:0.3636;fill:url(#SVGID_37_);}
	.st53{opacity:0.4545;fill:url(#SVGID_38_);}
	.st54{opacity:0.5455;fill:url(#SVGID_39_);}
	.st55{opacity:0.6364;fill:url(#SVGID_40_);}
	.st56{opacity:0.7273;fill:url(#SVGID_41_);}
	.st57{opacity:0.8182;fill:url(#SVGID_42_);}
	.st58{opacity:0.9091;fill:url(#SVGID_43_);}
	.st59{fill:url(#SVGID_44_);}
	.st60{fill:url(#SVGID_45_);}
	.st61{fill:url(#SVGID_46_);}
	.st62{opacity:0.5;fill:url(#SVGID_47_);}
	.st63{fill:#25054D;}
	.st64{fill:url(#SVGID_48_);}
	.st65{filter:url(#Adobe_OpacityMaskFilter);}
	.st66{filter:url(#Adobe_OpacityMaskFilter_1_);}
	.st67{mask:url(#SVGID_49_);fill:url(#SVGID_50_);}
	.st68{fill:url(#SVGID_51_);}
	.st69{fill:url(#SVGID_52_);}
	.st70{fill:url(#SVGID_53_);}
	.st71{fill:url(#SVGID_54_);}
	.st72{filter:url(#Adobe_OpacityMaskFilter_2_);}
	.st73{filter:url(#Adobe_OpacityMaskFilter_3_);}
	.st74{mask:url(#SVGID_55_);fill:url(#SVGID_56_);}
	.st75{fill:url(#SVGID_57_);}
	.st76{fill:url(#SVGID_58_);}
	.st77{fill:url(#SVGID_59_);}
	.st78{fill:url(#SVGID_60_);}
	.st79{fill:url(#SVGID_61_);}
	.st80{fill:#EBDEF3;}
	.st81{fill:url(#SVGID_62_);}
	.st82{fill:url(#SVGID_63_);}
	.st83{fill:url(#SVGID_64_);}
	.st84{opacity:0.5;fill:url(#SVGID_65_);}
	.st85{fill:url(#SVGID_66_);}
	.st86{opacity:0.8;fill:#7C1DC9;}
	.st87{opacity:0.6;fill:#7C1DC9;}
	.st88{opacity:0.4;fill:#7C1DC9;}
	.st89{opacity:0.25;fill:#7C1DC9;}
	.st90{opacity:0.15;fill:#7C1DC9;}
	.st91{opacity:0.8;}
	.st92{fill:#7C1DC9;}
</style>
<g>
	<g class="st0">
		<path class="st1" d="M327.5,513c-5.13,0-9.79-1.12-13.46-3.25l-81.76-46.53l-81.76-46.53c-4.91-2.83-7.72-7.32-7.72-12.31
			c0-5.46,3.39-10.56,9.3-13.97l53.5-30.1c4.64-2.68,10.45-4.16,16.35-4.16c5.13,0,9.79,1.12,13.46,3.25l81.76,46.53l81.76,46.53
			c4.91,2.83,7.72,7.32,7.72,12.3c0,5.46-3.39,10.56-9.3,13.97l-53.5,30.1C339.21,511.52,333.4,513,327.5,513z"/>
		<path class="st2" d="M153.55,391.58l14.51-8.09c0.59-0.34,27.82-15.19,28.33-14.9l9.36-4.58c4.22-2.44,10.42-3.25,15.79-3.25
			c4.66,0,9.65,1.46,13,3.39l65.46,37.29l13.96,7.95l79.42,45.24c2.56,1.48,4.94,3.76,6.17,6.01c0.97,1.78,1.56,3.7,1.62,5.72
			c0.16,5.25-3.07,10.23-8.88,13.59l-14.51,8.09c-0.59,0.34-27.82,15.19-28.33,14.9l-9.36,4.58c-4.22,2.44-10.42,3.25-15.79,3.25
			c-4.66,0-9.65-1.46-13-3.39l-65.46-37.29l-13.96-7.95l-79.42-45.24c-2.56-1.48-4.94-3.76-6.17-6.01c-0.97-1.78-1.56-3.7-1.62-5.72
			C144.51,399.91,147.74,394.94,153.55,391.58z"/>
		<path class="st3" d="M155,392.73l14.12-7.8c1.18-0.68,26.67-14.09,27.69-13.5l9.08-3.75c3.8-2.19,10.39-2.33,15.22-2.33
			c4.2,0,9.52,1.79,12.53,3.53l63.54,36.23l13.55,7.73l77.09,43.95c2.31,1.33,4.94,3.72,6.09,5.72c0.98,1.71,1.65,3.51,1.77,5.44
			c0.31,5.04-2.75,9.9-8.46,13.2l-14.12,7.8c-1.18,0.68-26.67,14.09-27.69,13.5l-9.08,3.75c-3.8,2.19-10.39,2.33-15.22,2.33
			c-4.2,0-9.52-1.79-12.53-3.53l-63.54-36.23l-13.55-7.73l-77.09-43.95c-2.31-1.33-4.94-3.72-6.09-5.72
			c-0.98-1.71-1.65-3.51-1.77-5.44C146.23,400.89,149.28,396.03,155,392.73z"/>
		<path class="st4" d="M156.45,393.88l13.73-7.51c1.77-1.02,25.52-12.99,27.06-12.1l8.8-2.91c3.38-1.95,10.37-1.42,14.66-1.42
			c3.73,0,9.39,2.13,12.06,3.67l61.61,35.17l13.14,7.5l74.76,42.67c2.05,1.18,4.94,3.67,6,5.42c0.99,1.64,1.74,3.32,1.92,5.16
			c0.47,4.83-2.42,9.58-8.04,12.82l-13.73,7.51c-1.77,1.02-25.52,12.99-27.06,12.1l-8.8,2.91c-3.38,1.95-10.37,1.42-14.66,1.42
			c-3.73,0-9.39-2.13-12.06-3.67l-61.61-35.17l-13.14-7.5l-74.76-42.67c-2.05-1.18-4.94-3.67-6-5.43c-0.99-1.64-1.74-3.32-1.92-5.16
			C147.94,401.87,150.83,397.12,156.45,393.88z"/>
		<path class="st5" d="M157.9,395.03l13.34-7.22c2.36-1.36,24.37-11.88,26.42-10.7l8.52-2.07c2.95-1.71,10.34-0.51,14.1-0.51
			c3.26,0,9.26,2.46,11.6,3.81l59.69,34.11l12.73,7.27l72.42,41.38c1.79,1.04,4.96,3.62,5.92,5.13c1.01,1.58,1.83,3.14,2.06,4.88
			c0.62,4.62-2.1,9.25-7.62,12.44l-13.34,7.22c-2.36,1.36-24.37,11.88-26.42,10.7l-8.52,2.07c-2.95,1.71-10.34,0.51-14.1,0.51
			c-3.26,0-9.26-2.46-11.6-3.81l-59.69-34.11l-12.73-7.27l-72.42-41.38c-1.79-1.04-4.96-3.62-5.92-5.13
			c-1.01-1.58-1.83-3.14-2.06-4.88C149.66,402.85,152.38,398.22,157.9,395.03z"/>
		<path class="st6" d="M159.35,396.19l12.95-6.93c2.96-1.71,23.22-10.78,25.78-9.3l8.24-1.23c2.53-1.46,10.31,0.4,13.53,0.4
			c2.8,0,9.12,2.8,11.13,3.96l57.77,33.05l12.32,7.05l70.09,40.1c1.54,0.89,4.98,3.57,5.84,4.84c1.02,1.51,1.92,2.95,2.21,4.6
			c0.78,4.41-1.78,8.93-7.2,12.06l-12.95,6.93c-2.95,1.71-23.22,10.78-25.78,9.3l-8.24,1.23c-2.53,1.46-10.31-0.4-13.53-0.4
			c-2.8,0-9.12-2.8-11.13-3.96l-57.77-33.05l-12.32-7.05l-70.09-40.1c-1.54-0.89-4.98-3.57-5.84-4.84c-1.02-1.51-1.92-2.95-2.21-4.6
			C151.37,403.83,153.93,399.31,159.35,396.19z"/>
		<path class="st7" d="M160.79,397.34l12.55-6.64c3.55-2.05,22.08-9.68,25.15-7.9l7.96-0.39c2.11-1.22,10.29,1.31,12.97,1.31
			c2.33,0,8.99,3.13,10.66,4.1l55.85,31.99l11.91,6.82l67.75,38.81c1.28,0.74,5.02,3.5,5.76,4.55c1.04,1.46,2.01,2.77,2.36,4.32
			c0.94,4.2-1.46,8.6-6.78,11.68l-12.55,6.64c-3.55,2.05-22.08,9.68-25.15,7.9l-7.97,0.39c-2.11,1.22-10.29-1.31-12.97-1.31
			c-2.33,0-8.99-3.13-10.66-4.1l-55.85-31.99l-11.91-6.82l-67.75-38.81c-1.28-0.74-5.02-3.51-5.76-4.55
			c-1.04-1.46-2.01-2.77-2.36-4.32C153.07,404.81,155.47,400.41,160.79,397.34z"/>
		<path class="st8" d="M162.24,398.49l12.16-6.35c4.14-2.39,20.93-8.57,24.51-6.51l7.69,0.44c1.69-0.97,10.26,2.22,12.41,2.22
			c1.87,0,8.86,3.47,10.2,4.24l53.92,30.93l11.5,6.59l65.42,37.52c1.03,0.59,5.06,3.44,5.68,4.26c1.06,1.4,2.1,2.58,2.51,4.04
			c1.11,3.99-1.13,8.28-6.36,11.29l-12.16,6.35c-4.14,2.39-20.93,8.57-24.51,6.51l-7.69-0.44c-1.69,0.97-10.26-2.22-12.41-2.22
			c-1.87,0-8.86-3.47-10.2-4.24l-53.92-30.93l-11.5-6.59l-65.42-37.52c-1.03-0.59-5.06-3.44-5.68-4.26c-1.06-1.4-2.1-2.58-2.51-4.04
			C154.78,405.79,157.02,401.5,162.24,398.49z"/>
		<path class="st9" d="M163.69,399.64l11.77-6.06c4.73-2.73,19.78-7.47,23.87-5.11l7.41,1.28c1.27-0.73,10.23,3.13,11.84,3.13
			c1.4,0,8.73,3.8,9.73,4.38l52,29.87l11.09,6.37l63.09,36.24c0.77,0.44,5.24,3.28,5.59,3.96c1.32,1.11,2.19,2.4,2.65,3.76
			c1.27,3.77-0.81,7.95-5.94,10.91l-11.77,6.06c-4.73,2.73-19.78,7.47-23.87,5.11l-7.41-1.28c-1.27,0.73-10.23-3.13-11.84-3.13
			c-1.4,0-8.73-3.8-9.73-4.38l-52-29.87l-11.08-6.37L166,418.27c-0.77-0.44-5.24-3.28-5.59-3.96c-1.32-1.11-2.19-2.4-2.65-3.76
			C156.48,406.78,158.57,402.6,163.69,399.64z"/>
		<path class="st10" d="M165.14,400.79l11.38-5.76c5.32-3.07,18.63-6.37,23.24-3.71l7.13,2.12c0.84-0.49,10.21,4.04,11.28,4.04
			c0.93,0,8.59,4.14,9.26,4.52l50.08,28.81l10.67,6.14l60.75,34.95c0.51,0.3,5.28,3.22,5.51,3.67c1.36,1.02,2.29,2.21,2.8,3.48
			c1.44,3.56-0.49,7.63-5.51,10.53l-11.38,5.76c-5.32,3.07-18.63,6.37-23.24,3.71l-7.13-2.12c-0.84,0.49-10.21-4.04-11.28-4.04
			c-0.93,0-8.59-4.14-9.26-4.52l-50.08-28.81l-10.67-6.14l-60.75-34.95c-0.51-0.3-5.28-3.22-5.51-3.67
			c-1.36-1.02-2.29-2.21-2.8-3.48C158.18,407.76,160.12,403.69,165.14,400.79z"/>
		<path class="st11" d="M166.59,401.94l10.99-5.47c5.91-3.41,17.48-5.26,22.6-2.31l6.85,2.96c0.42-0.24,10.18,4.95,10.72,4.95
			c0.47,0,8.46,4.47,8.79,4.67l48.15,27.75l10.26,5.91l58.42,33.67c0.26,0.15,5.31,3.15,5.43,3.38c1.4,0.93,2.38,2.02,2.95,3.2
			c1.61,3.35-0.17,7.3-5.09,10.15l-10.99,5.47c-5.91,3.41-17.48,5.26-22.6,2.31l-6.85-2.96c-0.42,0.24-10.18-4.95-10.72-4.95
			c-0.47,0-8.46-4.47-8.79-4.67l-48.15-27.75l-10.26-5.91l-58.42-33.67c-0.26-0.15-5.31-3.15-5.43-3.38
			c-1.4-0.93-2.38-2.02-2.95-3.2C159.88,408.74,161.66,404.79,166.59,401.94z"/>
		<path d="M309.03,498.09l-71.29-41.16l-71.29-41.16c-5.63-3.25-4.92-8.93,1.58-12.68l10.6-5.18c6.5-3.75,16.34-4.16,21.97-0.91
			l71.29,41.16l71.29,41.16c5.63,3.25,4.92,8.93-1.58,12.68l-10.6,5.18C324.5,500.93,314.66,501.34,309.03,498.09z"/>
	</g>
	<g>
		<linearGradient id="SVGID_1_" gradientUnits="userSpaceOnUse" x1="120.1495" y1="16.732" x2="287.1929" y2="306.0597">
			<stop  offset="0.0556" style="stop-color:#200041"/>
			<stop  offset="0.2576" style="stop-color:#210243"/>
			<stop  offset="0.3572" style="stop-color:#25084B"/>
			<stop  offset="0.4341" style="stop-color:#2C1358"/>
			<stop  offset="0.4697" style="stop-color:#311B61"/>
			<stop  offset="0.482" style="stop-color:#351F65"/>
			<stop  offset="0.4954" style="stop-color:#422C73"/>
			<stop  offset="0.5093" style="stop-color:#584188"/>
			<stop  offset="0.5235" style="stop-color:#765FA7"/>
			<stop  offset="0.5303" style="stop-color:#8770B8"/>
			<stop  offset="0.5366" style="stop-color:#7E67AE"/>
			<stop  offset="0.5617" style="stop-color:#5C468D"/>
			<stop  offset="0.5857" style="stop-color:#442E75"/>
			<stop  offset="0.6078" style="stop-color:#362066"/>
			<stop  offset="0.6263" style="stop-color:#311B61"/>
			<stop  offset="0.6724" style="stop-color:#2A1155"/>
			<stop  offset="0.7491" style="stop-color:#230446"/>
			<stop  offset="0.8131" style="stop-color:#200041"/>
			<stop  offset="1" style="stop-color:#200041"/>
		</linearGradient>
		<path class="st12" d="M316.37,487.88l-127.88-73.83c-14.43-8.33-26.12-30.67-26.12-49.91V23.58c0-9.78-8.04-11.94-3.17-15.46
			c0.19-0.13,11.42-5.24,11.63-5.32c5.24-2.01,10.85-2.9,17.66,1.03l127.88,73.83c14.43,8.33,26.12,30.67,26.12,49.91v340.56
			c0,10.22-3.3,17.5-8.56,20.84c-0.31,0.2-13.84,6.63-14.19,6.75C315.08,497.27,322.68,491.52,316.37,487.88z"/>
		<radialGradient id="SVGID_2_" cx="379.7379" cy="134.2803" r="313.4735" gradientUnits="userSpaceOnUse">
			<stop  offset="0" style="stop-color:#711F56"/>
			<stop  offset="0.1614" style="stop-color:#6C1E52"/>
			<stop  offset="0.3626" style="stop-color:#5C1946"/>
			<stop  offset="0.5849" style="stop-color:#431233"/>
			<stop  offset="0.8208" style="stop-color:#200918"/>
			<stop  offset="1" style="stop-color:#000000"/>
		</radialGradient>
		<path class="st13" d="M315.2,78.06L187.31,4.22c-6.81-3.93,120.81,76.19,120.81,76.19c14.43,8.33,26.12,30.67,26.12,49.91
			c0,0,7.07,348.43,7.07,338.21V127.96C341.32,108.73,329.62,86.38,315.2,78.06z"/>
		<radialGradient id="SVGID_3_" cx="327.295" cy="111.8839" r="184.68" gradientUnits="userSpaceOnUse">
			<stop  offset="0" style="stop-color:#AF8AFC"/>
			<stop  offset="1" style="stop-color:#10054D"/>
		</radialGradient>
		<path class="st14" d="M306.44,492.42l-127.88-73.83c-14.43-8.33-26.12-30.67-26.12-49.91V28.12c0-19.23,11.69-28.07,26.12-19.75
			l127.88,73.83c14.43,8.33,26.12,30.67,26.12,49.91v340.56C332.56,491.91,320.87,500.75,306.44,492.42z"/>
		<linearGradient id="SVGID_4_" gradientUnits="userSpaceOnUse" x1="342.1879" y1="283.5452" x2="-168.3547" y2="123.723">
			<stop  offset="0.1869" style="stop-color:#3D065F"/>
			<stop  offset="0.9343" style="stop-color:#3D065F"/>
		</linearGradient>
		<path class="st15" d="M304.17,493.65l-127.88-73.83c-14.43-8.33-26.12-30.67-26.12-49.91V29.35c0-19.23,11.69-28.07,26.12-19.75
			l127.88,73.83c14.43,8.33,26.12,30.67,26.12,49.91V473.9C330.28,493.14,318.59,501.98,304.17,493.65z"/>
		<linearGradient id="SVGID_5_" gradientUnits="userSpaceOnUse" x1="348.8416" y1="481.1348" x2="89.5748" y2="-66.6998">
			<stop  offset="0" style="stop-color:#311B61"/>
			<stop  offset="0.2031" style="stop-color:#290F52"/>
			<stop  offset="0.4949" style="stop-color:#200041"/>
			<stop  offset="1" style="stop-color:#0F001F"/>
		</linearGradient>
		<path class="st16" d="M153.73,372.18V31.19c0-16.86,10.25-24.61,22.9-17.31l127.2,73.44c12.65,7.3,22.9,26.89,22.9,43.75v340.98
			c0,16.86-10.25,24.61-22.9,17.31l-127.2-73.44C163.98,408.63,153.73,389.04,153.73,372.18z"/>
		<linearGradient id="SVGID_6_" gradientUnits="userSpaceOnUse" x1="158.8152" y1="251.6263" x2="321.635" y2="251.6263">
			<stop  offset="0" style="stop-color:#311B61"/>
			<stop  offset="0.2031" style="stop-color:#290F52"/>
			<stop  offset="0.4949" style="stop-color:#200041"/>
			<stop  offset="1" style="stop-color:#0F001F"/>
		</linearGradient>
		<path class="st17" d="M158.82,374.25V35c0-14.11,8.58-20.6,19.17-14.49l124.49,71.87c10.58,6.11,19.17,22.51,19.17,36.62v339.26
			c0,14.11-8.58,20.6-19.17,14.49l-124.49-71.87C167.4,404.76,158.82,388.37,158.82,374.25z"/>
		<linearGradient id="SVGID_7_" gradientUnits="userSpaceOnUse" x1="140.4146" y1="61.3064" x2="388.1396" y2="533.6717">
			<stop  offset="0.0101" style="stop-color:#9F19AB"/>
			<stop  offset="0.4293" style="stop-color:#5F27BD"/>
			<stop  offset="0.904" style="stop-color:#3D065F"/>
		</linearGradient>
		<path class="st18" d="M179.42,24.26c-9.98-5.76-18.06-1.15-18.06,10.3v343.07c0,11.45,8.09,25.4,18.06,31.16l121.61,70.21
			c9.98,5.76,18.06,1.15,18.06-10.3V125.62c0-11.45-8.09-25.4-18.06-31.16L179.42,24.26z"/>
		
			<linearGradient id="SVGID_8_" gradientUnits="userSpaceOnUse" x1="-264.4072" y1="10654.2656" x2="-235.2771" y2="10654.2656" gradientTransform="matrix(-0.5 1.4434 -0.866 0.5 9439.3828 -4768.1709)">
			<stop  offset="0" style="stop-color:#311B61"/>
			<stop  offset="0.2031" style="stop-color:#290F52"/>
			<stop  offset="0.4949" style="stop-color:#200041"/>
			<stop  offset="1" style="stop-color:#0F001F"/>
		</linearGradient>
		<path class="st19" d="M333.72,212.14v-22.99c0-2.94,1.79-6.36,3.99-7.63l0,0c2.2-1.27,3.99,0.08,3.99,3.02v22.99
			c0,2.94-1.79,6.36-3.99,7.63l0,0C335.5,216.43,333.72,215.08,333.72,212.14z"/>
		<linearGradient id="SVGID_9_" gradientUnits="userSpaceOnUse" x1="345.2063" y1="198.6623" x2="325.1184" y2="197.7983">
			<stop  offset="0" style="stop-color:#3D065F"/>
			<stop  offset="1" style="stop-color:#5F27BD"/>
		</linearGradient>
		<path class="st20" d="M336.13,214.77c-1.14,0-1.54-1.42-1.54-2.63v-22.99c0-2.62,1.63-5.77,3.56-6.88
			c0.41-0.24,0.81-0.36,1.15-0.36c1.14,0,1.54,1.42,1.54,2.63v22.99c0,2.61-1.63,5.76-3.56,6.88
			C336.87,214.65,336.47,214.77,336.13,214.77z"/>
		<radialGradient id="SVGID_10_" cx="335.1056" cy="190.0917" r="11.7976" gradientUnits="userSpaceOnUse">
			<stop  offset="0" style="stop-color:#711F56"/>
			<stop  offset="0.1614" style="stop-color:#6C1E52"/>
			<stop  offset="0.3626" style="stop-color:#5C1946"/>
			<stop  offset="0.5849" style="stop-color:#431233"/>
			<stop  offset="0.8208" style="stop-color:#200918"/>
			<stop  offset="1" style="stop-color:#000000"/>
		</radialGradient>
		<path class="st21" d="M335.76,212.73v-22.99c0-2.62,1.63-5.77,3.56-6.88c0.36-0.21,0.71-0.31,1.02-0.34
			c-0.24-0.37-0.58-0.61-1.05-0.61c-0.34,0-0.74,0.13-1.15,0.36c-1.93,1.11-3.56,4.26-3.56,6.88v22.99c0,1.21,0.41,2.63,1.54,2.63
			c0.04,0,0.09-0.02,0.13-0.02C335.91,214.23,335.76,213.45,335.76,212.73z"/>
	</g>
	<g>
		<g class="st22">
			<linearGradient id="SVGID_11_" gradientUnits="userSpaceOnUse" x1="68.4409" y1="-51.6776" x2="288.86" y2="368.6206">
				<stop  offset="0.0101" style="stop-color:#9F19AB"/>
				<stop  offset="0.4293" style="stop-color:#5F27BD"/>
				<stop  offset="0.904" style="stop-color:#3D065F"/>
			</linearGradient>
			<path class="st23" d="M179.72,86.81c-10.51-6.07-19.02-1.21-19.02,10.84v273.99c0,12.05,8.52,26.74,19.02,32.81l128.06,73.93
				c10.51,6.07,19.02,1.21,19.02-10.84V193.55c0-12.05-8.52-26.74-19.02-32.81L179.72,86.81z"/>
			<linearGradient id="SVGID_12_" gradientUnits="userSpaceOnUse" x1="69.0031" y1="-50.1058" x2="288.3472" y2="368.1424">
				<stop  offset="0.0101" style="stop-color:#9F19AB"/>
				<stop  offset="0.4293" style="stop-color:#5F27BD"/>
				<stop  offset="0.904" style="stop-color:#3D065F"/>
			</linearGradient>
			<path class="st24" d="M179.74,87.7c-10.45-6.04-18.93-1.2-18.93,10.79v272.66c0,12,8.47,26.61,18.93,32.65l127.43,73.57
				c10.45,6.04,18.93,1.2,18.93-10.79V193.93c0-12-8.47-26.61-18.93-32.65L179.74,87.7z"/>
			<linearGradient id="SVGID_13_" gradientUnits="userSpaceOnUse" x1="69.5654" y1="-48.534" x2="287.8344" y2="367.6642">
				<stop  offset="0.0101" style="stop-color:#9F19AB"/>
				<stop  offset="0.4293" style="stop-color:#5F27BD"/>
				<stop  offset="0.904" style="stop-color:#3D065F"/>
			</linearGradient>
			<path class="st25" d="M179.76,88.6c-10.4-6.01-18.84-1.2-18.84,10.74v271.32c0,11.94,8.43,26.48,18.84,32.49l126.81,73.21
				c10.4,6.01,18.84,1.2,18.84-10.74V194.3c0-11.94-8.43-26.48-18.84-32.49L179.76,88.6z"/>
			<linearGradient id="SVGID_14_" gradientUnits="userSpaceOnUse" x1="70.1277" y1="-46.9621" x2="287.3216" y2="367.186">
				<stop  offset="0.0101" style="stop-color:#9F19AB"/>
				<stop  offset="0.4293" style="stop-color:#5F27BD"/>
				<stop  offset="0.904" style="stop-color:#3D065F"/>
			</linearGradient>
			<path class="st26" d="M179.78,89.5c-10.35-5.98-18.74-1.19-18.74,10.69v269.98c0,11.88,8.39,26.35,18.74,32.33l126.18,72.85
				c10.35,5.98,18.74,1.19,18.74-10.69V194.68c0-11.88-8.39-26.35-18.74-32.33L179.78,89.5z"/>
			<linearGradient id="SVGID_15_" gradientUnits="userSpaceOnUse" x1="70.69" y1="-45.3903" x2="286.8087" y2="366.7078">
				<stop  offset="0.0101" style="stop-color:#9F19AB"/>
				<stop  offset="0.4293" style="stop-color:#5F27BD"/>
				<stop  offset="0.904" style="stop-color:#3D065F"/>
			</linearGradient>
			<path class="st27" d="M179.8,90.39c-10.3-5.95-18.65-1.19-18.65,10.63v268.65c0,11.82,8.35,26.22,18.65,32.17l125.56,72.49
				c10.3,5.95,18.65,1.19,18.65-10.63V195.05c0-11.82-8.35-26.22-18.65-32.17L179.8,90.39z"/>
			<linearGradient id="SVGID_16_" gradientUnits="userSpaceOnUse" x1="71.2523" y1="-43.8185" x2="286.2959" y2="366.2296">
				<stop  offset="0.0101" style="stop-color:#9F19AB"/>
				<stop  offset="0.4293" style="stop-color:#5F27BD"/>
				<stop  offset="0.904" style="stop-color:#3D065F"/>
			</linearGradient>
			<path class="st28" d="M179.82,91.29c-10.25-5.92-18.56-1.18-18.56,10.58v267.31c0,11.76,8.31,26.09,18.56,32.01l124.94,72.13
				c10.25,5.92,18.56,1.18,18.56-10.58V195.43c0-11.76-8.31-26.09-18.56-32.01L179.82,91.29z"/>
			<linearGradient id="SVGID_17_" gradientUnits="userSpaceOnUse" x1="71.8145" y1="-42.2467" x2="285.7831" y2="365.7513">
				<stop  offset="0.0101" style="stop-color:#9F19AB"/>
				<stop  offset="0.4293" style="stop-color:#5F27BD"/>
				<stop  offset="0.904" style="stop-color:#3D065F"/>
			</linearGradient>
			<path class="st29" d="M179.84,92.19c-10.2-5.89-18.46-1.17-18.46,10.53v265.98c0,11.7,8.27,25.96,18.46,31.85l124.31,71.77
				c10.2,5.89,18.46,1.17,18.46-10.53V195.81c0-11.7-8.27-25.96-18.46-31.85L179.84,92.19z"/>
			<linearGradient id="SVGID_18_" gradientUnits="userSpaceOnUse" x1="72.3768" y1="-40.6749" x2="285.2703" y2="365.2732">
				<stop  offset="0.0101" style="stop-color:#9F19AB"/>
				<stop  offset="0.4293" style="stop-color:#5F27BD"/>
				<stop  offset="0.904" style="stop-color:#3D065F"/>
			</linearGradient>
			<path class="st30" d="M179.85,93.08c-10.15-5.86-18.37-1.17-18.37,10.47V368.2c0,11.64,8.23,25.83,18.37,31.69l123.69,71.41
				c10.15,5.86,18.37,1.17,18.37-10.47V196.18c0-11.64-8.23-25.83-18.37-31.69L179.85,93.08z"/>
			<linearGradient id="SVGID_19_" gradientUnits="userSpaceOnUse" x1="72.9391" y1="-39.1031" x2="284.7575" y2="364.795">
				<stop  offset="0.0101" style="stop-color:#9F19AB"/>
				<stop  offset="0.4293" style="stop-color:#5F27BD"/>
				<stop  offset="0.904" style="stop-color:#3D065F"/>
			</linearGradient>
			<path class="st31" d="M179.87,93.98c-10.1-5.83-18.28-1.16-18.28,10.42v263.3c0,11.58,8.18,25.7,18.28,31.53l123.06,71.05
				c10.1,5.83,18.28,1.16,18.28-10.42v-263.3c0-11.58-8.18-25.7-18.28-31.53L179.87,93.98z"/>
			<linearGradient id="SVGID_20_" gradientUnits="userSpaceOnUse" x1="73.5014" y1="-37.5313" x2="284.2447" y2="364.3167">
				<stop  offset="0.0101" style="stop-color:#9F19AB"/>
				<stop  offset="0.4293" style="stop-color:#5F27BD"/>
				<stop  offset="0.904" style="stop-color:#3D065F"/>
			</linearGradient>
			<path class="st32" d="M179.89,94.88c-10.04-5.8-18.19-1.16-18.19,10.37v261.97c0,11.53,8.14,25.57,18.19,31.37l122.44,70.69
				c10.04,5.8,18.19,1.16,18.19-10.37V196.93c0-11.53-8.14-25.57-18.19-31.37L179.89,94.88z"/>
			<linearGradient id="SVGID_21_" gradientUnits="userSpaceOnUse" x1="74.0637" y1="-35.9595" x2="283.7318" y2="363.8385">
				<stop  offset="0.0101" style="stop-color:#9F19AB"/>
				<stop  offset="0.4293" style="stop-color:#5F27BD"/>
				<stop  offset="0.904" style="stop-color:#3D065F"/>
			</linearGradient>
			<path class="st33" d="M179.91,95.77c-9.99-5.77-18.09-1.15-18.09,10.32v260.63c0,11.47,8.1,25.44,18.09,31.21l121.81,70.33
				c9.99,5.77,18.09,1.15,18.09-10.32V197.31c0-11.47-8.1-25.44-18.09-31.21L179.91,95.77z"/>
			<linearGradient id="SVGID_22_" gradientUnits="userSpaceOnUse" x1="74.626" y1="-34.3877" x2="283.219" y2="363.3603">
				<stop  offset="0.0101" style="stop-color:#9F19AB"/>
				<stop  offset="0.4293" style="stop-color:#5F27BD"/>
				<stop  offset="0.904" style="stop-color:#3D065F"/>
			</linearGradient>
			<path class="st34" d="M179.93,96.67c-9.94-5.74-18-1.14-18,10.26v259.29c0,11.41,8.06,25.31,18,31.05l121.19,69.97
				c9.94,5.74,18,1.14,18-10.26V197.68c0-11.41-8.06-25.31-18-31.05L179.93,96.67z"/>
		</g>
		<linearGradient id="SVGID_23_" gradientUnits="userSpaceOnUse" x1="73.7519" y1="-35.8447" x2="283.0645" y2="363.2752">
			<stop  offset="0.0101" style="stop-color:#9F19AB"/>
			<stop  offset="0.4293" style="stop-color:#5F27BD"/>
			<stop  offset="0.904" style="stop-color:#3D065F"/>
		</linearGradient>
		<path class="st35" d="M179.42,95.66c-9.98-5.76-18.06-1.15-18.06,10.3v260.19c0,11.45,8.09,25.4,18.06,31.16l121.61,70.21
			c9.98,5.76,18.06,1.15,18.06-10.3V197.03c0-11.45-8.09-25.4-18.06-31.16L179.42,95.66z"/>
		<radialGradient id="SVGID_24_" cx="240.225" cy="145.9783" r="146.4221" gradientUnits="userSpaceOnUse">
			<stop  offset="0" style="stop-color:#711F56"/>
			<stop  offset="0.1614" style="stop-color:#6C1E52"/>
			<stop  offset="0.3626" style="stop-color:#5C1946"/>
			<stop  offset="0.5849" style="stop-color:#431233"/>
			<stop  offset="0.8208" style="stop-color:#200918"/>
			<stop  offset="1" style="stop-color:#000000"/>
		</radialGradient>
		<path class="st36" d="M301.03,165.87L179.42,95.66c-9.98-5.76-18.06-1.15-18.06,10.3v1.75c0-11.45,8.09-16.06,18.06-10.3
			l121.61,70.21c9.98,5.76,18.06,19.71,18.06,31.16v-1.75C319.09,185.58,311,171.63,301.03,165.87z"/>
		<path class="st37" d="M291.35,110.79l15.79,9.12c0.6,0.35,1.09,0.07,1.09-0.62c0-0.69-0.49-1.53-1.09-1.88l-15.79-9.12
			c-0.6-0.35-1.09-0.07-1.09,0.62C290.26,109.6,290.75,110.44,291.35,110.79z M307.14,123.03l-15.79-9.12
			c-0.6-0.35-1.09-0.07-1.09,0.62c0,0.69,0.49,1.53,1.09,1.88l15.79,9.12c0.6,0.35,1.09,0.07,1.09-0.62
			C308.23,124.22,307.74,123.37,307.14,123.03z M307.14,128.65l-15.79-9.12c-0.6-0.35-1.09-0.07-1.09,0.62
			c0,0.69,0.49,1.53,1.09,1.88l15.79,9.12c0.6,0.35,1.09,0.07,1.09-0.62C308.23,129.84,307.74,129,307.14,128.65z"/>
		<g>
			<path class="st37" d="M194.59,56.25c0,1.67-1.18,2.34-2.63,1.5c-1.45-0.84-2.63-2.87-2.63-4.54c0-1.67,1.18-2.34,2.63-1.5
				C193.42,52.55,194.59,54.58,194.59,56.25z"/>
			<path class="st37" d="M186.66,51.64c0,1.67-1.18,2.34-2.63,1.5c-1.45-0.84-2.63-2.87-2.63-4.54c0-1.67,1.18-2.34,2.63-1.5
				C185.49,47.94,186.66,49.97,186.66,51.64z"/>
			<path class="st37" d="M178.73,47.03c0,1.67-1.18,2.34-2.63,1.5c-1.45-0.84-2.63-2.87-2.63-4.54c0-1.67,1.18-2.34,2.63-1.5
				C177.55,43.33,178.73,45.36,178.73,47.03z"/>
		</g>
		<path class="st37" d="M240.36,78.16c-1.79-1.03-3.24-0.21-3.24,1.85c0,2.05,1.45,4.55,3.24,5.58c1.79,1.03,3.24,0.21,3.24-1.85
			C243.6,81.69,242.15,79.19,240.36,78.16z M217.52,91.18c-1.79-1.03-3.24-0.21-3.24,1.85c0,2.05,1.45,4.55,3.24,5.58
			c1.79,1.03,3.24,0.21,3.24-1.85C220.76,94.71,219.31,92.21,217.52,91.18z M263.2,117.55c-1.79-1.03-3.24-0.21-3.24,1.85
			s1.45,4.55,3.24,5.58c1.79,1.03,3.24,0.21,3.24-1.85C266.44,121.08,264.99,118.58,263.2,117.55z M263.51,115.04
			c3.23-0.27,4.33-4.37,2.47-9.14c-1.86-4.78-5.99-8.42-9.21-8.15c-3.23,0.27-4.33,4.37-2.47,9.14
			C256.16,111.67,260.29,115.32,263.51,115.04z M254.58,95.45c0.89-1.26,0.36-3.84-1.18-5.76c-1.55-1.92-3.53-2.45-4.42-1.19
			c-0.89,1.26-0.36,3.84,1.18,5.76C251.71,96.18,253.69,96.71,254.58,95.45z M227.32,74.64c-1.55,0.13-2.08,2.1-1.18,4.39
			c0.89,2.29,2.87,4.04,4.42,3.91c1.55-0.13,2.08-2.1,1.18-4.39C230.85,76.26,228.87,74.5,227.32,74.64z M217.78,80.08
			c-0.89,1.26-0.36,3.84,1.18,5.76c1.55,1.92,3.53,2.45,4.42,1.19c0.89-1.26,0.36-3.84-1.18-5.76
			C220.65,79.35,218.67,78.82,217.78,80.08z"/>
		<g>
			<linearGradient id="SVGID_25_" gradientUnits="userSpaceOnUse" x1="269.4403" y1="240.7699" x2="297.5162" y2="226.6696">
				<stop  offset="0.0101" style="stop-color:#9F19AB"/>
				<stop  offset="0.4293" style="stop-color:#5F27BD"/>
				<stop  offset="0.904" style="stop-color:#3D065F"/>
			</linearGradient>
			<path class="st38" d="M305.89,236.26c0,8.1-5.72,11.36-12.78,7.29c-7.06-4.08-12.78-13.95-12.78-22.05
				c0-8.1,5.72-11.36,12.78-7.29C300.17,218.29,305.89,228.16,305.89,236.26z"/>
			<linearGradient id="SVGID_26_" gradientUnits="userSpaceOnUse" x1="-135.6623" y1="206.2541" x2="287.72" y2="206.2541">
				<stop  offset="0.0101" style="stop-color:#9F19AB"/>
				<stop  offset="0.4293" style="stop-color:#5F27BD"/>
				<stop  offset="0.904" style="stop-color:#3D065F"/>
			</linearGradient>
			<path class="st39" d="M206.42,151.4c-1.1-2.82-3.61-4.87-5.39-4.42c-15.24,3.81-25.72,17.46-27.76,38.86
				c-0.23,2.39,1.47,5.58,3.68,6.85l8.35,4.82c1.86,1.07,3.45,0.42,3.67-1.57c1.71-15.68,9.42-25.79,20.58-28.88
				c1.52-0.42,1.99-2.53,1.04-4.97L206.42,151.4z M269.87,179.77c-8.87-10.04-18.82-18.55-29.33-24.62
				c-10.51-6.07-20.46-9.04-29.33-9.25c-1.95-0.05-2.71,2.25-1.63,5.03l4.16,10.68c0.95,2.45,3.01,4.41,4.74,4.48
				c6.69,0.25,14.17,2.53,22.05,7.09c7.89,4.55,15.36,10.9,22.05,18.38c1.73,1.93,3.79,2.34,4.74,1l4.17-5.87
				C272.58,185.15,271.82,181.98,269.87,179.77z M280.03,192.59c-1.78-2.51-4.29-3.35-5.39-1.8l-4.17,5.88
				c-0.95,1.34-0.48,3.99,1.04,6.17c11.16,15.98,18.86,34.99,20.58,52.64c0.22,2.24,1.81,4.74,3.67,5.81l8.35,4.82
				c2.21,1.28,3.91,0.05,3.68-2.6C305.75,239.74,295.27,213.99,280.03,192.59z"/>
			<g>
				
					<linearGradient id="SVGID_27_" gradientUnits="userSpaceOnUse" x1="-438.9276" y1="2256.3767" x2="-301.4831" y2="2256.3767" gradientTransform="matrix(0.866 0.5 0 1.1547 556.9491 -2221.3081)">
					<stop  offset="0.0505" style="stop-color:#DC3DAA"/>
					<stop  offset="0.1179" style="stop-color:#DE46A6"/>
					<stop  offset="0.2272" style="stop-color:#E55E9D"/>
					<stop  offset="0.3641" style="stop-color:#F0858D"/>
					<stop  offset="0.4141" style="stop-color:#F49587"/>
					<stop  offset="0.5573" style="stop-color:#FABF98"/>
					<stop  offset="0.697" style="stop-color:#FFE4A7"/>
					<stop  offset="0.7303" style="stop-color:#FAE4A9"/>
					<stop  offset="0.7721" style="stop-color:#EAE6B0"/>
					<stop  offset="0.8184" style="stop-color:#D0E8BA"/>
					<stop  offset="0.8681" style="stop-color:#ADEBC9"/>
					<stop  offset="0.9204" style="stop-color:#7FEFDC"/>
					<stop  offset="0.9741" style="stop-color:#47F4F3"/>
					<stop  offset="1" style="stop-color:#2AF6FF"/>
				</linearGradient>
				<path class="st40" d="M199.29,148.22c-15.24,3.81-25.72,17.46-27.76,38.86c-0.23,2.39,1.47,5.58,3.68,6.85l8.35,4.82
					c1.86,1.07,3.45,0.42,3.67-1.57c1.71-15.68,9.42-25.79,20.58-28.88c1.52-0.42,1.99-2.53,1.04-4.97l-4.17-10.69
					C203.58,149.83,201.07,147.78,199.29,148.22z"/>
				
					<linearGradient id="SVGID_28_" gradientUnits="userSpaceOnUse" x1="-435.8755" y1="2228.6614" x2="-299.2768" y2="2228.6614" gradientTransform="matrix(0.866 0.5 0 1.1547 556.9491 -2221.3081)">
					<stop  offset="0.0505" style="stop-color:#DC3DAA"/>
					<stop  offset="0.1179" style="stop-color:#DE46A6"/>
					<stop  offset="0.2272" style="stop-color:#E55E9D"/>
					<stop  offset="0.3641" style="stop-color:#F0858D"/>
					<stop  offset="0.4141" style="stop-color:#F49587"/>
					<stop  offset="0.5573" style="stop-color:#FABF98"/>
					<stop  offset="0.697" style="stop-color:#FFE4A7"/>
					<stop  offset="0.7303" style="stop-color:#FAE4A9"/>
					<stop  offset="0.7721" style="stop-color:#EAE6B0"/>
					<stop  offset="0.8184" style="stop-color:#D0E8BA"/>
					<stop  offset="0.8681" style="stop-color:#ADEBC9"/>
					<stop  offset="0.9204" style="stop-color:#7FEFDC"/>
					<stop  offset="0.9741" style="stop-color:#47F4F3"/>
					<stop  offset="1" style="stop-color:#2AF6FF"/>
				</linearGradient>
				<path class="st41" d="M269.75,187.93c1.08-1.53,0.32-4.7-1.63-6.91c-8.87-10.04-18.82-18.55-29.33-24.62
					c-10.51-6.07-20.46-9.04-29.33-9.25c-1.95-0.05-2.71,2.25-1.63,5.03l4.16,10.68c0.95,2.45,3.01,4.41,4.74,4.48
					c6.69,0.25,14.17,2.53,22.05,7.09c7.89,4.55,15.36,10.9,22.05,18.38c1.73,1.93,3.79,2.34,4.74,1L269.75,187.93z"/>
				
					<linearGradient id="SVGID_29_" gradientUnits="userSpaceOnUse" x1="-433.671" y1="2256.3752" x2="-296.2271" y2="2256.3752" gradientTransform="matrix(0.866 0.5 0 1.1547 556.9491 -2221.3081)">
					<stop  offset="0.0505" style="stop-color:#DC3DAA"/>
					<stop  offset="0.1179" style="stop-color:#DE46A6"/>
					<stop  offset="0.2272" style="stop-color:#E55E9D"/>
					<stop  offset="0.3641" style="stop-color:#F0858D"/>
					<stop  offset="0.4141" style="stop-color:#F49587"/>
					<stop  offset="0.5573" style="stop-color:#FABF98"/>
					<stop  offset="0.697" style="stop-color:#FFE4A7"/>
					<stop  offset="0.7303" style="stop-color:#FAE4A9"/>
					<stop  offset="0.7721" style="stop-color:#EAE6B0"/>
					<stop  offset="0.8184" style="stop-color:#D0E8BA"/>
					<stop  offset="0.8681" style="stop-color:#ADEBC9"/>
					<stop  offset="0.9204" style="stop-color:#7FEFDC"/>
					<stop  offset="0.9741" style="stop-color:#47F4F3"/>
					<stop  offset="1" style="stop-color:#2AF6FF"/>
				</linearGradient>
				<path class="st42" d="M272.9,192.04l-4.17,5.88c-0.95,1.34-0.48,3.99,1.04,6.17c11.16,15.98,18.86,34.99,20.58,52.64
					c0.22,2.24,1.81,4.74,3.67,5.81l8.35,4.82c2.21,1.28,3.91,0.05,3.68-2.6c-2.04-23.76-12.52-49.51-27.76-70.92
					C276.5,191.33,274,190.49,272.9,192.04z"/>
			</g>
			<g>
				<path class="st43" d="M204.68,152.65c-1.1-2.82-3.61-4.87-5.39-4.42c-7.75,1.94-14.25,6.43-19.06,13.18
					c4.72-6.19,10.95-10.34,18.31-12.18c1.78-0.45,4.29,1.6,5.39,4.42l4.17,10.69c0.57,1.45,0.62,2.78,0.25,3.71
					c1.07-0.73,1.32-2.6,0.49-4.71L204.68,152.65z"/>
				<path class="st43" d="M278.29,193.84c-1.78-2.51-4.29-3.35-5.39-1.8l-0.61,0.86c1.16-1.33,3.53-0.48,5.25,1.94
					c15.24,21.4,25.72,47.15,27.76,70.92c0.06,0.71-0.02,1.31-0.21,1.79c0.69-0.47,1.08-1.44,0.96-2.79
					C304.01,240.99,293.52,215.24,278.29,193.84z"/>
				<path class="st43" d="M186.48,198.19c-0.03,0.28-0.1,0.53-0.18,0.76c0.49-0.34,0.84-0.92,0.93-1.75
					c0.84-7.68,3.12-14.01,6.54-18.85C189.94,183.29,187.38,189.96,186.48,198.19z"/>
				<path class="st43" d="M268.12,181.02c-8.87-10.04-18.82-18.55-29.33-24.62c-10.51-6.07-20.46-9.04-29.33-9.25
					c-0.92-0.02-1.57,0.5-1.89,1.33c0.32-0.22,0.69-0.34,1.14-0.33c8.87,0.21,18.82,3.18,29.33,9.25
					c10.51,6.07,20.46,14.58,29.33,24.62c1.95,2.21,2.71,5.38,1.63,6.91l-3.57,5.04c0.05-0.06,0.11-0.1,0.15-0.16l4.17-5.87
					C270.83,186.4,270.07,183.22,268.12,181.02z"/>
			</g>
			<path class="st37" d="M303.65,237.38c0,8.1-5.72,11.36-12.78,7.29c-7.06-4.08-12.78-13.95-12.78-22.05
				c0-8.1,5.72-11.36,12.78-7.29C297.92,219.41,303.65,229.28,303.65,237.38z"/>
			
				<linearGradient id="SVGID_30_" gradientUnits="userSpaceOnUse" x1="-461.4404" y1="2187.2346" x2="-295.4005" y2="2261.2305" gradientTransform="matrix(0.866 0.5 0 1.1547 556.9491 -2221.3081)">
				<stop  offset="0.0505" style="stop-color:#DC3DAA"/>
				<stop  offset="0.1179" style="stop-color:#DE46A6"/>
				<stop  offset="0.2272" style="stop-color:#E55E9D"/>
				<stop  offset="0.3641" style="stop-color:#F0858D"/>
				<stop  offset="0.4141" style="stop-color:#F49587"/>
				<stop  offset="0.5573" style="stop-color:#FABF98"/>
				<stop  offset="0.697" style="stop-color:#FFE4A7"/>
				<stop  offset="0.7303" style="stop-color:#FAE4A9"/>
				<stop  offset="0.7721" style="stop-color:#EAE6B0"/>
				<stop  offset="0.8184" style="stop-color:#D0E8BA"/>
				<stop  offset="0.8681" style="stop-color:#ADEBC9"/>
				<stop  offset="0.9204" style="stop-color:#7FEFDC"/>
				<stop  offset="0.9741" style="stop-color:#47F4F3"/>
				<stop  offset="1" style="stop-color:#2AF6FF"/>
			</linearGradient>
			<path class="st44" d="M301.25,236c0,6.58-4.65,9.23-10.38,5.92c-5.74-3.31-10.38-11.33-10.38-17.91c0-6.58,4.65-9.23,10.38-5.92
				C296.6,221.4,301.25,229.42,301.25,236z"/>
			<linearGradient id="SVGID_31_" gradientUnits="userSpaceOnUse" x1="129.6724" y1="158.796" x2="302.3476" y2="235.7489">
				<stop  offset="0.0505" style="stop-color:#DC3DAA"/>
				<stop  offset="0.1179" style="stop-color:#DE46A6"/>
				<stop  offset="0.2272" style="stop-color:#E55E9D"/>
				<stop  offset="0.3641" style="stop-color:#F0858D"/>
				<stop  offset="0.4141" style="stop-color:#F49587"/>
				<stop  offset="0.5573" style="stop-color:#FABF98"/>
				<stop  offset="0.697" style="stop-color:#FFE4A7"/>
				<stop  offset="0.7303" style="stop-color:#FAE4A9"/>
				<stop  offset="0.7721" style="stop-color:#EAE6B0"/>
				<stop  offset="0.8184" style="stop-color:#D0E8BA"/>
				<stop  offset="0.8681" style="stop-color:#ADEBC9"/>
				<stop  offset="0.9204" style="stop-color:#7FEFDC"/>
				<stop  offset="0.9741" style="stop-color:#47F4F3"/>
				<stop  offset="1" style="stop-color:#2AF6FF"/>
			</linearGradient>
			<path class="st45" d="M292.11,241.55c-5.74-3.31-10.38-11.33-10.38-17.91c0-3.55,1.36-5.94,3.5-6.88
				c-2.86,0.47-4.75,3.06-4.75,7.26c0,6.58,4.65,14.6,10.38,17.91c2.64,1.53,5.05,1.77,6.88,0.96
				C296.12,243.15,294.19,242.75,292.11,241.55z"/>
			<path class="st37" d="M296.86,233.46c0,3.8-2.68,5.33-5.99,3.42c-3.31-1.91-5.99-6.54-5.99-10.33s2.68-5.33,5.99-3.42
				C294.17,225.04,296.86,229.67,296.86,233.46z"/>
			<linearGradient id="SVGID_32_" gradientUnits="userSpaceOnUse" x1="252.6596" y1="251.2329" x2="272.6245" y2="236.5087">
				<stop  offset="0.0101" style="stop-color:#9F19AB"/>
				<stop  offset="0.4293" style="stop-color:#5F27BD"/>
				<stop  offset="0.904" style="stop-color:#3D065F"/>
			</linearGradient>
			<polygon class="st46" points="263.35,228.05 279.32,233.2 275.77,249.49 			"/>
			<polygon class="st47" points="261.97,228.55 277.95,233.7 274.4,249.98 			"/>
			<polygon class="st43" points="261.97,228.55 262.83,230.03 277.33,234.7 274.11,249.48 274.4,249.98 277.95,233.7 			"/>
		</g>
		<g>
			<path class="st37" d="M219.95,216.41l-8.96-5.18v-4.63l13.33,7.69v4.45l-6.95,23.98l-4.52-2.61L219.95,216.41z"/>
			<path class="st37" d="M228.75,247.65c-1.13-2.06-1.7-4.4-1.7-7.03v-0.6l4.2,2.42v0.93c0,2.13,0.77,3.64,2.3,4.53
				c0.83,0.48,1.45,0.55,1.86,0.19c0.4-0.35,0.61-1.27,0.61-2.76v-6.21l-0.08-0.05c-0.78,1.43-2.13,1.6-4.04,0.5
				c-1.62-0.93-2.84-2.27-3.67-4.02c-0.83-1.75-1.25-3.83-1.25-6.24v-5.79c0-2.6,0.58-4.27,1.74-5.02c1.16-0.75,2.83-0.5,5.01,0.76
				c2.18,1.26,3.85,2.93,5.01,5.02c1.16,2.09,1.74,4.43,1.74,7.03v16.77c0,5.62-2.26,7.13-6.78,4.52
				C231.53,251.36,229.88,249.71,228.75,247.65z M236.02,234.13v-5.75c0-2.1-0.77-3.59-2.3-4.48c-1.53-0.89-2.3-0.28-2.3,1.82v5.75
				c0,2.13,0.77,3.64,2.3,4.53C235.25,236.88,236.02,236.26,236.02,234.13z"/>
			<path class="st37" d="M244.99,257c-1.16-2.09-1.74-4.43-1.74-7.03v-17.05c0-2.59,0.58-4.27,1.74-5.02
				c1.16-0.75,2.83-0.5,5.01,0.76c2.18,1.26,3.85,2.93,5.01,5.02c1.16,2.09,1.74,4.43,1.74,7.03v17.05c0,2.59-0.58,4.27-1.74,5.02
				c-1.16,0.75-2.83,0.5-5.01-0.76C247.81,260.77,246.14,259.09,244.99,257z M252.29,255.52v-17.7c0-2.13-0.77-3.64-2.3-4.53
				c-1.53-0.89-2.3-0.26-2.3,1.87v17.7c0,2.13,0.77,3.64,2.3,4.53C251.53,258.28,252.29,257.65,252.29,255.52z"/>
		</g>
		<g class="st22">
			<linearGradient id="SVGID_33_" gradientUnits="userSpaceOnUse" x1="112.0948" y1="96.3619" x2="275.6022" y2="408.14">
				<stop  offset="0.0101" style="stop-color:#9F19AB"/>
				<stop  offset="0.4293" style="stop-color:#5F27BD"/>
				<stop  offset="0.904" style="stop-color:#3D065F"/>
			</linearGradient>
			<path class="st48" d="M179.72,209.09c-10.51-6.07-19.02-1.21-19.02,10.84v154.35c0,12.05,8.52,26.74,19.02,32.81l128.06,73.93
				c10.51,6.07,10.74-3.42,10.74-15.47V311.21c0-12.05-0.23-22.12-10.74-28.18L179.72,209.09z"/>
			<linearGradient id="SVGID_34_" gradientUnits="userSpaceOnUse" x1="112.6856" y1="98.5659" x2="275.2149" y2="408.4788">
				<stop  offset="0.0101" style="stop-color:#9F19AB"/>
				<stop  offset="0.4293" style="stop-color:#5F27BD"/>
				<stop  offset="0.904" style="stop-color:#3D065F"/>
			</linearGradient>
			<path class="st49" d="M179.74,210.72c-10.45-6.04-18.93-1.2-18.93,10.79v153.01c0,12,8.47,26.61,18.93,32.65l127.43,73.57
				c10.45,6.04,11.4-3,11.4-15V312.74c0-12-0.95-22.41-11.4-28.44L179.74,210.72z"/>
			<linearGradient id="SVGID_35_" gradientUnits="userSpaceOnUse" x1="113.2784" y1="100.764" x2="274.8352" y2="408.8226">
				<stop  offset="0.0101" style="stop-color:#9F19AB"/>
				<stop  offset="0.4293" style="stop-color:#5F27BD"/>
				<stop  offset="0.904" style="stop-color:#3D065F"/>
			</linearGradient>
			<path class="st50" d="M179.76,212.35c-10.4-6.01-18.84-1.2-18.84,10.74v151.68c0,11.94,8.43,26.48,18.84,32.49l126.81,73.21
				c10.4,6.01,12.06-2.59,12.06-14.53V314.26c0-11.94-1.66-22.7-12.06-28.7L179.76,212.35z"/>
			<linearGradient id="SVGID_36_" gradientUnits="userSpaceOnUse" x1="113.8734" y1="102.9557" x2="274.4639" y2="409.1717">
				<stop  offset="0.0101" style="stop-color:#9F19AB"/>
				<stop  offset="0.4293" style="stop-color:#5F27BD"/>
				<stop  offset="0.904" style="stop-color:#3D065F"/>
			</linearGradient>
			<path class="st51" d="M179.78,213.97c-10.35-5.98-18.74-1.19-18.74,10.69V375c0,11.88,8.39,26.35,18.74,32.33l126.18,72.85
				c10.35,5.98,12.72-2.17,12.72-14.05V315.79c0-11.88-2.37-22.99-12.72-28.96L179.78,213.97z"/>
			<linearGradient id="SVGID_37_" gradientUnits="userSpaceOnUse" x1="114.4707" y1="105.1405" x2="274.1015" y2="409.5266">
				<stop  offset="0.0101" style="stop-color:#9F19AB"/>
				<stop  offset="0.4293" style="stop-color:#5F27BD"/>
				<stop  offset="0.904" style="stop-color:#3D065F"/>
			</linearGradient>
			<path class="st52" d="M179.8,215.6c-10.3-5.95-18.65-1.19-18.65,10.63v149c0,11.82,8.35,26.22,18.65,32.17l125.56,72.49
				c10.3,5.95,13.38-1.76,13.38-13.58v-149c0-11.82-3.08-23.28-13.38-29.22L179.8,215.6z"/>
			<linearGradient id="SVGID_38_" gradientUnits="userSpaceOnUse" x1="115.0705" y1="107.3179" x2="273.7488" y2="409.8878">
				<stop  offset="0.0101" style="stop-color:#9F19AB"/>
				<stop  offset="0.4293" style="stop-color:#5F27BD"/>
				<stop  offset="0.904" style="stop-color:#3D065F"/>
			</linearGradient>
			<path class="st53" d="M179.82,217.23c-10.25-5.92-18.56-1.18-18.56,10.58v147.67c0,11.76,8.31,26.09,18.56,32.01l124.94,72.13
				c10.25,5.92,14.04-1.34,14.04-13.1V318.84c0-11.76-3.79-23.57-14.04-29.48L179.82,217.23z"/>
			<linearGradient id="SVGID_39_" gradientUnits="userSpaceOnUse" x1="115.6729" y1="109.4873" x2="273.4065" y2="410.2557">
				<stop  offset="0.0101" style="stop-color:#9F19AB"/>
				<stop  offset="0.4293" style="stop-color:#5F27BD"/>
				<stop  offset="0.904" style="stop-color:#3D065F"/>
			</linearGradient>
			<path class="st54" d="M179.84,218.85c-10.2-5.89-18.46-1.17-18.46,10.53v146.33c0,11.7,8.27,25.96,18.46,31.85l124.31,71.77
				c10.2,5.89,14.7-0.93,14.7-12.63V320.37c0-11.7-4.5-23.86-14.7-29.74L179.84,218.85z"/>
			<linearGradient id="SVGID_40_" gradientUnits="userSpaceOnUse" x1="116.278" y1="111.6482" x2="273.0751" y2="410.6309">
				<stop  offset="0.0101" style="stop-color:#9F19AB"/>
				<stop  offset="0.4293" style="stop-color:#5F27BD"/>
				<stop  offset="0.904" style="stop-color:#3D065F"/>
			</linearGradient>
			<path class="st55" d="M179.85,220.48c-10.15-5.86-18.37-1.17-18.37,10.47v144.99c0,11.64,8.23,25.83,18.37,31.69l123.69,71.41
				c10.15,5.86,15.36-0.51,15.36-12.16V321.89c0-11.64-5.21-24.15-15.36-30.01L179.85,220.48z"/>
			<linearGradient id="SVGID_41_" gradientUnits="userSpaceOnUse" x1="116.886" y1="113.8001" x2="272.7553" y2="411.0138">
				<stop  offset="0.0101" style="stop-color:#9F19AB"/>
				<stop  offset="0.4293" style="stop-color:#5F27BD"/>
				<stop  offset="0.904" style="stop-color:#3D065F"/>
			</linearGradient>
			<path class="st56" d="M179.87,222.1c-10.1-5.83-18.28-1.16-18.28,10.42v143.66c0,11.58,8.18,25.7,18.28,31.53l123.06,71.05
				c10.1,5.83,16.02-0.1,16.02-11.68V323.42c0-11.58-5.93-24.44-16.02-30.27L179.87,222.1z"/>
			<linearGradient id="SVGID_42_" gradientUnits="userSpaceOnUse" x1="117.4968" y1="115.9426" x2="272.4477" y2="411.4049">
				<stop  offset="0.0101" style="stop-color:#9F19AB"/>
				<stop  offset="0.4293" style="stop-color:#5F27BD"/>
				<stop  offset="0.904" style="stop-color:#3D065F"/>
			</linearGradient>
			<path class="st57" d="M179.89,223.73c-10.04-5.8-18.19-1.16-18.19,10.37v142.32c0,11.53,8.14,25.57,18.19,31.37l122.44,70.69
				c10.04,5.8,16.68,0.32,16.68-11.21V324.95c0-11.53-6.64-24.73-16.68-30.53L179.89,223.73z"/>
			<linearGradient id="SVGID_43_" gradientUnits="userSpaceOnUse" x1="118.1105" y1="118.0754" x2="272.1525" y2="411.8047">
				<stop  offset="0.0101" style="stop-color:#9F19AB"/>
				<stop  offset="0.4293" style="stop-color:#5F27BD"/>
				<stop  offset="0.904" style="stop-color:#3D065F"/>
			</linearGradient>
			<path class="st58" d="M179.91,225.36c-9.99-5.77-18.09-1.15-18.09,10.32v140.98c0,11.47,8.1,25.44,18.09,31.21l121.81,70.33
				c9.99,5.77,17.34,0.73,17.34-10.74V326.47c0-11.47-7.35-25.02-17.34-30.79L179.91,225.36z"/>
			<linearGradient id="SVGID_44_" gradientUnits="userSpaceOnUse" x1="118.727" y1="120.1981" x2="271.8702" y2="412.2137">
				<stop  offset="0.0101" style="stop-color:#9F19AB"/>
				<stop  offset="0.4293" style="stop-color:#5F27BD"/>
				<stop  offset="0.904" style="stop-color:#3D065F"/>
			</linearGradient>
			<path class="st59" d="M179.93,226.98c-9.94-5.74-18-1.14-18,10.26v139.65c0,11.41,8.06,25.31,18,31.05l121.19,69.97
				c9.94,5.74,18,1.14,18-10.26V328c0-11.41-8.06-25.31-18-31.05L179.93,226.98z"/>
		</g>
		<g>
			<linearGradient id="SVGID_45_" gradientUnits="userSpaceOnUse" x1="174.8078" y1="229.1046" x2="411.4011" y2="680.2438">
				<stop  offset="0.0101" style="stop-color:#9F19AB"/>
				<stop  offset="0.4293" style="stop-color:#5F27BD"/>
				<stop  offset="0.904" style="stop-color:#3D065F"/>
			</linearGradient>
			<path class="st60" d="M179.42,228.69c-9.98-5.76-18.06-1.15-18.06,10.3v138.64c0,11.45,8.09,25.4,18.06,31.16l121.61,70.21
				c9.98,5.76,18.06,1.15,18.06-10.3V330.06c0-11.45-8.09-25.4-18.06-31.16L179.42,228.69z"/>
			<radialGradient id="SVGID_46_" cx="240.225" cy="279.0078" r="146.4221" gradientUnits="userSpaceOnUse">
				<stop  offset="0" style="stop-color:#711F56"/>
				<stop  offset="0.1614" style="stop-color:#6C1E52"/>
				<stop  offset="0.3626" style="stop-color:#5C1946"/>
				<stop  offset="0.5849" style="stop-color:#431233"/>
				<stop  offset="0.8208" style="stop-color:#200918"/>
				<stop  offset="1" style="stop-color:#000000"/>
			</radialGradient>
			<path class="st61" d="M301.03,298.9l-121.61-70.21c-9.98-5.76-18.06-1.15-18.06,10.3v1.75c0-11.45,8.09-16.06,18.06-10.3
				l121.61,70.21c9.98,5.76,18.06,19.71,18.06,31.16v-1.75C319.09,318.61,311,304.66,301.03,298.9z"/>
		</g>
		<linearGradient id="SVGID_47_" gradientUnits="userSpaceOnUse" x1="236.5862" y1="380.1373" x2="284.3069" y2="297.4826">
			<stop  offset="0" style="stop-color:#000000"/>
			<stop  offset="1" style="stop-color:#BE3BFF"/>
		</linearGradient>
		<path class="st62" d="M163.77,322.7c0,0,10.36-48.99,37.55-33.29c27.19,15.7,23.31,31.28,47.91,45.49
			c27.19,15.7,18.13-31.14,68.62-1.98v97.72l-155.19-83.51L163.77,322.7z"/>
		<g>
			<path class="st63" d="M283.11,320.85c-0.14,0-0.28-0.03-0.4-0.11l-117.36-67.89c-0.38-0.22-0.52-0.71-0.29-1.1
				c0.22-0.38,0.72-0.52,1.1-0.29l117.36,67.89c0.38,0.22,0.52,0.71,0.29,1.1C283.65,320.71,283.38,320.85,283.11,320.85z"/>
		</g>
		<g>
			<radialGradient id="SVGID_48_" cx="290.0664" cy="322.9606" r="141.907" gradientUnits="userSpaceOnUse">
				<stop  offset="0" style="stop-color:#FF63CE"/>
				<stop  offset="1" style="stop-color:#9F19AB"/>
			</radialGradient>
			<path class="st64" d="M259.39,339.34c-2.95,0-6.43-0.99-10.73-3.47c-12.2-7.05-17.65-14.61-22.92-21.93
				c-5.54-7.69-11.26-15.64-24.99-23.56c-5.62-3.24-10.89-3.81-15.66-1.68c-14.18,6.32-20.17,33.95-20.23,34.23
				c-0.13,0.61-0.72,1-1.33,0.87c-0.61-0.13-0.99-0.72-0.87-1.33c0.25-1.18,6.3-29.04,21.51-35.82c5.47-2.44,11.43-1.84,17.7,1.78
				c14.14,8.17,20.01,16.31,25.69,24.19c5.37,7.45,10.44,14.49,22.22,21.3c10.79,6.23,15.29,2.15,20.99-3.03
				c7.93-7.21,17.8-16.18,47.64,1.05c0.54,0.31,0.72,1,0.41,1.53c-0.31,0.54-1,0.72-1.53,0.41c-28.42-16.41-37.23-8.4-45-1.33
				C268.49,336.01,264.82,339.34,259.39,339.34z"/>
		</g>
		<g>
			<defs>
				<filter id="Adobe_OpacityMaskFilter" filterUnits="userSpaceOnUse" x="288.31" y="324.01" width="4.71" height="91.83">
					<feFlood  style="flood-color:white;flood-opacity:1" result="back"/>
					<feBlend  in="SourceGraphic" in2="back" mode="normal"/>
				</filter>
			</defs>
			<mask maskUnits="userSpaceOnUse" x="288.31" y="324.01" width="4.71" height="91.83" id="SVGID_49_">
				<g class="st65">
					<defs>
						<filter id="Adobe_OpacityMaskFilter_1_" filterUnits="userSpaceOnUse" x="288.31" y="324.01" width="4.71" height="91.83">
							<feFlood  style="flood-color:white;flood-opacity:1" result="back"/>
							<feBlend  in="SourceGraphic" in2="back" mode="normal"/>
						</filter>
					</defs>
					<mask maskUnits="userSpaceOnUse" x="288.31" y="324.01" width="4.71" height="91.83" id="SVGID_49_">
						<g class="st66">
						</g>
					</mask>
					
						<linearGradient id="SVGID_50_" gradientUnits="userSpaceOnUse" x1="7287.4883" y1="404.9984" x2="7242.3877" y2="319.8792" gradientTransform="matrix(-1 0 0 1 7559.6318 0)">
						<stop  offset="0" style="stop-color:#000000"/>
						<stop  offset="1" style="stop-color:#FFFFFF"/>
					</linearGradient>
					<polygon class="st67" points="288.31,412.41 293.02,415.84 293.02,325.89 290.2,324.01 288.31,324.24 					"/>
				</g>
			</mask>
			
				<linearGradient id="SVGID_51_" gradientUnits="userSpaceOnUse" x1="7287.4883" y1="404.9984" x2="7242.3877" y2="319.8792" gradientTransform="matrix(-1 0 0 1 7559.6318 0)">
				<stop  offset="0" style="stop-color:#5513AB"/>
				<stop  offset="1" style="stop-color:#BE3BFF"/>
			</linearGradient>
			<polygon class="st68" points="288.31,412.41 293.02,415.84 293.02,325.89 290.2,324.01 288.31,324.24 			"/>
			<g>
				
					<linearGradient id="SVGID_52_" gradientUnits="userSpaceOnUse" x1="7462.4546" y1="13549.3467" x2="7318.917" y2="13628.8574" gradientTransform="matrix(-0.595 -1.0134 -1.0082 0.592 18387.1621 -238.5522)">
					<stop  offset="0" style="stop-color:#271273"/>
					<stop  offset="0.1353" style="stop-color:#1F0E5C"/>
					<stop  offset="0.3976" style="stop-color:#120834"/>
					<stop  offset="0.6379" style="stop-color:#080418"/>
					<stop  offset="0.8466" style="stop-color:#020106"/>
					<stop  offset="1" style="stop-color:#000000"/>
				</linearGradient>
				<path class="st69" d="M292.99,424.22l-4.03-0.03l-0.17-37.41l-0.21-59.62c0-1.62,0.9-2.93,2.02-2.93l0,0
					c1.11,0.01,2.01,1.32,2.02,2.94l0.21,59.63L292.99,424.22z"/>
				
					<linearGradient id="SVGID_53_" gradientUnits="userSpaceOnUse" x1="7949.7993" y1="14124.4482" x2="7850.0806" y2="14181.125" gradientTransform="matrix(-0.5063 -0.8623 -0.8623 0.5063 16494.1113 -10.7752)">
					<stop  offset="0" style="stop-color:#82288F"/>
					<stop  offset="0.308" style="stop-color:#511959"/>
					<stop  offset="0.623" style="stop-color:#250C29"/>
					<stop  offset="0.864" style="stop-color:#0A030B"/>
					<stop  offset="1" style="stop-color:#000000"/>
				</linearGradient>
				<path class="st70" d="M291.49,405.12l0.13-28.64l0-0.99l0.13-46.55c0-0.41-0.12-1.69-0.33-1.92c-0.14-0.38-0.44-0.65-0.79-0.65
					l0,0c-0.36,0-0.67,0.28-0.82,0.68c-0.2,0.23-0.31,1.39-0.31,1.78l0.13,46.7l0.01,1.17l0.12,26.58L291.49,405.12z"/>
				
					<linearGradient id="SVGID_54_" gradientUnits="userSpaceOnUse" x1="7912.0996" y1="14145.46" x2="7850.4453" y2="14181.4033" gradientTransform="matrix(-0.5063 -0.8623 -0.8623 0.5063 16494.1113 -10.7752)">
					<stop  offset="0" style="stop-color:#DC3DAA"/>
					<stop  offset="0.2469" style="stop-color:#A32D7E"/>
					<stop  offset="0.7688" style="stop-color:#2F0D24"/>
					<stop  offset="1" style="stop-color:#000000"/>
				</linearGradient>
				<path class="st71" d="M290.42,400.9l0.36-26.3l0.36-45.23c0-0.44-0.25-0.8-0.55-0.8l0,0c-0.3,0-0.55,0.36-0.55,0.8l0.19,45.23
					L290.42,400.9z"/>
			</g>
			<defs>
				<filter id="Adobe_OpacityMaskFilter_2_" filterUnits="userSpaceOnUse" x="288.41" y="295.95" width="4.45" height="29.91">
					<feFlood  style="flood-color:white;flood-opacity:1" result="back"/>
					<feBlend  in="SourceGraphic" in2="back" mode="normal"/>
				</filter>
			</defs>
			<mask maskUnits="userSpaceOnUse" x="288.41" y="295.95" width="4.45" height="29.91" id="SVGID_55_">
				<g class="st72">
					<defs>
						<filter id="Adobe_OpacityMaskFilter_3_" filterUnits="userSpaceOnUse" x="288.41" y="295.95" width="4.45" height="29.91">
							<feFlood  style="flood-color:white;flood-opacity:1" result="back"/>
							<feBlend  in="SourceGraphic" in2="back" mode="normal"/>
						</filter>
					</defs>
					<mask maskUnits="userSpaceOnUse" x="288.41" y="295.95" width="4.45" height="29.91" id="SVGID_55_">
						<g class="st73">
						</g>
					</mask>
					
						<linearGradient id="SVGID_56_" gradientUnits="userSpaceOnUse" x1="-3768.0613" y1="2793.3652" x2="-3786.0901" y2="2759.3391" gradientTransform="matrix(0.8516 0.0125 -0.0125 -0.8372 3540.5344 2685.0483)">
						<stop  offset="0" style="stop-color:#000000"/>
						<stop  offset="1" style="stop-color:#FFFFFF"/>
					</linearGradient>
					<polygon class="st74" points="292.44,297.13 288.41,295.95 288.85,325.22 291.26,325.86 292.87,325.81 					"/>
				</g>
			</mask>
			
				<linearGradient id="SVGID_57_" gradientUnits="userSpaceOnUse" x1="-3768.0613" y1="2793.3652" x2="-3786.0901" y2="2759.3391" gradientTransform="matrix(0.8516 0.0125 -0.0125 -0.8372 3540.5344 2685.0483)">
				<stop  offset="0" style="stop-color:#5513AB"/>
				<stop  offset="1" style="stop-color:#BE3BFF"/>
			</linearGradient>
			<polygon class="st75" points="292.44,297.13 288.41,295.95 288.85,325.22 291.26,325.86 292.87,325.81 			"/>
			<g>
				
					<linearGradient id="SVGID_58_" gradientUnits="userSpaceOnUse" x1="800.6382" y1="6519.897" x2="755.429" y2="6544.9404" gradientTransform="matrix(0.5063 0.8623 0.8623 -0.5063 -5735.8506 2964.1328)">
					<stop  offset="0" style="stop-color:#271273"/>
					<stop  offset="0.1353" style="stop-color:#1F0E5C"/>
					<stop  offset="0.3976" style="stop-color:#120834"/>
					<stop  offset="0.6379" style="stop-color:#080418"/>
					<stop  offset="0.8466" style="stop-color:#020106"/>
					<stop  offset="1" style="stop-color:#000000"/>
				</linearGradient>
				<path class="st76" d="M288.95,298.78l3.1,0l0.08,10.03l0.07,15.98c0,0.43-0.7,0.79-1.55,0.79l0,0c-0.85,0-1.55-0.35-1.55-0.79
					l-0.07-15.99L288.95,298.78z"/>
				
					<linearGradient id="SVGID_59_" gradientUnits="userSpaceOnUse" x1="786.7524" y1="6527.2554" x2="755.3707" y2="6545.0918" gradientTransform="matrix(0.5063 0.8623 0.8623 -0.5063 -5735.8506 2964.1328)">
					<stop  offset="0" style="stop-color:#82288F"/>
					<stop  offset="0.308" style="stop-color:#511959"/>
					<stop  offset="0.623" style="stop-color:#250C29"/>
					<stop  offset="0.864" style="stop-color:#0A030B"/>
					<stop  offset="1" style="stop-color:#000000"/>
				</linearGradient>
				<path class="st77" d="M289.92,300.11l-0.12,9.01l0,0.31l-0.12,14.65c0,0.13,0.11,0.53,0.3,0.6c0.13,0.12,0.4,0.2,0.71,0.2l0,0
					c0.32,0,0.6-0.09,0.74-0.21c0.18-0.07,0.28-0.44,0.28-0.56l-0.11-14.69l-0.01-0.37l-0.11-8.36L289.92,300.11z"/>
				
					<linearGradient id="SVGID_60_" gradientUnits="userSpaceOnUse" x1="774.9368" y1="6533.9526" x2="755.54" y2="6545.2603" gradientTransform="matrix(0.5063 0.8623 0.8623 -0.5063 -5735.8506 2964.1328)">
					<stop  offset="0" style="stop-color:#DC3DAA"/>
					<stop  offset="0.2469" style="stop-color:#A32D7E"/>
					<stop  offset="0.7688" style="stop-color:#2F0D24"/>
					<stop  offset="1" style="stop-color:#000000"/>
				</linearGradient>
				<path class="st78" d="M290.88,301.43l-0.32,8.27l-0.33,14.23c0,0.14,0.22,0.25,0.49,0.25l0,0c0.27,0,0.5-0.11,0.5-0.25
					l-0.17-14.23L290.88,301.43z"/>
			</g>
			<g>
				
					<linearGradient id="SVGID_61_" gradientUnits="userSpaceOnUse" x1="7255.4136" y1="306.3874" x2="7273.0459" y2="327.6586" gradientTransform="matrix(-1 0 0 1 7559.6318 0)">
					<stop  offset="0.0354" style="stop-color:#9F19AB"/>
					<stop  offset="0.2438" style="stop-color:#AE25B1"/>
					<stop  offset="0.6455" style="stop-color:#D744BF"/>
					<stop  offset="1" style="stop-color:#FF63CE"/>
				</linearGradient>
				<path class="st79" d="M285.6,320.88c0,2.83,2,6.28,4.46,7.7c2.47,1.42,4.46,0.28,4.46-2.55c0-2.83-2-6.28-4.46-7.7
					C287.6,316.91,285.6,318.05,285.6,320.88z"/>
				<path class="st80" d="M292.07,330L292.07,330c-0.77,0-1.58-0.24-2.41-0.72c-2.73-1.57-4.87-5.26-4.87-8.39
					c0-2.37,1.31-3.96,3.26-3.96c0.77,0,1.58,0.24,2.4,0.72c2.73,1.57,4.87,5.26,4.87,8.39c0,1.15-0.3,2.13-0.86,2.83
					C293.89,329.6,293.04,330,292.07,330z M288.06,318.53c-1.54,0-1.66,1.8-1.66,2.36c0,2.53,1.86,5.73,4.06,7
					c0.57,0.33,1.13,0.51,1.6,0.51c0,0,0,0,0,0c0.48,0,0.87-0.18,1.15-0.53c0.33-0.41,0.51-1.04,0.51-1.83c0-2.53-1.86-5.73-4.06-7
					C289.09,318.7,288.54,318.53,288.06,318.53z"/>
			</g>
		</g>
		
			<linearGradient id="SVGID_62_" gradientUnits="userSpaceOnUse" x1="-183.2394" y1="2399.0295" x2="-203.8286" y2="2379.002" gradientTransform="matrix(0.866 0.5 0 1.1547 441.8141 -2169.9258)">
			<stop  offset="0" style="stop-color:#9F79C8"/>
			<stop  offset="0.1367" style="stop-color:#A580CB"/>
			<stop  offset="0.3288" style="stop-color:#B492D3"/>
			<stop  offset="0.5529" style="stop-color:#CDB0E1"/>
			<stop  offset="0.5808" style="stop-color:#D1B4E3"/>
			<stop  offset="0.7644" style="stop-color:#DBC4E9"/>
			<stop  offset="1" style="stop-color:#EBDEF3"/>
		</linearGradient>
		<path class="st81" d="M239.57,421.85c0,2.5-1.77,3.51-3.95,2.25c-2.18-1.26-3.95-4.31-3.95-6.81c0-2.5,1.77-3.51,3.95-2.25
			C237.8,416.3,239.57,419.35,239.57,421.85z"/>
		<linearGradient id="SVGID_63_" gradientUnits="userSpaceOnUse" x1="247.6597" y1="427.6342" x2="233.4346" y2="400.8685">
			<stop  offset="0" style="stop-color:#9F79C8"/>
			<stop  offset="0.1367" style="stop-color:#A580CB"/>
			<stop  offset="0.3288" style="stop-color:#B492D3"/>
			<stop  offset="0.5529" style="stop-color:#CDB0E1"/>
			<stop  offset="0.5808" style="stop-color:#D1B4E3"/>
			<stop  offset="0.7644" style="stop-color:#DBC4E9"/>
			<stop  offset="1" style="stop-color:#EBDEF3"/>
		</linearGradient>
		<path class="st82" d="M250.54,427.91c0,2.5-1.77,3.51-3.95,2.25c-2.18-1.26-3.95-4.31-3.95-6.81c0-2.5,1.77-3.51,3.95-2.25
			C248.77,422.35,250.54,425.4,250.54,427.91z"/>
		<linearGradient id="SVGID_64_" gradientUnits="userSpaceOnUse" x1="239.9191" y1="415.4562" x2="219.3301" y2="414.9571">
			<stop  offset="0" style="stop-color:#7C1DC9"/>
			<stop  offset="1" style="stop-color:#000000"/>
		</linearGradient>
		<path class="st83" d="M235.62,415.04l-17.07-9.35v8.86l17.07,9.56c2.18,1.26,3.95,0.25,3.95-2.25
			C239.57,419.35,237.8,416.3,235.62,415.04z"/>
		<g>
			<linearGradient id="SVGID_65_" gradientUnits="userSpaceOnUse" x1="222.9688" y1="479.3342" x2="258.8907" y2="408.1682">
				<stop  offset="0.0101" style="stop-color:#9F19AB"/>
				<stop  offset="0.4293" style="stop-color:#5F27BD"/>
				<stop  offset="0.904" style="stop-color:#3D065F"/>
			</linearGradient>
			<path class="st84" d="M221.83,389.19l43.24,24.97v-23.84l-43.24-24.97V389.19z M177.74,346.34v10.96c0,3.56,2.51,7.9,5.62,9.69
				l35.1,20.27V363.4l-35.1-20.27C180.26,341.34,177.74,342.78,177.74,346.34z M350.06,451.53l-34.38-59.3v27.22l-47.26-27.29v24.47
				l47.26,27.29v27.22L350.06,451.53z"/>
			<linearGradient id="SVGID_66_" gradientUnits="userSpaceOnUse" x1="171.767" y1="335.6684" x2="296.4359" y2="420.8653">
				<stop  offset="0.0505" style="stop-color:#DC3DAA"/>
				<stop  offset="0.1179" style="stop-color:#DE46A6"/>
				<stop  offset="0.2272" style="stop-color:#E55E9D"/>
				<stop  offset="0.3641" style="stop-color:#F0858D"/>
				<stop  offset="0.4141" style="stop-color:#F49587"/>
				<stop  offset="0.5573" style="stop-color:#FABF98"/>
				<stop  offset="0.697" style="stop-color:#FFE4A7"/>
				<stop  offset="0.7303" style="stop-color:#FAE4A9"/>
				<stop  offset="0.7721" style="stop-color:#EAE6B0"/>
				<stop  offset="0.8184" style="stop-color:#D0E8BA"/>
				<stop  offset="0.8681" style="stop-color:#ADEBC9"/>
				<stop  offset="0.9204" style="stop-color:#7FEFDC"/>
				<stop  offset="0.9741" style="stop-color:#47F4F3"/>
				<stop  offset="1" style="stop-color:#2AF6FF"/>
			</linearGradient>
			<path class="st85" d="M220.64,390.72l43.24,24.97v-23.84l-43.24-24.97V390.72z M176.56,347.86v10.96c0,3.56,2.51,7.9,5.62,9.69
				l35.1,20.27v-23.84l-35.1-20.27C179.07,342.87,176.56,344.3,176.56,347.86z M348.87,453.05l-34.38-59.3v27.22l-47.26-27.29v24.47
				l47.26,27.29v27.22L348.87,453.05z"/>
			<polygon class="st43" points="347.81,453.66 348.87,453.05 314.49,393.75 314.49,396.18 			"/>
			<g>
				<path class="st43" d="M177.34,345.08c0.98-0.4,2.25-0.28,3.65,0.52l35.1,20.27v22.21l1.18,0.68v-23.84l-35.1-20.27
					C180.1,343.46,178.31,343.73,177.34,345.08z"/>
				<polygon class="st43" points="314.93,421.12 267.26,393.78 267.26,395.42 313.74,422.07 				"/>
				<polygon class="st43" points="220.64,368.5 262.7,392.79 262.7,415 263.89,415.68 263.89,391.84 220.64,366.87 				"/>
			</g>
		</g>
	</g>
	<g>
		<polygon class="st86" points="131.85,72.77 131.85,54.36 141.79,69.3 131.85,72.77 		"/>
		<polygon class="st87" points="118.32,65.03 118.32,46.62 128.26,61.56 118.32,65.03 		"/>
		<polygon class="st88" points="104.79,57.29 104.79,38.88 114.73,53.82 104.79,57.29 		"/>
		<polygon class="st89" points="91.26,49.55 91.26,31.14 101.19,46.08 91.26,49.55 		"/>
		<polygon class="st90" points="77.72,41.81 77.72,23.4 87.66,38.34 77.72,41.81 		"/>
	</g>
	<g>
		<polygon class="st86" points="352.38,205.35 352.38,186.94 362.31,201.88 352.38,205.35 		"/>
		<polygon class="st87" points="338.85,197.61 338.85,179.2 348.78,194.14 338.85,197.61 		"/>
		<polygon class="st88" points="325.31,189.87 325.31,171.46 335.25,186.4 325.31,189.87 		"/>
		<polygon class="st89" points="311.78,182.13 311.78,163.72 321.72,178.66 311.78,182.13 		"/>
		<polygon class="st90" points="298.25,174.39 298.25,155.98 308.19,170.92 298.25,174.39 		"/>
	</g>
	<g>
		<polygon class="st86" points="377.39,391.86 377.39,373.45 387.33,388.39 377.39,391.86 		"/>
		<polygon class="st87" points="363.86,384.12 363.86,365.71 373.8,380.65 363.86,384.12 		"/>
		<polygon class="st88" points="350.33,376.38 350.33,357.97 360.27,372.91 350.33,376.38 		"/>
		<polygon class="st89" points="336.8,368.64 336.8,350.23 346.73,365.17 336.8,368.64 		"/>
		<polygon class="st90" points="323.26,360.9 323.26,342.49 333.2,357.43 323.26,360.9 		"/>
	</g>
	<g>
		<polygon class="st86" points="402.78,314.27 402.78,295.86 412.71,310.8 402.78,314.27 		"/>
		<polygon class="st87" points="389.24,306.53 389.24,288.12 399.18,303.06 389.24,306.53 		"/>
		<polygon class="st88" points="375.71,298.79 375.71,280.38 385.65,295.32 375.71,298.79 		"/>
		<polygon class="st89" points="362.18,291.05 362.18,272.64 372.12,287.58 362.18,291.05 		"/>
		<polygon class="st90" points="348.65,283.31 348.65,264.9 358.58,279.84 348.65,283.31 		"/>
	</g>
	<g>
		<polygon class="st86" points="159.73,258.29 159.73,239.88 169.67,254.83 159.73,258.29 		"/>
		<polygon class="st87" points="146.2,250.55 146.2,232.14 156.13,247.09 146.2,250.55 		"/>
		<polygon class="st88" points="132.66,242.81 132.66,224.4 142.6,239.35 132.66,242.81 		"/>
		<polygon class="st89" points="119.13,235.07 119.13,216.66 129.07,231.61 119.13,235.07 		"/>
		<polygon class="st90" points="105.6,227.33 105.6,208.92 115.54,223.86 105.6,227.33 		"/>
	</g>
	<g>
		<polygon class="st86" points="190.62,405.73 190.62,387.32 200.56,402.27 190.62,405.73 		"/>
		<polygon class="st87" points="177.09,397.99 177.09,379.58 187.03,394.53 177.09,397.99 		"/>
		<polygon class="st88" points="163.56,390.25 163.56,371.84 173.5,386.78 163.56,390.25 		"/>
		<polygon class="st89" points="150.03,382.51 150.03,364.1 159.96,379.04 150.03,382.51 		"/>
		<polygon class="st90" points="136.5,374.77 136.5,356.36 146.43,371.3 136.5,374.77 		"/>
	</g>
	<path class="st86" d="M397.13,397.35v-6.78c-1.84-1.67-3.19-3.36-4.05-5.08c-0.86-1.72-1.29-3.45-1.29-5.2
		c0-1.77,0.49-2.97,1.46-3.61c0.97-0.64,2.27-0.59,3.88,0.16v-1.6l2.04,1.18v1.6c1.49,1.07,2.68,2.34,3.57,3.81
		c0.88,1.48,1.45,3.09,1.69,4.85l-3.57-1.53c-0.22-1.4-0.78-2.59-1.69-3.56v6.32c2.26,2,3.79,3.8,4.61,5.39
		c0.82,1.59,1.23,3.26,1.23,5c0,1.95-0.51,3.3-1.54,4.04c-1.03,0.74-2.46,0.74-4.29-0.02v3.03l-2.04-1.18v-2.94
		c-1.63-1.16-2.95-2.62-3.96-4.37c-1.02-1.75-1.66-3.77-1.95-6.06l3.68,1.67c0.15,0.95,0.43,1.86,0.85,2.72
		C396.16,396.05,396.62,396.77,397.13,397.35z M397.13,380.36c-0.55-0.1-1,0.01-1.33,0.34c-0.33,0.33-0.49,0.8-0.49,1.43
		c0,0.57,0.15,1.19,0.45,1.85c0.3,0.66,0.76,1.32,1.37,1.98V380.36z M399.17,398.75c0.7,0.26,1.28,0.21,1.72-0.13
		c0.44-0.34,0.66-0.92,0.66-1.73c0-0.72-0.19-1.45-0.56-2.19c-0.37-0.74-0.98-1.49-1.83-2.26V398.75z"/>
	<g class="st91">
		<path class="st92" d="M375.25,221.73v-3.22c-0.59-0.33-1.24-0.7-1.97-1.12l-0.98-0.56v3.21l-3.12-1.8v-3.21l-2.88-1.66v-23.5
			l2.88,1.66v-3.21l3.12,1.8v3.21l2.19,1.27c0.26,0.15,0.51,0.3,0.75,0.45v-3.22l3.12,1.8v3.49c0.7,0.57,1.33,1.24,1.89,2
			c0.63,0.86,1.16,1.82,1.58,2.88c0.42,1.06,0.63,2.1,0.63,3.11c0,1.1-0.26,1.96-0.78,2.58c-0.52,0.62-1.22,0.91-2.1,0.85
			c1.25,1.14,2.21,2.4,2.88,3.79c0.67,1.39,1.01,2.77,1.01,4.12c0,1.07-0.22,1.98-0.65,2.74c-0.43,0.76-1.03,1.23-1.78,1.4
			c-0.73,0.17-1.62,0.02-2.67-0.43v3.37L375.25,221.73z M370.44,196.16v5.43l2.71,1.56c1.61,0.93,2.61,1.48,3,1.65
			c0.71,0.31,1.26,0.35,1.67,0.12c0.41-0.23,0.61-0.73,0.61-1.48c0-0.73-0.17-1.42-0.52-2.07c-0.35-0.66-0.87-1.23-1.56-1.72
			c-0.41-0.29-1.59-1-3.53-2.12L370.44,196.16z M370.44,205.51v6.28l3.83,2.21c1.49,0.86,2.44,1.36,2.84,1.49
			c0.61,0.23,1.12,0.2,1.5-0.07c0.39-0.27,0.58-0.83,0.58-1.66c0-0.71-0.15-1.39-0.45-2.05c-0.3-0.66-0.73-1.27-1.29-1.82
			c-0.56-0.55-1.79-1.37-3.67-2.45L370.44,205.51z"/>
	</g>
	<path class="st86" d="M434.88,309.33l-0.9,4.35c-0.87-1.5-2.13-2.73-3.8-3.69c-1.66-0.96-3.01-1.05-4.04-0.28
		c-0.58,0.44-1,1.16-1.24,2.18l8.42,4.86l-0.49,2.44l-8.24-4.76c-0.01,0.26-0.02,0.61-0.02,1.03c0,0.41,0.01,0.84,0.03,1.3l7.79,4.5
		l-0.49,2.44l-6.98-4.03c0.25,1.4,0.65,2.61,1.18,3.63c1.02,1.97,2.35,3.43,3.98,4.37c1.96,1.13,3.52,1.34,4.69,0.63v5.38
		c-1.33-0.01-2.87-0.52-4.64-1.54c-2.98-1.72-5.43-4.31-7.35-7.76c-1.31-2.35-2.17-4.83-2.59-7.45l-2.27-1.31l0.49-2.44l1.5,0.87
		c-0.01-0.29-0.02-0.59-0.02-0.91c0-0.54,0.01-1.01,0.03-1.41l-2.01-1.16l0.49-2.44l1.82,1.05c0.43-2.08,1.28-3.54,2.56-4.38
		c1.93-1.25,4.47-0.97,7.61,0.84C432.13,306.66,433.62,307.88,434.88,309.33z"/>
</g>
</svg>
