<?xml version="1.0" encoding="utf-8"?>
<!-- Generator: Adobe Illustrator 24.2.3, SVG Export Plug-In . SVG Version: 6.00 Build 0)  -->
<svg version="1.1" id="Layer_1" xmlns="http://www.w3.org/2000/svg" xmlns:xlink="http://www.w3.org/1999/xlink" x="0px" y="0px"
	 viewBox="0 0 512 512" style="enable-background:new 0 0 512 512;" xml:space="preserve">
<style type="text/css">
	.st0{fill:#9FB3C0;}
	.st1{fill:#B4A8C3;}
	.st2{fill:#F8B031;}
	.st3{fill:#FFBE2D;}
	.st4{fill:#FFD888;}
	.st5{fill:#FBF9FB;}
	.st6{fill:#344E5D;}
	.st7{fill:#596572;}
	.st8{fill:url(#SVGID_1_);}
	.st9{fill:#FF74B8;}
	.st10{opacity:0.12;fill:#6A1B9A;}
	.st11{fill:#CECDD3;}
	.st12{fill:#8B0092;}
	.st13{fill:url(#SVGID_2_);}
	.st14{fill:url(#SVGID_3_);}
	.st15{fill:#6A1B9A;}
	.st16{fill:#61B77C;}
	.st17{fill:#CE93D8;}
	.st18{fill:#BA68C8;}
	.st19{fill:#440670;}
	.st20{fill:#AB47BC;}
</style>
<g>
	<path class="st0" d="M395.46,284.59c0.17-0.02,0.32-0.02,0.49-0.03c-0.02-0.23-0.13-1.02-0.23-1.23
		C395.52,282.74,395.47,283.97,395.46,284.59z"/>
	<path class="st1" d="M385.1,289.18c-0.38,0.09-0.61,0.08-0.5-0.04c0.2-0.21,0.42-0.25,0.93-0.17
		C385.68,288.99,385.49,289.09,385.1,289.18z"/>
	<g>
		<path class="st2" d="M158.27,491.76c0-3.23,0-6.46,0-9.7c0,0.55-0.05,1.09-0.15,1.63c-1.41,7.9-13,14.09-27.06,14.09
			c-14.54,0-26.44-6.61-27.17-14.9c-0.02-0.16-0.03-0.33-0.03-0.49c0,3.13,0,6.26,0,9.38c-0.01,5.6,5.15,10.79,13.58,13.6
			c8.64,2.89,19.31,2.82,27.82-0.19C153.37,502.3,158.27,497.21,158.27,491.76z"/>
		<path class="st3" d="M103.89,482.87c0.73,8.29,12.64,14.9,27.17,14.9c14.06,0,25.64-6.17,27.06-14.09
			c0.04-0.27,0.08-0.53,0.11-0.8c0.15-1.25-0.1-2.78-0.48-3.85c-0.08-0.31-0.39-1-0.55-1.31c-0.21-0.49-0.65-1.11-0.7-1.22
			c-1.04-1.57-2.11-2.61-3.7-3.88c-2-1.45-3.95-2.46-4.23-2.57c-10.02-4.96-25.02-4.85-34.81-0.11c-0.07,0.03-0.11,0.04-0.17,0.08
			c-3.8,1.9-5.13,3.39-5.37,3.5c-0.11,0.11-0.22,0.22-0.35,0.34c-0.83,0.82-1.36,1.32-2.19,2.52c-0.31,0.48-0.76,1.27-0.98,1.79
			v0.03c-0.15,0.24-0.42,1.1-0.51,1.36c0,0-0.11,0.51-0.15,0.65C103.89,481.03,103.82,481.97,103.89,482.87z M107.84,482.07
			c0-7.41,10.4-13.41,23.22-13.41s23.24,6,23.24,13.41c0,0.27-0.01,0.53-0.04,0.8c-0.72,7.03-10.84,12.61-23.19,12.61
			c-0.9,0-1.8-0.03-2.68-0.1c-11.12-0.73-19.88-6.02-20.5-12.55c-0.03,0.2-0.04,0.46-0.04,0.63v0.01
			C107.81,484.08,107.84,482.74,107.84,482.07z"/>
		<path class="st4" d="M107.84,483.47v-0.01c0-0.17,0.01-0.44,0.04-0.63c0.62,6.54,9.38,11.82,20.5,12.55
			c0.89,0.07,1.79,0.1,2.68,0.1c12.36,0,22.48-5.58,23.19-12.61c0.03-0.27,0.04-0.53,0.04-0.8c0-7.41-10.42-13.41-23.24-13.41
			s-23.22,6-23.22,13.41C107.84,482.74,107.81,484.08,107.84,483.47z"/>
	</g>
	<g>
		<path class="st2" d="M503.99,333.63c0-3.23,0-6.46,0-9.7c0,0.55-0.05,1.09-0.15,1.63c-1.41,7.9-13,14.09-27.06,14.09
			c-14.54,0-26.44-6.61-27.17-14.9c-0.02-0.16-0.03-0.33-0.03-0.49c0,3.13,0,6.26,0,9.38c-0.01,5.6,5.15,10.79,13.58,13.6
			c8.64,2.89,19.31,2.82,27.82-0.19C499.09,344.17,503.99,339.08,503.99,333.63z"/>
		<path class="st3" d="M449.61,324.74c0.73,8.29,12.64,14.9,27.17,14.9c14.06,0,25.64-6.17,27.06-14.09
			c0.04-0.27,0.08-0.53,0.11-0.8c0.15-1.25-0.1-2.78-0.48-3.85c-0.08-0.31-0.39-1-0.55-1.31c-0.21-0.49-0.65-1.11-0.7-1.22
			c-1.04-1.57-2.11-2.61-3.7-3.88c-2-1.45-3.95-2.46-4.23-2.57c-10.02-4.96-25.02-4.85-34.81-0.11c-0.07,0.03-0.11,0.04-0.17,0.08
			c-3.8,1.9-5.13,3.39-5.37,3.5c-0.11,0.11-0.22,0.22-0.35,0.34c-0.83,0.82-1.36,1.32-2.19,2.52c-0.31,0.48-0.76,1.27-0.98,1.79
			v0.03c-0.15,0.24-0.42,1.1-0.51,1.36c0,0-0.11,0.51-0.15,0.65C449.61,322.9,449.54,323.84,449.61,324.74z M453.56,323.94
			c0-7.41,10.4-13.41,23.22-13.41c12.82,0,23.24,6,23.24,13.41c0,0.27-0.01,0.53-0.04,0.8c-0.72,7.03-10.84,12.61-23.19,12.61
			c-0.9,0-1.8-0.03-2.68-0.1c-11.12-0.73-19.88-6.02-20.5-12.55c-0.03,0.2-0.04,0.46-0.04,0.63v0.01
			C453.53,325.95,453.56,324.61,453.56,323.94z"/>
		<path class="st4" d="M453.56,325.34v-0.01c0-0.17,0.01-0.44,0.04-0.63c0.62,6.54,9.38,11.82,20.5,12.55
			c0.89,0.07,1.79,0.1,2.68,0.1c12.36,0,22.48-5.58,23.19-12.61c0.03-0.27,0.04-0.53,0.04-0.8c0-7.41-10.42-13.41-23.24-13.41
			c-12.82,0-23.22,6-23.22,13.41C453.56,324.61,453.53,325.95,453.56,325.34z"/>
	</g>
	<g>
		<g>
			<path class="st5" d="M289.08,76.11c0.31-27.56-0.32-26.01-0.07-33.53c0.15-5.17,0.56-12.23-4.12-15.57
				c-6.59-4.8-15.57,2.24-22.31,6.59c-9.74,6.27-7.04,3.26-44.46,25.52c-20.5,12.03-35.89,20.45-51.35,29.49
				c-4.49,2.62-8.98,5.31-13.62,7.93c-2.92,1.57-5.84,3.14-8.38,5.16c-6.21,4.88-11.92,13.7-13.32,23.5
				c-0.37,3.22-0.42,7.83-0.34,11.12c0.15,7.93,0.12,14.48,0.04,22.34c-0.15,11.83,0.15,23.73,0.22,35.56
				c0.23,16.18-0.12-34.82,0.52,236.84c0,9.28,6.07,14.21,14.22,10.78c1.65-0.68,100.12-57.55,101.65-58.46
				c5.99-3.59,11.75-7.19,17.97-10.55c4.12-2.25,8.38-4.34,11.9-7.41c3.14-2.73,6.45-7.37,8.31-11.08
				c2.29-4.58,3.26-8.33,3.74-13.32C289.88,336.97,289.02,88.93,289.08,76.11z M194.32,79.18c0.37-1.12,0.71-1.31,1.2-1.8
				c0.57-0.56,24.25-13.97,28.67-16.62c0.15-0.15,0.37-0.22,0.52-0.22c0.28-0.09,0.69-0.14,0.9,0.08c0.5,0.25,0.6,0.74,0.6,1.35
				c0,2.32,0.17,3.04-0.6,4.19c-0.11,0.34-0.53,0.88-0.9,1.12c-0.15,0.15-0.3,0.3-0.52,0.45c-30.29,17.48-28.58,16.81-29.57,16.32
				c-0.15-0.08-0.22-0.15-0.3-0.3c-0.15-0.08-0.15-0.23-0.23-0.45c-0.07-0.15-0.07-0.37-0.07-0.52
				C194.02,81.06,193.89,79.82,194.32,79.18z"/>
			<path class="st6" d="M223.81,60.99c-30.05,17.33-28.8,16.12-29.49,18.19c-0.15,0.22-0.23,0.45-0.23,0.67
				c-0.07,0.22-0.07,0.45-0.07,0.67v1.8c30.63-17.71,27.85-16.02,28.52-16.69c0.7-0.7,1.27-1.81,1.27-2.92V60.99z"/>
			<path class="st7" d="M224.71,60.54c-0.15,0-0.37,0.07-0.52,0.22l-0.37,0.22c0,2.09,0.03,2.05-0.15,2.77
				c-0.4,1.2-1.18,2.08-1.95,2.55l-27.7,16.02v0.45c0,0.15,0,0.37,0.07,0.52c0.08,0.22,0.08,0.37,0.23,0.45
				c0.07,0.15,0.15,0.22,0.3,0.3c0.38,0.19,0.24,0.15,0.9,0.15c0.15-0.08,0.37-0.15,0.52-0.22c28.75-16.59,29.12-16.48,29.57-17.82
				c0.79-1.18,0.6-2.08,0.6-4.19c0-0.37-0.02-0.65-0.22-1.05C225.57,60.51,225.28,60.35,224.71,60.54z"/>
			<linearGradient id="SVGID_1_" gradientUnits="userSpaceOnUse" x1="118.1792" y1="230.446" x2="286.6561" y2="230.446">
				<stop  offset="0" style="stop-color:#834D9B"/>
				<stop  offset="1" style="stop-color:#A84D9B"/>
			</linearGradient>
			<path class="st8" d="M118.18,132.6c0.02,4.37,0.02,8.66,0.03,12.91c0.02,0.02,0,0.03,0,0.03c0.19,90.38,0.33,152.16,0.43,194.43
				c0.24,102.66,0.27,90.08,0.51,92.24c0.54,3.53,2.66,7.65,5.76,9.44c0,0,8.55,4.77,7.3,3.52c-0.05-0.03-0.08-0.08-0.11-0.11
				c-0.21-0.19-0.41-0.4-0.59-0.62c-0.38-0.43-0.73-0.9-1.03-1.39c-0.16-0.24-0.29-0.46-0.41-0.7c-0.22-0.43-0.44-0.86-0.62-1.31
				c-0.19-0.44-0.35-0.9-0.49-1.36c-0.08-0.27-0.16-0.52-0.22-0.79c-0.03-0.11-0.05-0.24-0.08-0.35c-0.44-1.76-0.63-3.55-0.67-5.21
				v-0.33c0,0,0,0,0-0.02l-0.03-12.16l-0.17-88.94l-0.4-201.26c0-12.7,8.62-28.55,20.43-35.48l124.56-71.93
				c5.61-3.29,10.63-3.39,14.27-1.57c-1.06-0.63-9.69-5.65-12.48-5.99c-4.42-0.51-7.29,0.68-10.94,2.63L138.69,90.2
				c-5.83,3.26-11.55,11.77-15.46,21.06v0.02C120.14,118.63,118.18,126.47,118.18,132.6z"/>
			<path class="st9" d="M127.4,130.61l0.6,302.71c0.26,13.84,9.96,18.01,20.51,11.83l124.63-71.93
				c12.05-7.23,20.36-22.89,20.36-35.48v-17.74l-0.02,0.01L292.9,35.02c0-4.95-1.74-11.33-6.06-13.25c0,0-0.07,0-0.07-0.07
				c-3.64-1.88-8.7-1.83-14.37,1.5L147.83,95.12C135.95,102.08,127.4,117.97,127.4,130.61z M131.14,158.68
				c0.07-7.86,0.11-14.4-0.04-22.34c-0.16-7.07-0.21-11.89,2.29-18.76c1.38-3.44,3.03-6.57,5.84-10.25
				c4.26-5.42,8.1-7.64,13.92-10.78c8.32-4.7,4.23-2.65,37.65-21.71c31.6-17.87,40.97-24.2,54.64-31.59
				c5.76-3.14,11.68-6.14,17.14-9.66c5.21-3.36,13.71-9.83,19.61-7.86c1.91,0.44,3.83,1.76,5.24,4.27c2,3.8,1.69,8.37,1.57,12.58
				c-0.25,7.52,0.39,5.97,0.07,33.53c-0.06,12.87,0.52,72.82,0.52,249.43l0,0c0.03,13.32,0.25,11.71,0.07,15.47
				c-0.48,5-1.45,8.74-3.74,13.32c-1.86,3.71-5.18,8.35-8.31,11.08c-3.52,3.07-7.78,5.16-11.9,7.41
				c-6.21,3.37-11.98,6.96-17.96,10.55c-1.48,0.88-100.05,57.8-101.65,58.46c-8.16,3.44-14.22-1.52-14.22-10.78
				c-0.64-270.43-0.31-221.45-0.52-236.84C131.29,182.4,130.99,170.5,131.14,158.68z"/>
		</g>
		<path class="st10" d="M60.01,341.85L13.64,381.1c-7.17,6.07-5.39,17.57,3.28,21.19c21.63,9.03,54.44,22.53,57.31,22.5
			c8.88-0.11,16.41,2.17,23.8,6.54c13.67,8.06,15.41,8.5,29.05,16.61c5.61,3.34,11.01,2.76,16.91-0.78
			c-5.16,1.57-9.12,0.54-11.78-2.01c-0.05-0.03-0.08-0.08-0.11-0.11c-0.21-0.19-0.4-0.4-0.59-0.62c-0.38-0.43-0.71-0.9-1.03-1.39
			c-0.14-0.22-0.29-0.46-0.41-0.7c-0.22-0.43-0.44-0.86-0.62-1.31c-0.17-0.41-0.33-0.84-0.48-1.28c0-0.03-0.02-0.05-0.02-0.08
			c-0.08-0.24-0.16-0.51-0.22-0.79c-0.03-0.11-0.05-0.24-0.08-0.35c-0.33-1.57-0.54-3.5-0.67-5.54c0,0,0,0,0-0.02
			c-0.35-5.75-0.03-12.16-0.03-12.16l-0.17-88.94l-0.4-201.26c0,0-0.41,7.17-4.17-19.32c-3.09,7.35-5.05,15.19-5.05,21.32
			c0.02,4.37,0.02,8.66,0.03,12.91c0.02,0.02,0,0.03,0,0.03c0.03,0.11,0.03,0.16,0.03,0.16l0.4,194.28c0,0-28.36,0.57-42.7,0.33
			C70.41,340.21,60.01,341.85,60.01,341.85z"/>
	</g>
	<g>
		<path class="st3" d="M317.96,22.95c6.68,6.45,11.01,13.04,10.24,15.34c-0.07,0.33-0.36,0.63-0.72,0.78l-0.05,0.01
			c-0.31,0.09-0.69,0.13-1.02,0.06c-2.4-0.28-5.31-2.23-7.23-3.58c-8.74-6.01-19.19-18.35-17.61-21.71
			c0.09-0.17,0.23-0.35,0.43-0.48c0.05-0.01,0.05-0.06,0.1-0.06c0.05-0.01,0.15-0.07,0.21-0.08
			C304.64,12.49,311.28,16.51,317.96,22.95z"/>
		<path class="st2" d="M306.31,9.01c1.11-1.15,4.42,0,8.79,3.03c4.37,3.03,9.16,7.47,12.72,11.88c4.1,5,5.89,9.01,4.62,10.28
			l-4.51,4.54c0.15-0.12,0.23-0.35,0.27-0.46c0.77-2.35-3.56-8.89-10.24-15.34c-6.62-6.4-13.32-10.47-15.65-9.67
			c0,0-0.15,0.07-0.31,0.14C301.84,13.44,300.92,14.4,306.31,9.01z"/>
	</g>
	<g>
		<path class="st2" d="M107.71,171.78c-4.27-0.81-6.88-2.42-7.08-4.32l-0.6-6c0.01,0.19,0.1,0.43,0.16,0.6
			c1.23,2.99,9.09,4.74,18.29,3.9c9.29-0.8,16.7-3.93,17.33-7.14c0.11-0.24-0.11-2.63,0.52,5.44c0.24,2.98-5.46,6.11-13.65,7.45
			C117.51,172.59,111.97,172.59,107.71,171.78z"/>
		<path class="st3" d="M135.85,158.84c-0.63,3.21-8.08,6.31-17.33,7.14c-9.25,0.82-17.06-0.91-18.29-3.9
			c-0.94-2.48,2.45-4.49,4.88-5.55c5.73-2.45,14.03-3.41,19.74-2.95c2.93,0.17,6.82,0.76,9.28,2.3c0.78,0.49,1.59,1.24,1.75,2.17
			C135.9,158.29,135.86,158.8,135.85,158.84z"/>
		<path class="st4" d="M104.03,162.01c-0.83-0.37-1.18-0.67-1.34-0.84c0.22-0.38,1.14-1.26,3.45-2.27
			c5.44-2.34,13.44-3.15,18.5-2.74c1.72,0.1,4.91,0.43,7.22,1.47c0.32,0.14,0.59,0.27,0.85,0.43c0.22,0.15,0.38,0.32,0.48,0.41
			c-0.67,1.18-5.6,4.08-14.94,4.91C112.53,163.91,107.05,163.36,104.03,162.01z"/>
	</g>
	<g>
		<path class="st2" d="M348.02,283.76c-3.39-2.71-4.95-5.36-4.24-7.13l2.28-5.59c-0.08,0.18-0.11,0.42-0.14,0.6
			c-0.31,3.22,5.81,8.44,14.34,12c8.58,3.63,16.6,4.34,18.65,1.79c0.21-0.16,1.13-2.38-2.09,5.05c-1.18,2.74-7.68,2.84-15.55,0.2
			C356.3,289.06,351.41,286.48,348.02,283.76z"/>
		<path class="st3" d="M378.95,285.48c-2.06,2.54-10.1,1.8-18.65-1.79c-8.56-3.6-14.65-8.78-14.34-12.01
			c0.33-2.63,4.26-2.83,6.91-2.63c6.21,0.51,14,3.55,18.83,6.63c2.51,1.52,5.67,3.86,7.12,6.37c0.46,0.8,0.83,1.84,0.53,2.73
			C379.25,285.02,378.98,285.45,378.95,285.48z"/>
		<path class="st4" d="M349.34,273.4c-0.56-0.72-0.73-1.14-0.79-1.37c0.37-0.23,1.59-0.58,4.12-0.39c5.9,0.48,13.35,3.5,17.63,6.23
			c1.47,0.9,4.14,2.68,5.69,4.67c0.21,0.27,0.4,0.51,0.55,0.78c0.13,0.23,0.19,0.46,0.24,0.59c-1.15,0.73-6.86,0.99-15.5-2.65
			C355.96,279.06,351.38,276.01,349.34,273.4z"/>
	</g>
	<g>
		<path class="st3" d="M320.64,123.27c-0.13,1.31-8.42,1.36-13.9,0.2c-2.18-0.47-3.45-1.03-3.41-1.54c0.35-3.69,0.28-3.02,0.3-2.99
			c0.17,0.8,3.91,1.72,8.52,2.08c4.62,0.37,8.45,0.05,8.76-0.69C320.95,120.26,321,119.7,320.64,123.27z"/>
		<path class="st3" d="M303.63,118.88c0.05-0.56,2-0.78,2.59-0.82c1.57-0.14,3.67-0.11,5.23-0.02c0.38,0.02,1.87,0.14,2.22,0.19
			c1.76,0.18,4.19,0.53,5.87,1.1c0.38,0.14,1.47,0.5,1.43,0.93c-0.01,0.02,0,0.04-0.01,0.07c-0.3,0.76-4.14,1.08-8.75,0.71
			c-4.66-0.37-8.4-1.29-8.58-2.06C303.61,118.95,303.62,118.91,303.63,118.88z"/>
		<path class="st4" d="M319.54,120.15c-1.29,0.28-3.87,0.39-7.31,0.13c-3.66-0.29-6.08-0.85-7.22-1.27c0.4-0.09,0.87-0.15,1.25-0.18
			c1.31-0.12,3.23-0.12,5.13-0.02c0.38,0.02,1.84,0.13,2.15,0.17l0.02-0.01c1.38,0.14,3.96,0.48,5.71,1.05l0.02,0.01
			C319.39,120.08,319.47,120.11,319.54,120.15z"/>
	</g>
	<g>
		<path class="st3" d="M144,304.95c-0.37,15.77-16.01,30.48-37.57,30.53c-18.42,0.05-36.29-11.42-37.76-29.36
			c-0.13-1.87-0.07-3.84,0.21-5.76c0.35-2.55,1.17-5.23,2.2-7.37c2.04-4.35,4.26-7.04,7.55-10.12c7.26-6.39,16.7-10.07,27.58-10.14
			c0,0,0,0,0.07-0.01c19.53-0.11,37.13,12.72,37.86,30.26C144.06,303.61,144.08,304.38,144,304.95z"/>
		<path class="st4" d="M110.46,327.63c-1.31,0.14-2.7,0.22-4.02,0.23c-13.82,0.04-28.89-8.24-30.15-22.29c-0.1-1.6-0.03-2.86,0.12-4
			l-0.02-0.14c0.23-1.7,0.79-3.65,1.53-5.2c1.59-3.32,3.26-5.32,5.72-7.69c5.17-4.48,11.36-7.18,18.47-7.96
			c0.83-0.09,1.73-0.19,2.56-0.21l0.29,0.11l1.52-0.16c15.92,0.08,29.25,10.3,29.8,22.96c-0.02,0.49,0.04,0.98-0.01,1.19l0.01,0.14
			c-0.14,5.12-2.58,10.28-7.01,14.47C124.57,323.85,117.84,326.82,110.46,327.63z"/>
		<path class="st2" d="M68.91,312.1l-0.26-6.19c0,0,0.07,0.62,0.12,1.11c0.01,0.14,0.04,0.34,0.05,0.48
			c2,15.79,18.14,28.08,37.61,27.98c19.6-0.11,35.69-12.64,37.44-28.56c-0.78,8.82-0.57,6.28-0.59,6.78
			c-1.17,13.55-12.7,24.95-28.62,28.15C91.58,346.47,69.2,331.99,68.91,312.1z"/>
	</g>
	<g>
		<path class="st3" d="M182.62,29.14c-0.29,12.2-12.39,23.59-29.08,23.63c-14.26,0.04-28.08-8.84-29.22-22.72
			c-0.1-1.45-0.05-2.97,0.16-4.46c0.27-1.98,0.91-4.05,1.7-5.7c1.58-3.36,3.29-5.45,5.84-7.83c5.62-4.94,12.92-7.8,21.35-7.85
			c0,0,0,0,0.05-0.01c15.12-0.08,28.73,9.85,29.3,23.42C182.67,28.11,182.68,28.7,182.62,29.14z"/>
		<path class="st4" d="M156.66,46.69c-1.01,0.11-2.09,0.17-3.11,0.18c-10.69,0.03-22.36-6.38-23.33-17.25
			c-0.08-1.24-0.03-2.22,0.09-3.09l-0.01-0.11c0.18-1.32,0.61-2.83,1.18-4.02c1.23-2.57,2.52-4.12,4.43-5.95
			c4-3.47,8.79-5.56,14.29-6.16c0.64-0.07,1.34-0.15,1.98-0.16l0.23,0.08l1.18-0.13c12.32,0.06,22.64,7.97,23.06,17.77
			c-0.01,0.38,0.03,0.75-0.01,0.92l0.01,0.11c-0.11,3.96-1.99,7.95-5.42,11.2C167.58,43.77,162.37,46.07,156.66,46.69z"/>
		<path class="st2" d="M124.5,34.67l-0.2-4.79c0,0,0.05,0.48,0.09,0.86c0.01,0.11,0.03,0.27,0.04,0.37
			c1.55,12.22,14.04,21.73,29.11,21.66c15.17-0.09,27.62-9.78,28.97-22.1c-0.6,6.83-0.44,4.86-0.45,5.24
			c-0.91,10.49-9.83,19.31-22.15,21.79C142.05,61.27,124.72,50.07,124.5,34.67z"/>
	</g>
	<g>
		<path class="st2" d="M391.32,185.91l-0.23,0.44c-3.12,6.02-13.39,11.9-19.51,14.74c-11.44,5.38-25.26,8.92-34.99,9.49
			c-4.02,0.3-8.5,0.3-12.45-0.67c-1.22-0.29-2.6-0.77-3.65-1.42c-1.27-0.7-2.58-1.89-2.95-3.32c-0.08-0.13-0.13-0.55-0.17-0.89
			c-0.76-6.99,13.7-17.4,33.3-23.67c19.54-6.2,37.17-6.16,40.77-0.11C392.21,181.89,392.41,183.69,391.32,185.91z"/>
		<path class="st3" d="M350.59,180.62c-19.67,6.28-34.07,16.61-33.3,23.67c0.08,0.69,1.24,4.28-3.6-11.87
			c-1.31-4.27,3.3-10.1,12.21-15.63c8.98-5.53,21.2-10.16,32.93-12.35c15.35-2.87,26.81-1.11,28.67,4.37l4.31,12.56
			c0,0,0,0-0.01-0.07c-0.1-0.27-0.28-0.6-0.37-0.8C387.83,174.45,370.13,174.43,350.59,180.62z"/>
	</g>
	<g>
		<polygon class="st11" points="220.22,232.16 234.69,223.76 234.67,220.72 220.2,229.13 		"/>
		<polygon class="st11" points="238.4,221.72 252.87,213.32 252.86,210.28 238.39,218.69 		"/>
		<polygon class="st11" points="184.27,252.79 214.88,235.01 214.88,234.67 214.87,231.97 184.26,249.75 184.26,249.92 
			184.27,252.63 		"/>
		<polygon class="st11" points="220.21,220.04 234.69,211.63 234.67,208.6 220.2,217 		"/>
		<polygon class="st11" points="166.25,251.36 180.72,242.96 180.71,239.92 166.24,248.33 		"/>
		<polygon class="st11" points="238.4,209.28 252.87,200.87 252.86,197.83 238.39,206.24 		"/>
		<polygon class="st11" points="183.66,241.18 214.27,223.4 214.27,223.07 214.26,220.36 183.64,238.15 183.65,238.32 
			183.66,241.02 		"/>
		<polygon class="st11" points="238.4,215.34 252.87,206.93 252.86,203.9 238.39,212.3 		"/>
		<polygon class="st11" points="163.01,259.23 169.83,255.27 169.82,252.23 163,256.19 		"/>
		<polygon class="st11" points="204.07,235.22 234.69,217.43 234.68,217.1 234.67,214.4 204.06,232.18 204.06,232.35 204.07,235.05 
					"/>
		<path class="st11" d="M172.8,253.31l27.35-15.88l0-0.16l-0.01-2.7l0-0.17l-27.34,15.88C172.8,251.29,172.8,252.3,172.8,253.31z"/>
		<polygon class="st11" points="203.43,223.4 217.9,214.99 217.89,211.96 203.42,220.36 		"/>
		<polygon class="st11" points="162.78,247.45 169.6,243.5 169.59,240.46 162.77,244.42 		"/>
		<polygon class="st11" points="222.26,212.81 252.87,195.03 252.87,194.7 252.86,191.99 222.25,209.78 222.25,209.95 
			222.26,212.65 		"/>
		<path class="st11" d="M172.57,241.54l27.34-15.88l0-0.16l-0.01-2.7l0-0.17l-27.34,15.88
			C172.57,239.52,172.57,240.53,172.57,241.54z"/>
		<path class="st11" d="M162.92,235.79l27.35-15.88l0-0.16l-0.01-2.7l0-0.17l-27.34,15.88
			C162.91,233.76,162.91,234.77,162.92,235.79z"/>
		<path class="st11" d="M162.92,229.23l32.96-19.65l0-0.16l0.04-2.74l0-0.17l-32.96,19.65
			C162.95,227.18,162.93,228.21,162.92,229.23z"/>
		<polygon class="st11" points="238.4,227.35 252.87,218.94 252.86,215.91 238.39,224.31 		"/>
		<polygon class="st11" points="163.22,271.12 170.03,267.16 170.02,264.12 163.2,268.08 		"/>
		<polygon class="st11" points="204.07,247.22 234.69,229.44 234.68,229.11 234.67,226.41 204.06,244.19 204.06,244.36 
			204.07,247.06 		"/>
		<path class="st11" d="M173.01,265.2l27.35-15.88l0-0.16l-0.01-2.7l0-0.17l-27.34,15.88C173,263.18,173,264.19,173.01,265.2z"/>
		<g>
			<g>
				<path class="st12" d="M177.51,302.66c4.23-2.84,8.05-7.06,10.76-11.89c2.71-4.83,3.99-9.7,3.59-13.7
					c-0.39-4-2.41-6.66-5.68-7.48c-3.27-0.82-7.4,0.28-11.63,3.12c-2.61,1.75-5.14,4.1-7.31,6.8c-0.59,0.74-0.75,1.63-0.36,2
					c0.39,0.37,1.19,0.07,1.79-0.67c1.82-2.26,3.94-4.23,6.13-5.69c3.54-2.38,7-3.3,9.74-2.61c2.74,0.69,4.43,2.92,4.76,6.27
					c0.33,3.35-0.74,7.43-3.01,11.48c-2.27,4.05-5.47,7.59-9.02,9.96c-3.54,2.38-7,3.3-9.74,2.61c-2.74-0.69-4.43-2.92-4.76-6.27
					c-0.23-2.31,0.22-5.02,1.29-7.83c0.31-0.82,0.05-1.44-0.59-1.38c-0.64,0.06-1.41,0.77-1.73,1.59c-1.28,3.36-1.81,6.59-1.54,9.34
					c0.39,4,2.41,6.66,5.68,7.48C169.15,306.6,173.28,305.5,177.51,302.66z"/>
			</g>
			<g>
				<path class="st9" d="M170.36,288.03l11.62-2.89c0.7-0.18,1.46-1,1.7-1.84l0,0c0.23-0.84-0.15-1.38-0.86-1.2L171.2,285
					c-0.7,0.18-1.46,1-1.7,1.84l0,0C169.27,287.67,169.65,288.21,170.36,288.03z"/>
			</g>
			<g>
				<path class="st9" d="M171.7,293l11.62-2.89c0.71-0.18,1.46-1,1.7-1.84l0,0c0.23-0.84-0.15-1.38-0.86-1.2l-11.62,2.89
					c-0.7,0.18-1.46,1-1.7,1.84l0,0C170.61,292.64,171,293.18,171.7,293z"/>
			</g>
			<g>
				<path class="st9" d="M165.45,294.55l2.1-0.52c0.7-0.18,1.46-1,1.7-1.84l0,0c0.23-0.84-0.15-1.38-0.86-1.2l-2.1,0.52
					c-0.7,0.18-1.46,1-1.7,1.84l0,0C164.37,294.19,164.75,294.73,165.45,294.55z"/>
			</g>
		</g>
	</g>
	<g>
		
			<linearGradient id="SVGID_2_" gradientUnits="userSpaceOnUse" x1="-61.7312" y1="340.2115" x2="-37.7332" y2="307.5333" gradientTransform="matrix(-1 0 0 1 173.1795 0)">
			<stop  offset="0" style="stop-color:#B4A8C3"/>
			<stop  offset="1" style="stop-color:#8C74AB"/>
		</linearGradient>
		<path class="st13" d="M153.49,340.94c0,1.86,0.44,3.36,1.19,4.48c1.04,1.49,2.67,2.28,4.67,2.28c1.72,0,3.7-0.59,5.82-1.81
			l91.72-52.97c6.47-3.73,11.7-11.98,11.7-18.44c0-4.33-2.35-6.75-5.85-6.75c-0.06,0-0.11,0-0.17,0.01
			c-1.67,0.03-3.61,0.62-5.68,1.8l-91.72,52.95C158.72,326.22,153.49,334.48,153.49,340.94z"/>
		
			<linearGradient id="SVGID_3_" gradientUnits="userSpaceOnUse" x1="-55.6762" y1="334.1168" x2="-35.3405" y2="306.4256" gradientTransform="matrix(-1 0 0 1 173.1795 0)">
			<stop  offset="0" style="stop-color:#898095"/>
			<stop  offset="1" style="stop-color:#66557D"/>
		</linearGradient>
		<path class="st14" d="M153.49,340.94c0,1.86,0.44,3.36,1.19,4.48c1.67-0.03,3.61-0.63,5.68-1.81l91.72-52.97
			c6.45-3.73,11.68-11.98,11.68-18.44c0-1.86-0.42-3.35-1.19-4.46c-1.67,0.03-3.61,0.62-5.68,1.8l-91.72,52.95
			C158.72,326.22,153.49,334.48,153.49,340.94z"/>
		<g>
			<path class="st15" d="M242.33,296.2c1.92-0.09,3.87-0.6,5.51-1.53c21.43,18.03,63.93,21.36,109.9,53.94
				c-4.96,2.87-5.03,8.02,0,12c-15.47,8.93-30.92,17.84-46.38,26.77c-5.05-3.99-13.18-4.39-18.09-1.55
				c-45.78-32.46-88.59-36.02-109.9-53.94c2.61-1.5,4.02-3.88,3.7-6.97c-0.29-2.99-2.19-6.37-3.7-9.08
				c15.47-8.93,30.92-17.86,46.38-26.77C232.57,294.16,237.32,296.46,242.33,296.2z M287.68,349.23c5.39-2.3,11.8-6.63,12.41-12.43
				c0.32-3.18-1.26-5.85-3.74-7.82c-11.32-9.07-41.32-5.43-52.01,5.4c-5.68,5.75-4.33,12.23,5.29,16.02
				C259.62,354.32,275.86,354.23,287.68,349.23z"/>
			<path class="st16" d="M239.81,273.06l-75.7,43.71l1.46,0.11c91.69-52.94,72.75-41.97,75.7-43.71L239.81,273.06z"/>
			<path class="st17" d="M301.52,399.76c-63.86-53.33-123.63-43.3-135.95-82.88c79.07-45.65,74.37-43.01,75.36-43.51l0.34-0.2
				c12.32,39.58,72.09,29.57,135.95,82.9L301.52,399.76z M187.06,324.92c0.32,3.08-1.09,5.46-3.7,6.97
				c21.31,17.92,64.12,21.48,109.9,53.94c4.91-2.84,13.04-2.44,18.09,1.55c15.47-8.93,30.92-17.84,46.38-26.77
				c-5.03-3.97-4.96-9.13,0-12c-45.97-32.59-88.47-35.92-109.9-53.94c-1.64,0.94-3.59,1.44-5.51,1.53c-5,0.26-9.76-2.04-12.58-7.13
				c-15.47,8.91-30.92,17.84-46.38,26.77C184.87,318.56,186.77,321.93,187.06,324.92z"/>
			<path class="st18" d="M244.34,334.37c-5.68,5.75-4.33,12.23,5.29,16.02c9.99,3.93,26.24,3.84,38.05-1.17
				c5.39-2.3,11.8-6.63,12.41-12.43c0.32-3.18-1.26-5.85-3.74-7.82C285.02,319.91,255.03,323.54,244.34,334.37z"/>
			<path class="st16" d="M164.11,316.78c13.07,42.04,73.06,31.15,137.07,84.6l0.34-1.61c-63.86-53.33-123.63-43.3-135.95-82.88
				L164.11,316.78z"/>
			<polygon class="st16" points="301.18,401.38 376.88,357.66 377.22,356.07 301.52,399.76 			"/>
		</g>
		<polygon class="st5" points="139.71,337.56 264.89,265.29 264.89,256.2 139.71,328.47 		"/>
	</g>
	<g>
		<path class="st19" d="M173.82,157.94l-1.78,0.91c0.2-2.88,0.36-6.07,0.48-9.58c6.84-3.3,11.72-5.69,14.63-7.17
			c2.42-1.23,6.83-3.56,13.23-6.98c0.32,3.4,0.65,6.34,1,8.82l-1.74,0.88c-0.82-2.5-1.35-3.95-1.58-4.33
			c-0.23-0.38-0.56-0.58-0.97-0.58c-0.42,0-1.46,0.42-3.12,1.26l-5.13,2.61c0.02,4.23,0.13,9.43,0.34,15.57
			c0.19,5.71,0.39,9.54,0.58,11.48c0.05,0.45,0.17,0.72,0.38,0.79c0.27,0.09,1.55-0.22,3.85-0.93c0.22-0.08,0.54-0.17,0.98-0.28
			l0.05,1.39c-3.06,1.38-5.79,2.68-8.18,3.89c-2.27,1.15-4.59,2.42-6.96,3.8l-0.05-1.39c0.54-0.42,0.94-0.72,1.22-0.91
			c2.1-1.44,3.31-2.36,3.63-2.78c0.13-0.2,0.23-0.43,0.29-0.69s0.06-2.03,0-5.3c-0.11-5.05-0.2-8.78-0.28-11.2
			c-0.14-4.22-0.3-7.92-0.47-11.1l-5.51,2.8l-0.99,0.53c-0.88,0.45-1.46,0.84-1.73,1.16c-0.42,0.49-0.79,1.25-1.1,2.28
			C174.63,153.7,174.28,155.38,173.82,157.94z"/>
		<path class="st19" d="M217.98,154.34l0.93,0.94l-4.5,5.8c-0.62,0.76-1.27,1.42-1.94,1.97c-0.98,0.8-1.99,1.46-3.02,1.99
			c-2.52,1.28-4.71,1.35-6.56,0.2c-1.85-1.15-2.84-3.47-2.96-6.97c-0.13-3.76,0.84-7.33,2.9-10.69s4.64-5.83,7.73-7.4
			c2.4-1.22,4.27-1.49,5.62-0.81s2.09,2.39,2.21,5.13c-0.63,0.7-1.21,1.47-1.73,2.29c-1.1,0.54-1.79,0.88-2.06,1.02
			c-4.09,2.08-7.65,3.95-10.68,5.62c0.1,3.52,0.78,5.88,2.03,7.08c1.25,1.22,2.87,1.32,4.86,0.31c1-0.51,2.05-1.24,3.13-2.2
			C215.04,157.66,216.38,156.24,217.98,154.34z M214.27,145.74c-0.15-1.51-0.53-2.51-1.14-3.01c-0.91-0.74-2.1-0.73-3.56,0.02
			c-1.27,0.65-2.38,1.66-3.34,3.05c-0.96,1.39-1.65,3.23-2.06,5.51c0.57-0.28,1.01-0.49,1.3-0.64
			C208.01,149.38,210.94,147.73,214.27,145.74z"/>
		<path class="st19" d="M219.98,128.41l-0.04-1.32c2.72-2.29,5.17-4.58,7.35-6.87l0.64,0.11c-0.27,3.14-0.27,8.71,0,16.73
			c0.27,8.09,0.46,12.55,0.55,13.38c0.09,0.82,0.28,1.31,0.58,1.45c0.3,0.15,1.42,0,3.39-0.44l0.04,1.32
			c-2.49,1.09-4.41,1.98-5.79,2.68c-1.46,0.74-3.35,1.79-5.68,3.15l-0.04-1.32c2.06-1.72,3.19-2.72,3.36-3
			c0.18-0.28,0.28-0.8,0.3-1.54c0.01-0.98-0.11-5.31-0.37-13l-0.42-11.15l-0.01-0.33c-0.03-0.86-0.16-1.37-0.4-1.52
			c-0.24-0.15-0.61-0.1-1.1,0.15C221.91,127.09,221.13,127.6,219.98,128.41z"/>
		<path class="st19" d="M252.55,136.77l0.93,0.94l-4.5,5.8c-0.62,0.76-1.27,1.42-1.94,1.97c-0.98,0.8-1.99,1.46-3.02,1.99
			c-2.52,1.28-4.71,1.35-6.56,0.2s-2.84-3.47-2.96-6.97c-0.13-3.76,0.84-7.33,2.9-10.69c2.06-3.36,4.64-5.83,7.73-7.4
			c2.4-1.22,4.27-1.49,5.62-0.81c1.35,0.68,2.09,2.39,2.21,5.13c-0.63,0.7-1.21,1.47-1.73,2.29c-1.1,0.54-1.79,0.88-2.06,1.02
			c-4.09,2.08-7.65,3.95-10.68,5.62c0.1,3.52,0.78,5.88,2.03,7.08c1.25,1.22,2.87,1.32,4.86,0.31c1-0.51,2.05-1.24,3.13-2.2
			C249.61,140.1,250.95,138.67,252.55,136.77z M248.85,128.17c-0.15-1.51-0.53-2.51-1.14-3.01c-0.91-0.74-2.1-0.73-3.56,0.02
			c-1.27,0.65-2.38,1.66-3.34,3.05c-0.96,1.39-1.65,3.23-2.06,5.51c0.57-0.28,1.01-0.49,1.3-0.64
			C242.58,131.81,245.51,130.17,248.85,128.17z"/>
	</g>
	<g>
		<g>
			<path class="st20" d="M222.93,254.03c-14.33-1.23-30.28-11.4-35.57-22.68c-5.28-11.28,2.07-19.45,16.4-18.23
				c3.22,0.28,6.57,1,9.97,2.16c1.05,0.36,1.88,1.2,1.87,1.89c-0.02,0.69-0.87,0.96-1.92,0.61c-2.93-1-5.83-1.63-8.61-1.86
				c-12.37-1.06-18.72,6-14.16,15.74c4.56,9.74,18.34,18.52,30.71,19.58c12.37,1.06,18.72-6,14.16-15.74
				c-1.29-2.76-3.31-5.46-6.01-8.04c-0.76-0.73-0.8-1.54-0.08-1.81c0.71-0.27,1.91,0.1,2.68,0.83c3.12,2.99,5.46,6.13,6.96,9.32
				C244.61,247.08,237.26,255.26,222.93,254.03z"/>
		</g>
		<g>
			<g>
				<path class="st20" d="M219.71,246.78l-34.37-25.02c-1.8-1.31-2.38-3.05-1.31-3.89c1.07-0.84,3.4-0.46,5.19,0.85l24.83,18.07
					l9.41-34.77c0.34-1.26,2.29-1.54,4.35-0.63c2.06,0.91,3.46,2.67,3.12,3.93L219.71,246.78z"/>
			</g>
		</g>
	</g>
</g>
</svg>
