<?xml version="1.0" encoding="utf-8"?>
<!-- Generator: Adobe Illustrator 24.2.3, SVG Export Plug-In . SVG Version: 6.00 Build 0)  -->
<svg version="1.1" id="Layer_1" xmlns="http://www.w3.org/2000/svg" xmlns:xlink="http://www.w3.org/1999/xlink" x="0px" y="0px"
	 viewBox="0 0 512 512" style="enable-background:new 0 0 512 512;" xml:space="preserve">
<style type="text/css">
	.st0{opacity:0;fill:#002093;}
	.st1{opacity:6.452000e-03;fill:#002093;}
	.st2{opacity:0.0129;fill:#002093;}
	.st3{opacity:0.0194;fill:#002093;}
	.st4{opacity:0.0258;fill:#002093;}
	.st5{opacity:0.0323;fill:#002093;}
	.st6{opacity:0.0387;fill:#002093;}
	.st7{opacity:0.0452;fill:#002093;}
	.st8{opacity:0.0516;fill:#002093;}
	.st9{opacity:0.0581;fill:#002093;}
	.st10{opacity:0.0645;fill:#002093;}
	.st11{opacity:0.071;fill:#002093;}
	.st12{opacity:0.0774;fill:#002093;}
	.st13{opacity:0.0839;fill:#002093;}
	.st14{opacity:0.0903;fill:#002093;}
	.st15{opacity:0.0968;fill:#002093;}
	.st16{opacity:0.1032;fill:#002093;}
	.st17{opacity:0.1097;fill:#002093;}
	.st18{opacity:0.1161;fill:#002093;}
	.st19{opacity:0.1226;fill:#002093;}
	.st20{opacity:0.129;fill:#002093;}
	.st21{opacity:0.1355;fill:#002093;}
	.st22{opacity:0.1419;fill:#002093;}
	.st23{opacity:0.1484;fill:#002093;}
	.st24{opacity:0.1548;fill:#002093;}
	.st25{opacity:0.1613;fill:#002093;}
	.st26{opacity:0.1677;fill:#002093;}
	.st27{opacity:0.1742;fill:#002093;}
	.st28{opacity:0.1806;fill:#002093;}
	.st29{opacity:0.1871;fill:#002093;}
	.st30{opacity:0.1935;fill:#002093;}
	.st31{opacity:0.2;fill:#002093;}
	.st32{fill:url(#SVGID_1_);}
	.st33{opacity:0.5;}
	.st34{fill:#FFFFFF;}
	.st35{fill:url(#SVGID_2_);}
	.st36{fill:url(#SVGID_3_);}
	.st37{fill:url(#SVGID_4_);}
	.st38{opacity:0.3;}
	.st39{fill:url(#SVGID_5_);}
	.st40{fill:url(#SVGID_6_);}
	.st41{fill:url(#SVGID_7_);}
	.st42{display:none;}
	.st43{display:inline;}
	.st44{filter:url(#Adobe_OpacityMaskFilter);}
	.st45{filter:url(#Adobe_OpacityMaskFilter_1_);}
	.st46{mask:url(#SVGID_8_);fill:url(#SVGID_9_);}
	.st47{fill:url(#SVGID_10_);}
	.st48{opacity:0.2;}
	.st49{fill:url(#SVGID_11_);}
	.st50{fill:url(#SVGID_12_);}
	.st51{fill:url(#SVGID_13_);}
	.st52{fill:url(#SVGID_14_);}
	.st53{fill:url(#SVGID_15_);}
	.st54{filter:url(#Adobe_OpacityMaskFilter_2_);}
	.st55{filter:url(#Adobe_OpacityMaskFilter_3_);}
	.st56{mask:url(#SVGID_16_);fill:url(#SVGID_17_);}
	.st57{fill:url(#SVGID_18_);}
	.st58{fill:url(#SVGID_19_);}
	.st59{fill:url(#SVGID_20_);}
	.st60{fill:url(#SVGID_21_);}
	.st61{fill:url(#SVGID_22_);}
	.st62{fill:url(#SVGID_23_);}
</style>
<g>
	<g>
		<g>
			<path class="st0" d="M256.31,507c-48.23,0-93.84-11-128.44-30.98c-18.41-10.63-32.83-23.25-42.85-37.52
				c-10.24-14.58-15.65-30.86-15.65-47.08c0-16.22,5.41-32.5,15.65-47.08c10.02-14.26,24.43-26.88,42.85-37.52
				c34.6-19.98,80.21-30.98,128.44-30.98c48.23,0,93.84,11,128.44,30.98c18.41,10.63,32.83,23.25,42.85,37.52
				c10.24,14.58,15.65,30.86,15.65,47.08c0,16.22-5.41,32.5-15.65,47.08c-10.02,14.26-24.43,26.88-42.85,37.52
				C350.15,496,304.53,507,256.31,507z"/>
			<path class="st1" d="M128.25,307.39c34.52-19.93,80.02-30.88,128.05-30.88c48.03,0,93.53,10.95,128.05,30.88
				c18.31,10.57,32.64,23.11,42.59,37.27c10.19,14.49,15.57,30.66,15.57,46.77c0,16.11-5.38,32.28-15.57,46.77
				c-9.95,14.15-24.28,26.69-42.59,37.26c-34.52,19.93-80.02,30.88-128.05,30.88c-48.03,0-93.53-10.95-128.05-30.88
				c-18.31-10.57-32.64-23.11-42.59-37.26c-10.19-14.49-15.57-30.66-15.57-46.77c0-16.11,5.38-32.28,15.57-46.77
				C95.61,330.51,109.94,317.97,128.25,307.39z"/>
			<path class="st2" d="M128.63,307.95c34.44-19.88,79.83-30.78,127.67-30.78c47.84,0,93.23,10.89,127.67,30.78
				c18.21,10.51,32.45,22.97,42.34,37.01c10.15,14.41,15.5,30.46,15.5,46.46c0,16-5.35,32.06-15.5,46.46
				c-9.89,14.04-24.13,26.5-42.34,37.01c-34.44,19.88-79.83,30.77-127.67,30.77c-47.84,0-93.23-10.89-127.67-30.78
				c-18.21-10.51-32.45-22.97-42.34-37.01c-10.15-14.41-15.5-30.46-15.5-46.46c0-16,5.35-32.06,15.5-46.46
				C96.19,330.93,110.42,318.47,128.63,307.95z"/>
			<path class="st3" d="M129.02,308.51c34.36-19.84,79.64-30.67,127.28-30.67c47.64,0,92.92,10.84,127.28,30.68
				c18.11,10.46,32.26,22.84,42.08,36.76c10.11,14.32,15.42,30.26,15.42,46.15c0,15.89-5.32,31.83-15.42,46.15
				c-9.82,13.93-23.97,26.31-42.08,36.76c-34.36,19.84-79.64,30.67-127.28,30.67c-47.64,0-92.92-10.84-127.28-30.68
				c-18.11-10.46-32.26-22.83-42.08-36.76c-10.11-14.32-15.42-30.26-15.42-46.15c0-15.89,5.32-31.83,15.42-46.15
				C96.76,331.35,110.91,318.97,129.02,308.51z"/>
			<path class="st4" d="M129.4,309.07c34.29-19.79,79.45-30.57,126.9-30.57c47.44,0,92.61,10.78,126.9,30.57
				c18.01,10.4,32.07,22.7,41.83,36.51c10.06,14.24,15.35,30.07,15.35,45.85c0,15.78-5.29,31.61-15.35,45.85
				c-9.76,13.81-23.82,26.11-41.83,36.51c-34.28,19.79-79.45,30.57-126.9,30.57c-47.45,0-92.61-10.78-126.9-30.57
				c-18.01-10.4-32.07-22.7-41.83-36.51c-10.06-14.24-15.35-30.07-15.35-45.85c0-15.78,5.29-31.61,15.35-45.85
				C97.34,331.77,111.4,319.47,129.4,309.07z"/>
			<path class="st5" d="M129.79,309.63c34.21-19.75,79.26-30.47,126.51-30.47c47.25,0,92.31,10.72,126.51,30.47
				c17.91,10.34,31.88,22.56,41.57,36.26c10.02,14.15,15.27,29.87,15.27,45.54c0,15.67-5.25,31.39-15.27,45.54
				c-9.7,13.7-23.66,25.92-41.57,36.26c-34.21,19.75-79.26,30.47-126.51,30.47c-47.25,0-92.31-10.72-126.51-30.47
				c-17.91-10.34-31.88-22.56-41.57-36.26c-10.02-14.15-15.27-29.87-15.27-45.54c0-15.67,5.25-31.39,15.27-45.54
				C97.91,332.19,111.88,319.97,129.79,309.63z"/>
			<path class="st6" d="M130.17,310.19c34.13-19.7,79.07-30.37,126.13-30.37c47.05,0,92,10.67,126.13,30.37
				c17.81,10.28,31.69,22.42,41.32,36.01c9.98,14.07,15.2,29.67,15.2,45.23c0,15.56-5.22,31.16-15.2,45.23
				c-9.63,13.59-23.51,25.73-41.32,36.01c-34.13,19.7-79.07,30.37-126.13,30.37c-47.05,0-92-10.67-126.13-30.37
				c-17.81-10.28-31.69-22.42-41.32-36.01c-9.98-14.07-15.2-29.67-15.2-45.23c0-15.56,5.22-31.16,15.2-45.23
				C98.49,332.61,112.37,320.47,130.17,310.19z"/>
			<path class="st7" d="M130.56,310.75c34.05-19.66,78.88-30.27,125.74-30.27c46.86,0,91.69,10.61,125.74,30.27
				c17.7,10.22,31.49,22.28,41.06,35.76c9.93,13.98,15.12,29.48,15.12,44.92c0,15.45-5.19,30.94-15.12,44.92
				c-9.57,13.48-23.36,25.54-41.06,35.76c-34.05,19.66-78.88,30.27-125.74,30.27c-46.86,0-91.69-10.61-125.74-30.27
				c-17.7-10.22-31.49-22.28-41.06-35.76c-9.93-13.98-15.12-29.48-15.12-44.92c0-15.45,5.19-30.94,15.12-44.92
				C99.07,333.03,112.86,320.97,130.56,310.75z"/>
			<path class="st8" d="M130.94,311.31c33.97-19.61,78.7-30.17,125.36-30.17c46.66,0,91.39,10.56,125.36,30.17
				c17.6,10.16,31.3,22.14,40.81,35.51c9.89,13.9,15.05,29.28,15.05,44.62c0,15.34-5.16,30.72-15.05,44.62
				c-9.5,13.37-23.2,25.34-40.81,35.51c-33.97,19.61-78.7,30.17-125.36,30.17c-46.66,0-91.39-10.56-125.36-30.17
				c-17.6-10.16-31.3-22.14-40.81-35.51c-9.89-13.9-15.05-29.28-15.05-44.62c0-15.34,5.16-30.72,15.05-44.62
				C99.64,333.45,113.34,321.47,130.94,311.31z"/>
			<path class="st9" d="M131.33,311.87c33.89-19.57,78.51-30.07,124.97-30.07c46.47,0,91.08,10.5,124.97,30.07
				c17.5,10.1,31.11,22,40.55,35.25c9.84,13.81,14.97,29.08,14.97,44.31c0,15.23-5.13,30.49-14.97,44.31
				c-9.44,13.26-23.05,25.15-40.55,35.25c-33.89,19.57-78.51,30.07-124.97,30.07c-46.47,0-91.08-10.5-124.97-30.07
				c-17.5-10.1-31.11-22-40.55-35.25c-9.84-13.81-14.97-29.08-14.97-44.31c0-15.23,5.13-30.49,14.97-44.31
				C100.22,333.86,113.83,321.97,131.33,311.87z"/>
			<path class="st10" d="M131.71,312.43c33.82-19.52,78.32-29.97,124.59-29.97c46.27,0,90.77,10.45,124.59,29.97
				c17.4,10.05,30.92,21.86,40.3,35c9.8,13.73,14.9,28.88,14.9,44c0,15.12-5.1,30.27-14.9,44c-9.37,13.14-22.9,24.96-40.29,35
				c-33.82,19.52-78.32,29.97-124.59,29.97c-46.27,0-90.77-10.45-124.59-29.97c-17.4-10.05-30.92-21.86-40.3-35
				c-9.8-13.73-14.9-28.88-14.9-44c0-15.12,5.1-30.27,14.9-44C100.79,334.28,114.32,322.47,131.71,312.43z"/>
			<path class="st11" d="M132.1,312.99c33.74-19.48,78.13-29.87,124.2-29.87c46.08,0,90.47,10.39,124.2,29.87
				c17.3,9.99,30.73,21.72,40.04,34.75c9.76,13.65,14.82,28.69,14.82,43.69c0,15.01-5.07,30.05-14.82,43.69
				c-9.31,13.03-22.74,24.77-40.04,34.75c-33.74,19.48-78.13,29.87-124.2,29.87c-46.08,0-90.47-10.39-124.2-29.87
				c-17.3-9.99-30.73-21.72-40.04-34.75c-9.76-13.65-14.82-28.69-14.82-43.69c0-15.01,5.07-30.05,14.82-43.69
				C101.37,334.7,114.8,322.97,132.1,312.99z"/>
			<path class="st12" d="M132.49,313.54c33.66-19.43,77.94-29.77,123.82-29.77c45.88,0,90.16,10.34,123.82,29.77
				c17.2,9.93,30.54,21.58,39.78,34.5c9.71,13.56,14.75,28.49,14.75,43.38c0,14.89-5.04,29.82-14.75,43.39
				c-9.24,12.92-22.59,24.57-39.78,34.5c-33.66,19.43-77.94,29.77-123.82,29.77c-45.88,0-90.16-10.34-123.82-29.77
				c-17.2-9.93-30.54-21.58-39.78-34.5c-9.71-13.56-14.75-28.49-14.75-43.38c0-14.89,5.04-29.82,14.75-43.39
				C101.95,335.12,115.29,323.47,132.49,313.54z"/>
			<path class="st13" d="M132.87,314.1c33.58-19.39,77.75-29.67,123.43-29.67c45.69,0,89.85,10.28,123.43,29.67
				c17.09,9.87,30.35,21.44,39.53,34.25c9.67,13.48,14.67,28.29,14.67,43.08c0,14.78-5,29.6-14.67,43.08
				c-9.18,12.81-22.43,24.38-39.53,34.25c-33.58,19.39-77.75,29.67-123.43,29.67c-45.69,0-89.85-10.28-123.43-29.67
				c-17.09-9.87-30.35-21.44-39.53-34.25c-9.67-13.48-14.67-28.29-14.67-43.08c0-14.78,5-29.6,14.67-43.08
				C102.52,335.54,115.78,323.97,132.87,314.1z"/>
			<path class="st14" d="M133.26,314.66c33.5-19.34,77.56-29.57,123.05-29.57c45.49,0,89.55,10.23,123.05,29.57
				c16.99,9.81,30.16,21.3,39.27,34c9.63,13.39,14.6,28.1,14.6,42.77c0,14.67-4.97,29.38-14.6,42.77
				c-9.12,12.7-22.28,24.19-39.27,34c-33.5,19.34-77.56,29.57-123.05,29.57c-45.49,0-89.55-10.23-123.05-29.57
				c-16.99-9.81-30.16-21.3-39.27-34c-9.63-13.39-14.6-28.1-14.6-42.77c0-14.67,4.97-29.38,14.6-42.77
				C103.1,335.96,116.26,324.47,133.26,314.66z"/>
			<path class="st15" d="M133.64,315.22c33.42-19.3,77.37-29.47,122.66-29.47c45.29,0,89.24,10.17,122.66,29.47
				c16.89,9.75,29.97,21.16,39.02,33.75c9.58,13.31,14.52,27.9,14.52,42.46c0,14.56-4.94,29.16-14.52,42.46
				c-9.05,12.59-22.13,23.99-39.02,33.75c-33.42,19.3-77.37,29.47-122.66,29.47c-45.29,0-89.24-10.17-122.66-29.47
				c-16.89-9.75-29.97-21.16-39.02-33.75c-9.58-13.31-14.52-27.9-14.52-42.46c0-14.56,4.94-29.16,14.52-42.46
				C103.67,336.38,116.75,324.97,133.64,315.22z"/>
			<path class="st16" d="M134.03,315.78c33.35-19.25,77.18-29.37,122.28-29.37c45.1,0,88.93,10.12,122.28,29.37
				c16.79,9.69,29.78,21.02,38.76,33.49c9.54,13.22,14.45,27.7,14.45,42.15c0,14.45-4.91,28.93-14.45,42.16
				c-8.99,12.47-21.97,23.8-38.76,33.5c-33.35,19.25-77.18,29.37-122.28,29.37c-45.1,0-88.93-10.12-122.28-29.37
				c-16.79-9.69-29.78-21.02-38.76-33.49c-9.54-13.22-14.45-27.7-14.45-42.15c0-14.45,4.91-28.93,14.45-42.16
				C104.25,336.8,117.23,325.47,134.03,315.78z"/>
			<path class="st17" d="M134.41,316.34c33.27-19.21,76.99-29.27,121.89-29.27c44.9,0,88.63,10.06,121.89,29.27
				c16.69,9.64,29.58,20.88,38.51,33.24c9.49,13.14,14.37,27.5,14.37,41.84c0,14.34-4.88,28.71-14.37,41.85
				c-8.92,12.36-21.82,23.61-38.51,33.24c-33.27,19.21-76.99,29.27-121.89,29.27c-44.9,0-88.63-10.06-121.89-29.27
				c-16.69-9.63-29.58-20.88-38.51-33.24c-9.49-13.14-14.37-27.5-14.37-41.84c0-14.34,4.88-28.71,14.37-41.85
				C104.83,337.22,117.72,325.97,134.41,316.34z"/>
			<path class="st18" d="M134.8,316.9c33.19-19.16,76.8-29.17,121.51-29.17c44.71,0,88.32,10.01,121.51,29.17
				c16.59,9.58,29.39,20.74,38.25,32.99c9.45,13.05,14.3,27.31,14.3,41.54c0,14.23-4.85,28.49-14.3,41.54
				c-8.86,12.25-21.67,23.42-38.25,32.99c-33.19,19.16-76.8,29.17-121.51,29.17c-44.71,0-88.32-10.01-121.51-29.17
				c-16.59-9.58-29.39-20.74-38.25-32.99c-9.45-13.05-14.3-27.31-14.3-41.54c0-14.23,4.85-28.49,14.3-41.54
				C105.4,337.64,118.21,326.48,134.8,316.9z"/>
			<path class="st19" d="M135.18,317.46c33.11-19.12,76.61-29.07,121.12-29.07c44.51,0,88.01,9.95,121.12,29.07
				c16.49,9.52,29.2,20.6,38,32.74c9.41,12.97,14.22,27.11,14.22,41.23c0,14.12-4.82,28.26-14.22,41.23
				c-8.79,12.14-21.51,23.22-38,32.74c-33.11,19.12-76.61,29.07-121.12,29.07c-44.51,0-88.01-9.95-121.12-29.07
				c-16.49-9.52-29.2-20.6-38-32.74c-9.41-12.97-14.22-27.11-14.22-41.23c0-14.12,4.82-28.26,14.22-41.23
				C105.98,338.06,118.69,326.98,135.18,317.46z"/>
			<path class="st20" d="M135.57,318.02c33.03-19.07,76.42-28.97,120.74-28.97c44.32,0,87.71,9.9,120.74,28.97
				c16.38,9.46,29.01,20.46,37.74,32.49c9.36,12.88,14.15,26.91,14.15,40.92c0,14.01-4.78,28.04-14.15,40.92
				c-8.73,12.03-21.36,23.03-37.74,32.49c-33.03,19.07-76.42,28.97-120.74,28.97c-44.32,0-87.71-9.9-120.74-28.97
				c-16.38-9.46-29.01-20.46-37.74-32.49c-9.36-12.88-14.15-26.91-14.15-40.92c0-14.01,4.78-28.04,14.15-40.92
				C106.55,338.48,119.18,327.48,135.57,318.02z"/>
			<path class="st21" d="M135.95,318.58c32.95-19.03,76.23-28.87,120.35-28.87c44.12,0,87.4,9.84,120.35,28.87
				c16.28,9.4,28.82,20.32,37.49,32.24c9.32,12.8,14.07,26.72,14.07,40.61c0,13.9-4.75,27.82-14.07,40.62
				c-8.67,11.91-21.2,22.84-37.49,32.24c-32.95,19.03-76.23,28.87-120.35,28.87c-44.12,0-87.4-9.84-120.35-28.87
				c-16.28-9.4-28.82-20.32-37.49-32.24c-9.32-12.8-14.07-26.72-14.07-40.61c0-13.9,4.75-27.82,14.07-40.62
				C107.13,338.9,119.67,327.98,135.95,318.58z"/>
			<path class="st22" d="M136.34,319.13c32.88-18.98,76.04-28.77,119.97-28.77c43.93,0,87.09,9.78,119.97,28.77
				c16.18,9.34,28.63,20.18,37.23,31.99c9.28,12.71,14,26.52,14,40.31c0,13.79-4.72,27.59-14,40.31
				c-8.6,11.8-21.05,22.65-37.23,31.99c-32.88,18.98-76.04,28.77-119.97,28.77c-43.93,0-87.09-9.78-119.97-28.77
				c-16.18-9.34-28.63-20.18-37.23-31.99c-9.28-12.71-14-26.52-14-40.31c0-13.79,4.72-27.59,14-40.31
				C107.7,339.32,120.15,328.48,136.34,319.13z"/>
			<path class="st23" d="M136.72,319.69c32.8-18.94,75.85-28.66,119.58-28.66c43.73,0,86.79,9.73,119.58,28.67
				c16.08,9.28,28.44,20.04,36.98,31.74c9.23,12.63,13.92,26.32,13.92,40c0,13.68-4.69,27.37-13.92,40
				c-8.54,11.69-20.9,22.45-36.98,31.74c-32.8,18.94-75.85,28.66-119.58,28.66c-43.73,0-86.79-9.73-119.58-28.67
				c-16.08-9.28-28.44-20.04-36.98-31.74c-9.23-12.63-13.92-26.32-13.92-40c0-13.68,4.69-27.37,13.92-40
				C108.28,339.74,120.64,328.98,136.72,319.69z"/>
			<path class="st24" d="M137.11,320.25c32.72-18.89,75.66-28.56,119.2-28.56c43.53,0,86.48,9.67,119.2,28.56
				c15.98,9.22,28.25,19.9,36.72,31.48c9.19,12.55,13.85,26.12,13.85,39.69c0,13.57-4.66,27.15-13.85,39.69
				c-8.47,11.58-20.74,22.26-36.72,31.49c-32.72,18.89-75.66,28.56-119.2,28.56c-43.53,0-86.48-9.67-119.2-28.56
				c-15.98-9.22-28.25-19.9-36.72-31.48C91.2,418.58,86.54,405,86.54,391.43c0-13.57,4.66-27.15,13.85-39.69
				C108.86,340.16,121.13,329.48,137.11,320.25z"/>
			<path class="st25" d="M137.49,320.81c32.64-18.85,75.47-28.46,118.81-28.46c43.34,0,86.17,9.62,118.81,28.46
				c15.88,9.17,28.06,19.77,36.47,31.23c9.14,12.46,13.77,25.93,13.77,39.38c0,13.46-4.63,26.92-13.77,39.39
				c-8.41,11.47-20.59,22.07-36.47,31.23c-32.64,18.85-75.47,28.46-118.81,28.46c-43.34,0-86.17-9.62-118.81-28.46
				c-15.88-9.17-28.06-19.77-36.47-31.23c-9.14-12.46-13.77-25.93-13.77-39.38c0-13.46,4.63-26.92,13.77-39.39
				C109.43,340.58,121.61,329.98,137.49,320.81z"/>
			<path class="st26" d="M137.88,321.37c32.56-18.8,75.28-28.36,118.43-28.36c43.14,0,85.87,9.56,118.43,28.36
				c15.77,9.11,27.87,19.63,36.21,30.98c9.1,12.38,13.7,25.73,13.7,39.07c0,13.35-4.6,26.7-13.7,39.08
				c-8.34,11.36-20.44,21.87-36.21,30.98c-32.56,18.8-75.28,28.36-118.43,28.36c-43.14,0-85.87-9.56-118.43-28.36
				c-15.77-9.11-27.87-19.63-36.21-30.98c-9.1-12.38-13.7-25.73-13.7-39.07c0-13.35,4.6-26.7,13.7-39.08
				C110.01,341,122.1,330.48,137.88,321.37z"/>
			<path class="st27" d="M138.26,321.93c32.48-18.75,75.09-28.26,118.04-28.26c42.95,0,85.56,9.51,118.04,28.26
				c15.67,9.05,27.68,19.49,35.95,30.73c9.06,12.29,13.62,25.53,13.62,38.77c0,13.24-4.57,26.48-13.62,38.77
				c-8.28,11.24-20.28,21.68-35.96,30.73c-32.48,18.75-75.09,28.26-118.04,28.26c-42.95,0-85.56-9.51-118.04-28.26
				c-15.67-9.05-27.68-19.49-35.95-30.73c-9.06-12.29-13.62-25.53-13.62-38.77c0-13.24,4.57-26.48,13.62-38.77
				C110.58,341.42,122.59,330.98,138.26,321.93z"/>
			<path class="st28" d="M138.65,322.49c32.41-18.71,74.91-28.16,117.66-28.16c42.75,0,85.25,9.45,117.66,28.16
				c15.57,8.99,27.48,19.35,35.7,30.48c9.01,12.21,13.55,25.34,13.55,38.46c0,13.12-4.53,26.25-13.55,38.46
				c-8.22,11.13-20.13,21.49-35.7,30.48c-32.41,18.71-74.9,28.16-117.66,28.16c-42.75,0-85.25-9.45-117.66-28.16
				c-15.57-8.99-27.48-19.35-35.7-30.48c-9.01-12.21-13.55-25.34-13.55-38.46c0-13.12,4.53-26.25,13.55-38.46
				C111.16,341.84,123.07,331.48,138.65,322.49z"/>
			<path class="st29" d="M139.03,323.05c32.33-18.66,74.72-28.06,117.27-28.06c42.56,0,84.95,9.4,117.27,28.06
				c15.47,8.93,27.29,19.21,35.44,30.23c8.97,12.12,13.47,25.14,13.47,38.15c0,13.01-4.5,26.03-13.47,38.16
				c-8.15,11.02-19.97,21.3-35.44,30.23c-32.33,18.66-74.72,28.06-117.27,28.06c-42.56,0-84.95-9.4-117.27-28.06
				c-15.47-8.93-27.29-19.21-35.44-30.23c-8.97-12.12-13.47-25.14-13.47-38.15c0-13.01,4.5-26.03,13.47-38.16
				C111.74,342.26,123.56,331.98,139.03,323.05z"/>
			<path class="st30" d="M139.42,323.61c32.25-18.62,74.53-27.96,116.89-27.96c42.36,0,84.64,9.34,116.89,27.96
				c15.37,8.87,27.1,19.07,35.19,29.98c8.93,12.04,13.4,24.94,13.4,37.84c0,12.9-4.47,25.81-13.4,37.85
				c-8.09,10.91-19.82,21.1-35.19,29.98c-32.25,18.62-74.53,27.96-116.89,27.96c-42.36,0-84.64-9.34-116.89-27.96
				c-15.37-8.87-27.1-19.07-35.19-29.98c-8.93-12.04-13.4-24.94-13.4-37.84c0-12.9,4.47-25.81,13.4-37.85
				C112.31,342.68,124.05,332.48,139.42,323.61z"/>
			<ellipse class="st31" cx="256.3" cy="391.43" rx="164.76" ry="95.12"/>
		</g>
		<linearGradient id="SVGID_1_" gradientUnits="userSpaceOnUse" x1="81.5401" y1="425.1347" x2="431.0677" y2="425.1347">
			<stop  offset="0" style="stop-color:#B9B7E8"/>
			<stop  offset="0.0272" style="stop-color:#BBB8E9"/>
			<stop  offset="0.037" style="stop-color:#C2BDED"/>
			<stop  offset="0.0439" style="stop-color:#CDC6F4"/>
			<stop  offset="0.0495" style="stop-color:#DED2FE"/>
			<stop  offset="0.05" style="stop-color:#E0D3FF"/>
			<stop  offset="0.0511" style="stop-color:#DED0FE"/>
			<stop  offset="0.0662" style="stop-color:#C7B1F7"/>
			<stop  offset="0.083" style="stop-color:#B396F1"/>
			<stop  offset="0.1022" style="stop-color:#A380EC"/>
			<stop  offset="0.1247" style="stop-color:#966FE8"/>
			<stop  offset="0.1526" style="stop-color:#8D64E5"/>
			<stop  offset="0.1916" style="stop-color:#885DE3"/>
			<stop  offset="0.3" style="stop-color:#875BE3"/>
			<stop  offset="0.3152" style="stop-color:#9869E6"/>
			<stop  offset="0.3352" style="stop-color:#A676E9"/>
			<stop  offset="0.3595" style="stop-color:#AE7DEB"/>
			<stop  offset="0.4" style="stop-color:#B17FEB"/>
			<stop  offset="0.4815" style="stop-color:#AF7CEB"/>
			<stop  offset="0.5306" style="stop-color:#A974ED"/>
			<stop  offset="0.571" style="stop-color:#9F66EF"/>
			<stop  offset="0.6068" style="stop-color:#9052F2"/>
			<stop  offset="0.6391" style="stop-color:#7E38F6"/>
			<stop  offset="0.65" style="stop-color:#762DF8"/>
			<stop  offset="0.8" style="stop-color:#A673E6"/>
			<stop  offset="0.818" style="stop-color:#A270E3"/>
			<stop  offset="0.8366" style="stop-color:#9566D9"/>
			<stop  offset="0.8556" style="stop-color:#8156C8"/>
			<stop  offset="0.8747" style="stop-color:#643FB0"/>
			<stop  offset="0.8938" style="stop-color:#3F2292"/>
			<stop  offset="0.9" style="stop-color:#311787"/>
			<stop  offset="1" style="stop-color:#8228FF"/>
		</linearGradient>
		<path class="st32" d="M379.88,457.82c-68.25,39.4-178.9,39.4-247.15,0c-34.12-19.7-51.19-45.52-51.19-71.35V362.9h349.53v23.57
			C431.07,412.29,414.01,438.11,379.88,457.82z"/>
		<g class="st33">
			<g>
				<path class="st34" d="M431.07,375.77c0.02,2.3-0.04,4.6-0.28,6.89c-0.26,2.29-0.58,4.57-1.1,6.82l-0.18,0.85l-0.21,0.84
					l-0.43,1.68c-0.34,1.1-0.63,2.22-1.03,3.31c-0.71,2.2-1.61,4.33-2.55,6.44c-1.95,4.19-4.25,8.22-6.92,11.99
					c-2.66,3.78-5.61,7.36-8.8,10.7c-6.39,6.68-13.64,12.5-21.34,17.58c-3.85,2.54-7.81,4.92-11.88,7.08
					c-1.02,0.55-2.01,1.13-3.04,1.64l-3.1,1.53l-3.1,1.53c-1.05,0.48-2.1,0.94-3.15,1.42c-8.41,3.78-17.07,6.99-25.88,9.68
					c-8.82,2.66-17.79,4.82-26.83,6.53l-3.4,0.63l-1.7,0.31l-1.71,0.26c-2.28,0.35-4.55,0.72-6.83,1.05l-6.85,0.86
					c-1.14,0.16-2.29,0.24-3.43,0.36l-3.44,0.33c-9.17,0.82-18.37,1.24-27.58,1.26c-9.2-0.04-18.41-0.46-27.57-1.31l-3.43-0.34
					c-1.14-0.12-2.29-0.21-3.43-0.37l-6.85-0.88c-2.28-0.34-4.55-0.71-6.82-1.07l-1.7-0.27l-1.7-0.32l-3.39-0.64
					c-9.04-1.75-17.99-3.93-26.79-6.62c-8.8-2.71-17.43-5.95-25.82-9.75c-1.05-0.48-2.1-0.94-3.14-1.42l-3.09-1.54l-3.09-1.54
					c-1.03-0.52-2.02-1.1-3.03-1.65c-4.06-2.17-8.01-4.55-11.84-7.1c-7.66-5.09-14.89-10.89-21.26-17.54
					c-3.18-3.33-6.13-6.88-8.8-10.63c-2.68-3.75-4.99-7.74-6.96-11.9c-3.9-8.33-6.1-17.49-6.04-26.68c0.04,2.3,0.16,4.59,0.45,6.87
					c0.3,2.27,0.67,4.54,1.23,6.77l0.2,0.84l0.23,0.83l0.46,1.66c0.36,1.09,0.67,2.19,1.09,3.26c0.76,2.16,1.67,4.27,2.64,6.35
					c2,4.13,4.33,8.09,7.03,11.79c2.68,3.71,5.65,7.22,8.84,10.51c6.4,6.56,13.63,12.28,21.3,17.28c3.84,2.5,7.78,4.84,11.83,6.99
					c1.01,0.54,2,1.11,3.03,1.63l3.08,1.52l3.08,1.52c1.04,0.48,2.09,0.93,3.14,1.4c8.36,3.74,16.98,6.92,25.75,9.58
					c8.78,2.63,17.71,4.76,26.71,6.46l3.38,0.62l1.69,0.31l1.7,0.26c2.27,0.34,4.53,0.71,6.8,1.03l6.82,0.84
					c1.14,0.16,2.28,0.24,3.42,0.35l3.42,0.33c9.13,0.8,18.29,1.23,27.46,1.24c9.16-0.04,18.33-0.46,27.45-1.29l3.42-0.34
					c1.14-0.12,2.28-0.2,3.42-0.36l6.82-0.87c2.27-0.33,4.53-0.7,6.79-1.05l1.7-0.27l1.69-0.31l3.38-0.63
					c9-1.73,17.91-3.89,26.67-6.54c8.75-2.68,17.35-5.89,25.69-9.65c1.04-0.47,2.09-0.93,3.13-1.41l3.07-1.53l3.07-1.53
					c1.02-0.52,2.01-1.09,3.01-1.64c4.03-2.16,7.97-4.49,11.79-7c3.82-2.5,7.52-5.19,11.08-8.06c3.56-2.86,6.96-5.92,10.14-9.18
					c3.17-3.28,6.15-6.74,8.84-10.44c2.69-3.68,5.05-7.61,7.07-11.7c0.97-2.06,1.91-4.15,2.68-6.3c0.42-1.06,0.75-2.16,1.11-3.24
					l0.48-1.65l0.24-0.82l0.2-0.83C430.35,384.93,430.94,380.36,431.07,375.77z"/>
			</g>
		</g>
		<linearGradient id="SVGID_2_" gradientUnits="userSpaceOnUse" x1="81.5401" y1="379.2314" x2="431.0677" y2="379.2314">
			<stop  offset="0" style="stop-color:#B9A1E8"/>
			<stop  offset="0.0272" style="stop-color:#BBA2E9"/>
			<stop  offset="0.037" style="stop-color:#C2A7ED"/>
			<stop  offset="0.0439" style="stop-color:#CDAFF4"/>
			<stop  offset="0.0495" style="stop-color:#DEBAFE"/>
			<stop  offset="0.05" style="stop-color:#E0BBFF"/>
			<stop  offset="0.0577" style="stop-color:#DCB1FF"/>
			<stop  offset="0.079" style="stop-color:#D49BFF"/>
			<stop  offset="0.1041" style="stop-color:#CE8AFF"/>
			<stop  offset="0.1352" style="stop-color:#C97FFF"/>
			<stop  offset="0.1789" style="stop-color:#C778FF"/>
			<stop  offset="0.3" style="stop-color:#C676FF"/>
			<stop  offset="0.3065" style="stop-color:#CC87FF"/>
			<stop  offset="0.3191" style="stop-color:#D4A1FE"/>
			<stop  offset="0.3331" style="stop-color:#DBB5FE"/>
			<stop  offset="0.3489" style="stop-color:#E0C3FD"/>
			<stop  offset="0.3681" style="stop-color:#E3CBFD"/>
			<stop  offset="0.4" style="stop-color:#E4CEFD"/>
			<stop  offset="0.4656" style="stop-color:#E3CBFD"/>
			<stop  offset="0.5051" style="stop-color:#E0C3FD"/>
			<stop  offset="0.5377" style="stop-color:#DAB5FC"/>
			<stop  offset="0.5664" style="stop-color:#D2A0FC"/>
			<stop  offset="0.5928" style="stop-color:#C786FB"/>
			<stop  offset="0.6173" style="stop-color:#BA66FA"/>
			<stop  offset="0.6399" style="stop-color:#AB40F9"/>
			<stop  offset="0.65" style="stop-color:#A32DF8"/>
			<stop  offset="0.8" style="stop-color:#D2A9FF"/>
			<stop  offset="0.8175" style="stop-color:#D0A5FF"/>
			<stop  offset="0.8355" style="stop-color:#CA98FF"/>
			<stop  offset="0.8539" style="stop-color:#BF84FF"/>
			<stop  offset="0.8725" style="stop-color:#B167FF"/>
			<stop  offset="0.8911" style="stop-color:#9E42FF"/>
			<stop  offset="0.9" style="stop-color:#942DFF"/>
			<stop  offset="1" style="stop-color:#A928FF"/>
		</linearGradient>
		<path class="st35" d="M379.88,434.96c-68.25,39.4-178.9,39.4-247.15,0c-34.12-19.7-51.19-45.52-51.19-71.35v-69.66h349.53v69.66
			C431.07,389.43,414.01,415.26,379.88,434.96z"/>
		<linearGradient id="SVGID_3_" gradientUnits="userSpaceOnUse" x1="81.5401" y1="326.5536" x2="431.0677" y2="326.5536">
			<stop  offset="0" style="stop-color:#B9B7E8"/>
			<stop  offset="0.0272" style="stop-color:#BBB8E9"/>
			<stop  offset="0.037" style="stop-color:#C2BDED"/>
			<stop  offset="0.0439" style="stop-color:#CDC6F4"/>
			<stop  offset="0.0495" style="stop-color:#DED2FE"/>
			<stop  offset="0.05" style="stop-color:#E0D3FF"/>
			<stop  offset="0.0511" style="stop-color:#DED0FE"/>
			<stop  offset="0.0662" style="stop-color:#C7B1F7"/>
			<stop  offset="0.083" style="stop-color:#B396F1"/>
			<stop  offset="0.1022" style="stop-color:#A380EC"/>
			<stop  offset="0.1247" style="stop-color:#966FE8"/>
			<stop  offset="0.1526" style="stop-color:#8D64E5"/>
			<stop  offset="0.1916" style="stop-color:#885DE3"/>
			<stop  offset="0.3" style="stop-color:#875BE3"/>
			<stop  offset="0.3152" style="stop-color:#9869E6"/>
			<stop  offset="0.3352" style="stop-color:#A676E9"/>
			<stop  offset="0.3595" style="stop-color:#AE7DEB"/>
			<stop  offset="0.4" style="stop-color:#B17FEB"/>
			<stop  offset="0.4815" style="stop-color:#AF7CEB"/>
			<stop  offset="0.5306" style="stop-color:#A974ED"/>
			<stop  offset="0.571" style="stop-color:#9F66EF"/>
			<stop  offset="0.6068" style="stop-color:#9052F2"/>
			<stop  offset="0.6391" style="stop-color:#7E38F6"/>
			<stop  offset="0.65" style="stop-color:#762DF8"/>
			<stop  offset="0.8" style="stop-color:#A673E6"/>
			<stop  offset="0.818" style="stop-color:#A270E3"/>
			<stop  offset="0.8366" style="stop-color:#9566D9"/>
			<stop  offset="0.8556" style="stop-color:#8156C8"/>
			<stop  offset="0.8747" style="stop-color:#643FB0"/>
			<stop  offset="0.8938" style="stop-color:#3F2292"/>
			<stop  offset="0.9" style="stop-color:#311787"/>
			<stop  offset="1" style="stop-color:#8228FF"/>
		</linearGradient>
		<path class="st36" d="M379.88,359.23c-68.25,39.4-178.9,39.4-247.15,0c-34.12-19.7-51.19-45.52-51.19-71.35v-23.57h349.53v23.57
			C431.07,313.71,414.01,339.53,379.88,359.23z"/>
		<g>
			<g>
				
					<linearGradient id="SVGID_4_" gradientUnits="userSpaceOnUse" x1="-450.2727" y1="-373.6714" x2="-246.4118" y2="-550.2202" gradientTransform="matrix(0.866 0.5 -1 0.5774 96.0312 705.1962)">
					<stop  offset="0" style="stop-color:#7E2BF7"/>
					<stop  offset="0.0244" style="stop-color:#8F41F9"/>
					<stop  offset="0.0617" style="stop-color:#A45BFB"/>
					<stop  offset="0.1029" style="stop-color:#B46FFD"/>
					<stop  offset="0.1495" style="stop-color:#BF7DFE"/>
					<stop  offset="0.206" style="stop-color:#C685FF"/>
					<stop  offset="0.3" style="stop-color:#C888FF"/>
					<stop  offset="0.5005" style="stop-color:#D695F9"/>
					<stop  offset="0.7" style="stop-color:#DF9DF5"/>
					<stop  offset="1" style="stop-color:#8F59F7"/>
				</linearGradient>
				<ellipse class="st37" cx="256.3" cy="264.32" rx="174.76" ry="100.9"/>
			</g>
		</g>
		<g class="st33">
			<g>
				<path class="st34" d="M431.07,277.19c0.02,2.3-0.04,4.6-0.28,6.89c-0.26,2.29-0.58,4.57-1.1,6.82l-0.18,0.85l-0.21,0.84
					l-0.43,1.68c-0.34,1.1-0.63,2.22-1.03,3.31c-0.71,2.2-1.61,4.33-2.55,6.44c-1.95,4.19-4.25,8.22-6.92,11.99
					c-2.66,3.78-5.61,7.36-8.8,10.7c-6.39,6.68-13.64,12.5-21.34,17.58c-3.85,2.54-7.81,4.92-11.88,7.08
					c-1.02,0.55-2.01,1.13-3.04,1.64l-3.1,1.53l-3.1,1.53c-1.05,0.48-2.1,0.94-3.15,1.42c-8.41,3.78-17.07,6.99-25.88,9.68
					c-8.82,2.66-17.79,4.82-26.83,6.53l-3.4,0.63l-1.7,0.31l-1.71,0.26c-2.28,0.35-4.55,0.72-6.83,1.05l-6.85,0.86
					c-1.14,0.16-2.29,0.24-3.43,0.36l-3.44,0.33c-9.17,0.82-18.37,1.24-27.58,1.26c-9.2-0.04-18.41-0.46-27.57-1.31l-3.43-0.34
					c-1.14-0.12-2.29-0.21-3.43-0.37l-6.85-0.88c-2.28-0.34-4.55-0.71-6.82-1.07l-1.7-0.27l-1.7-0.32l-3.39-0.64
					c-9.04-1.75-17.99-3.93-26.79-6.62c-8.8-2.71-17.43-5.95-25.82-9.75c-1.05-0.48-2.1-0.94-3.14-1.42l-3.09-1.54l-3.09-1.54
					c-1.03-0.52-2.02-1.1-3.03-1.65c-4.06-2.17-8.01-4.55-11.84-7.1c-7.66-5.09-14.89-10.89-21.26-17.54
					c-3.18-3.33-6.13-6.88-8.8-10.63c-2.68-3.75-4.99-7.74-6.96-11.9c-3.9-8.33-6.1-17.49-6.04-26.68c0.04,2.3,0.16,4.59,0.45,6.87
					c0.3,2.27,0.67,4.54,1.23,6.77l0.2,0.84l0.23,0.83l0.46,1.66c0.36,1.09,0.67,2.19,1.09,3.26c0.76,2.16,1.67,4.27,2.64,6.35
					c2,4.13,4.33,8.09,7.03,11.79c2.68,3.71,5.65,7.22,8.84,10.51c6.4,6.56,13.63,12.28,21.3,17.28c3.84,2.5,7.78,4.84,11.83,6.99
					c1.01,0.54,2,1.11,3.03,1.63l3.08,1.52l3.08,1.52c1.04,0.48,2.09,0.93,3.14,1.4c8.36,3.74,16.98,6.92,25.75,9.58
					c8.78,2.63,17.71,4.76,26.71,6.46l3.38,0.62l1.69,0.31l1.7,0.26c2.27,0.34,4.53,0.71,6.8,1.03l6.82,0.84
					c1.14,0.16,2.28,0.24,3.42,0.35l3.42,0.33c9.13,0.8,18.29,1.23,27.46,1.24c9.16-0.04,18.33-0.46,27.45-1.29l3.42-0.34
					c1.14-0.12,2.28-0.2,3.42-0.36l6.82-0.87c2.27-0.33,4.53-0.7,6.79-1.05l1.7-0.27l1.69-0.31l3.38-0.63
					c9-1.73,17.91-3.89,26.67-6.54c8.75-2.68,17.35-5.89,25.69-9.65c1.04-0.47,2.09-0.93,3.13-1.41l3.07-1.53l3.07-1.53
					c1.02-0.52,2.01-1.09,3.01-1.64c4.03-2.16,7.97-4.49,11.79-7c3.82-2.5,7.52-5.19,11.08-8.06c3.56-2.86,6.96-5.92,10.14-9.18
					c3.17-3.28,6.15-6.74,8.84-10.44c2.69-3.68,5.05-7.61,7.07-11.7c0.97-2.06,1.91-4.15,2.68-6.3c0.42-1.06,0.75-2.16,1.11-3.24
					l0.48-1.65l0.24-0.82l0.2-0.83C430.35,286.35,430.94,281.78,431.07,277.19z"/>
			</g>
		</g>
		<g class="st38">
			<path class="st34" d="M367.18,200.3c-61.24-35.36-160.52-35.36-221.76,0c-61.24,35.36-61.24,92.68,0,128.03
				s160.52,35.36,221.76,0C428.42,292.98,428.42,235.66,367.18,200.3z M364.16,326.59c-14.56,8.41-31.54,14.92-50.46,19.35
				c-18.28,4.28-37.59,6.45-57.4,6.45c-19.81,0-39.13-2.17-57.4-6.45c-18.92-4.43-35.89-10.94-50.46-19.35
				c-14.56-8.41-25.84-18.21-33.51-29.13c-7.41-10.55-11.17-21.7-11.17-33.14c0-11.44,3.76-22.59,11.17-33.14
				c7.67-10.92,18.95-20.72,33.51-29.13c14.56-8.41,31.54-14.92,50.46-19.35c18.28-4.28,37.59-6.45,57.4-6.45
				c19.81,0,39.13,2.17,57.4,6.45c18.92,4.43,35.89,10.94,50.46,19.35c14.56,8.41,25.84,18.21,33.51,29.13
				c7.41,10.55,11.17,21.7,11.17,33.14c0,11.44-3.76,22.59-11.17,33.14C390,308.38,378.72,318.18,364.16,326.59z"/>
			<path class="st34" d="M279.12,251.15c-12.6-7.28-33.04-7.28-45.64,0c-12.6,7.28-12.6,19.07,0,26.35c12.6,7.28,33.04,7.28,45.64,0
				C291.73,270.22,291.73,258.42,279.12,251.15z M276.1,275.75c-10.92,6.3-28.68,6.3-39.59,0c-10.92-6.3-10.92-16.56,0-22.86
				c10.92-6.3,28.68-6.3,39.59,0C287.02,259.19,287.02,269.45,276.1,275.75z"/>
			<g>
				<path class="st34" d="M162.57,318.56l-0.11-0.06c-0.92-0.53-1.84-1.08-2.74-1.63l27.32-14.88c0.63,0.38,1.27,0.77,1.92,1.14
					c0.03,0.02,0.06,0.04,0.09,0.05l-26.56,15.33c0.06,0.03,0.12,0.07,0.17,0.1L162.57,318.56z M175.79,310.86l-13.28,7.67
					c0,0,0,0,0,0L175.79,310.86z M171.37,323.2l24.06-16.65c0.73,0.35,1.48,0.7,2.23,1.04l-23.19,17.06
					C173.44,324.18,172.39,323.69,171.37,323.2z M151.89,311.62c-0.82-0.6-1.64-1.22-2.43-1.84l30.21-12.88
					c0.57,0.44,1.15,0.89,1.74,1.32L151.89,311.62z M184.27,328.69l20.41-18.21c0.8,0.3,1.62,0.6,2.44,0.88l-19.45,18.55
					C186.54,329.52,185.39,329.11,184.27,328.69z M142.76,304.02c-0.69-0.66-1.37-1.33-2.03-2l32.69-10.68
					c0.47,0.48,0.96,0.96,1.45,1.43L142.76,304.02z M198.24,333.24l16.44-19.5c0.85,0.24,1.72,0.47,2.59,0.7l-15.39,19.78
					C200.66,333.9,199.43,333.57,198.24,333.24z M135.3,295.82c-0.55-0.7-1.08-1.42-1.6-2.13l34.7-8.31
					c0.37,0.51,0.75,1.02,1.14,1.53L135.3,295.82z M213.06,336.77l12.21-20.51c0.9,0.18,1.82,0.35,2.73,0.51l-11.14,20.71
					C215.59,337.26,214.31,337.02,213.06,336.77z M129.6,287.16c-0.4-0.74-0.78-1.49-1.14-2.23l36.19-5.81
					c0.26,0.53,0.53,1.07,0.81,1.59L129.6,287.16z M228.49,339.25l7.84-21.21c0.94,0.12,1.89,0.22,2.82,0.32l-6.73,21.33
					C231.12,339.56,229.8,339.41,228.49,339.25z M125.77,278.17c-0.24-0.75-0.46-1.52-0.66-2.28l37.13-3.26
					c0.14,0.55,0.3,1.1,0.48,1.64L125.77,278.17z M244.32,340.63l3.38-21.6c0.95,0.05,1.91,0.09,2.87,0.12l-2.25,21.65
					C246.98,340.75,245.64,340.7,244.32,340.63z M123.84,268.99c-0.08-0.77-0.14-1.54-0.18-2.31l37.54-0.66
					c0.03,0.55,0.07,1.11,0.13,1.66L123.84,268.99z M260.32,340.9l-1.13-21.68c0.95-0.02,1.92-0.04,2.87-0.07l2.26,21.65
					C262.99,340.85,261.65,340.88,260.32,340.9z M123.83,259.75c0.08-0.77,0.18-1.54,0.3-2.3l37.41,1.94
					c-0.09,0.55-0.16,1.11-0.21,1.65L123.83,259.75z M276.27,340.07l-5.62-21.44c0.94-0.08,1.9-0.17,2.84-0.27l6.74,21.33
					C278.91,339.83,277.58,339.96,276.27,340.07z M125.74,250.57c0.24-0.75,0.5-1.52,0.77-2.27l36.74,4.52
					c-0.2,0.54-0.39,1.09-0.56,1.63L125.74,250.57z M291.94,338.14l-10.05-20.89c0.92-0.15,1.85-0.31,2.76-0.47l11.15,20.71
					C294.52,337.71,293.22,337.93,291.94,338.14z M129.55,241.59c0.39-0.73,0.81-1.47,1.24-2.2l35.52,7.04
					c-0.31,0.52-0.61,1.05-0.89,1.57L129.55,241.59z M307.11,335.12l-14.37-20.04c0.89-0.21,1.78-0.43,2.65-0.66l15.41,19.78
					C309.58,334.52,308.34,334.83,307.11,335.12z M135.21,232.93c0.55-0.7,1.12-1.41,1.7-2.1l33.78,9.48c-0.42,0.49-0.82,1-1.21,1.5
					L135.21,232.93z M321.54,331.06l-18.48-18.88c0.83-0.27,1.66-0.55,2.48-0.84L325,329.89
					C323.86,330.29,322.69,330.69,321.54,331.06z M142.65,224.73c0.69-0.66,1.4-1.32,2.13-1.96l31.54,11.77
					c-0.52,0.46-1.03,0.94-1.52,1.41L142.65,224.73z M334.99,326.03l-22.3-17.45c0.77-0.33,1.54-0.67,2.29-1.01l23.21,17.05
					C337.14,325.1,336.06,325.57,334.99,326.03z M151.76,217.11c0.82-0.6,1.67-1.21,2.52-1.8l28.85,13.89
					c-0.61,0.42-1.22,0.86-1.81,1.29L151.76,217.11z M347.27,320.11l-25.76-15.78c0.69-0.38,1.39-0.77,2.07-1.16l0.15-0.08
					l26.61,15.3l-0.2,0.12C349.2,319.04,348.24,319.58,347.27,320.11z M188.94,225.53l-26.56-15.33l0.09-0.05
					c0.91-0.52,1.84-1.04,2.76-1.55l25.79,15.77c-0.67,0.37-1.34,0.74-1.99,1.12L188.94,225.53z M329.54,299.39
					c0.61-0.42,1.22-0.86,1.8-1.29l29.59,13.36c-0.82,0.6-1.66,1.21-2.52,1.8L329.54,299.39z M197.55,221.1l-23.24-17.04
					c1.05-0.48,2.12-0.95,3.19-1.4l22.33,17.44C199.07,220.42,198.3,220.76,197.55,221.1z M336.34,294.05
					c0.52-0.46,1.03-0.93,1.52-1.41l32.17,11.2c-0.69,0.66-1.4,1.32-2.12,1.96L336.34,294.05z M206.98,217.33l-19.5-18.54
					c1.14-0.4,2.3-0.79,3.46-1.17l18.51,18.87C208.63,216.76,207.8,217.04,206.98,217.33z M341.96,288.28c0.41-0.49,0.82-1,1.21-1.5
					l34.29,8.86c-0.54,0.7-1.12,1.41-1.7,2.1L341.96,288.28z M217.13,214.24l-15.45-19.77c1.21-0.32,2.45-0.63,3.69-0.92
					l14.41,20.03C218.89,213.79,218,214.01,217.13,214.24z M346.32,282.15c0.31-0.52,0.61-1.05,0.89-1.57l35.89,6.4
					c-0.39,0.73-0.81,1.47-1.24,2.19L346.32,282.15z M227.87,211.88l-11.19-20.7c1.27-0.23,2.57-0.45,3.85-0.66l10.09,20.89
					C229.71,211.56,228.78,211.72,227.87,211.88z M349.38,275.77c0.2-0.54,0.38-1.09,0.55-1.63l36.96,3.85
					c-0.24,0.75-0.49,1.52-0.77,2.27L349.38,275.77z M239.03,210.29l-6.78-21.33c1.31-0.14,2.64-0.27,3.96-0.38l5.66,21.44
					C240.92,210.1,239.97,210.19,239.03,210.29z M351.08,269.2c0.08-0.55,0.15-1.1,0.21-1.65l37.5,1.26
					c-0.08,0.77-0.18,1.54-0.29,2.31L351.08,269.2z M250.44,209.49l-2.3-21.65c1.33-0.05,2.67-0.08,4-0.11l1.17,21.68
					C252.36,209.43,251.4,209.46,250.44,209.49z M351.4,262.57c-0.03-0.55-0.08-1.11-0.13-1.66l37.49-1.34
					c0.08,0.77,0.14,1.54,0.19,2.31L351.4,262.57z M261.95,209.48l2.21-21.65c1.33,0.05,2.67,0.1,3.99,0.17l-3.34,21.6
					C263.86,209.56,262.9,209.52,261.95,209.48z M350.35,255.95c-0.14-0.54-0.3-1.09-0.48-1.64l36.94-3.93
					c0.24,0.76,0.47,1.53,0.67,2.29L350.35,255.95z M273.36,210.27l6.69-21.34c1.3,0.14,2.63,0.29,3.93,0.45l-7.8,21.21
					C275.24,210.48,274.3,210.37,273.36,210.27z M347.93,249.47c-0.26-0.53-0.53-1.07-0.82-1.59l35.85-6.47
					c0.4,0.73,0.78,1.48,1.14,2.22L347.93,249.47z M284.52,211.84l11.1-20.72c1.27,0.23,2.55,0.47,3.8,0.72l-12.18,20.51
					C286.34,212.18,285.42,212.01,284.52,211.84z M344.17,243.2c-0.37-0.51-0.75-1.02-1.14-1.52l34.23-8.93
					c0.55,0.7,1.09,1.42,1.6,2.13L344.17,243.2z M295.24,214.18l15.36-19.79c1.21,0.31,2.44,0.64,3.63,0.98l-16.39,19.51
					C296.99,214.64,296.11,214.4,295.24,214.18z M339.13,237.25c-0.47-0.48-0.96-0.96-1.45-1.43l32.1-11.26
					c0.69,0.66,1.38,1.33,2.03,2L339.13,237.25z M305.41,217.25l19.41-18.57c1.14,0.4,2.29,0.81,3.4,1.23l-20.38,18.22
					C307.04,217.83,306.22,217.53,305.41,217.25z M332.87,231.7c-0.57-0.44-1.16-0.89-1.74-1.32l29.5-13.42
					c0.82,0.6,1.64,1.22,2.43,1.84L332.87,231.7z M314.85,221.01l23.15-17.07c1.05,0.47,2.1,0.96,3.12,1.45l-24.04,16.66
					C316.36,221.7,315.6,221.35,314.85,221.01z M325.49,226.61c-0.62-0.38-1.26-0.76-1.9-1.13l-0.09-0.05l26.49-15.38l0.17,0.1
					c0.89,0.51,1.77,1.04,2.64,1.57L325.49,226.61z"/>
			</g>
		</g>
		<g>
			<g>
				<linearGradient id="SVGID_5_" gradientUnits="userSpaceOnUse" x1="144.1687" y1="288.6259" x2="265.1879" y2="288.6259">
					<stop  offset="0" style="stop-color:#B9B7E8"/>
					<stop  offset="0.0272" style="stop-color:#BBB8E9"/>
					<stop  offset="0.037" style="stop-color:#C2BDED"/>
					<stop  offset="0.0439" style="stop-color:#CDC6F4"/>
					<stop  offset="0.0495" style="stop-color:#DED2FE"/>
					<stop  offset="0.05" style="stop-color:#E0D3FF"/>
					<stop  offset="0.0511" style="stop-color:#DED0FE"/>
					<stop  offset="0.0662" style="stop-color:#C7B1F7"/>
					<stop  offset="0.083" style="stop-color:#B396F1"/>
					<stop  offset="0.1022" style="stop-color:#A380EC"/>
					<stop  offset="0.1247" style="stop-color:#966FE8"/>
					<stop  offset="0.1526" style="stop-color:#8D64E5"/>
					<stop  offset="0.1916" style="stop-color:#885DE3"/>
					<stop  offset="0.3" style="stop-color:#875BE3"/>
					<stop  offset="0.3152" style="stop-color:#9869E6"/>
					<stop  offset="0.3352" style="stop-color:#A676E9"/>
					<stop  offset="0.3595" style="stop-color:#AE7DEB"/>
					<stop  offset="0.4" style="stop-color:#B17FEB"/>
					<stop  offset="0.4815" style="stop-color:#AF7CEB"/>
					<stop  offset="0.5306" style="stop-color:#A974ED"/>
					<stop  offset="0.571" style="stop-color:#9F66EF"/>
					<stop  offset="0.6068" style="stop-color:#9052F2"/>
					<stop  offset="0.6391" style="stop-color:#7E38F6"/>
					<stop  offset="0.65" style="stop-color:#762DF8"/>
					<stop  offset="0.8" style="stop-color:#A673E6"/>
					<stop  offset="0.818" style="stop-color:#A270E3"/>
					<stop  offset="0.8366" style="stop-color:#9566D9"/>
					<stop  offset="0.8556" style="stop-color:#8156C8"/>
					<stop  offset="0.8747" style="stop-color:#643FB0"/>
					<stop  offset="0.8938" style="stop-color:#3F2292"/>
					<stop  offset="0.9" style="stop-color:#311787"/>
					<stop  offset="1" style="stop-color:#8228FF"/>
				</linearGradient>
				<path class="st39" d="M265.19,298.82l-15.56,8.98l-50.38-14.93l24.35,13.46v16.5l-15.56,8.98l-63.88-36.88v-16.5l15.56-8.98
					l65.6,15.34l-39.58-13.86v-16.5l15.56-8.98l63.88,36.88V298.82z"/>
				<linearGradient id="SVGID_6_" gradientUnits="userSpaceOnUse" x1="212.5949" y1="253.6117" x2="292.0306" y2="253.6117">
					<stop  offset="0" style="stop-color:#B9B7E8"/>
					<stop  offset="0.0272" style="stop-color:#BBB8E9"/>
					<stop  offset="0.037" style="stop-color:#C2BDED"/>
					<stop  offset="0.0439" style="stop-color:#CDC6F4"/>
					<stop  offset="0.0495" style="stop-color:#DED2FE"/>
					<stop  offset="0.05" style="stop-color:#E0D3FF"/>
					<stop  offset="0.0511" style="stop-color:#DED0FE"/>
					<stop  offset="0.0662" style="stop-color:#C7B1F7"/>
					<stop  offset="0.083" style="stop-color:#B396F1"/>
					<stop  offset="0.1022" style="stop-color:#A380EC"/>
					<stop  offset="0.1247" style="stop-color:#966FE8"/>
					<stop  offset="0.1526" style="stop-color:#8D64E5"/>
					<stop  offset="0.1916" style="stop-color:#885DE3"/>
					<stop  offset="0.3" style="stop-color:#875BE3"/>
					<stop  offset="0.3152" style="stop-color:#9869E6"/>
					<stop  offset="0.3352" style="stop-color:#A676E9"/>
					<stop  offset="0.3595" style="stop-color:#AE7DEB"/>
					<stop  offset="0.4" style="stop-color:#B17FEB"/>
					<stop  offset="0.4815" style="stop-color:#AF7CEB"/>
					<stop  offset="0.5306" style="stop-color:#A974ED"/>
					<stop  offset="0.571" style="stop-color:#9F66EF"/>
					<stop  offset="0.6068" style="stop-color:#9052F2"/>
					<stop  offset="0.6391" style="stop-color:#7E38F6"/>
					<stop  offset="0.65" style="stop-color:#762DF8"/>
					<stop  offset="0.8" style="stop-color:#A673E6"/>
					<stop  offset="0.818" style="stop-color:#A270E3"/>
					<stop  offset="0.8366" style="stop-color:#9566D9"/>
					<stop  offset="0.8556" style="stop-color:#8156C8"/>
					<stop  offset="0.8747" style="stop-color:#643FB0"/>
					<stop  offset="0.8938" style="stop-color:#3F2292"/>
					<stop  offset="0.9" style="stop-color:#311787"/>
					<stop  offset="1" style="stop-color:#8228FF"/>
				</linearGradient>
				<path class="st40" d="M254.18,214.92l12.47,7.2v16.5l-19.52,11.27l6.96-4.97l19.47-11.24l12.1,6.99v16.5l-13.17,7.6l19.54,2.06
					v16.5l-15.56,8.98l-63.88-45.87v-7.51L254.18,214.92z"/>
				<linearGradient id="SVGID_7_" gradientUnits="userSpaceOnUse" x1="258.9092" y1="219.7273" x2="355.2697" y2="219.7273">
					<stop  offset="0" style="stop-color:#B9B7E8"/>
					<stop  offset="0.0272" style="stop-color:#BBB8E9"/>
					<stop  offset="0.037" style="stop-color:#C2BDED"/>
					<stop  offset="0.0439" style="stop-color:#CDC6F4"/>
					<stop  offset="0.0495" style="stop-color:#DED2FE"/>
					<stop  offset="0.05" style="stop-color:#E0D3FF"/>
					<stop  offset="0.0511" style="stop-color:#DED0FE"/>
					<stop  offset="0.0662" style="stop-color:#C7B1F7"/>
					<stop  offset="0.083" style="stop-color:#B396F1"/>
					<stop  offset="0.1022" style="stop-color:#A380EC"/>
					<stop  offset="0.1247" style="stop-color:#966FE8"/>
					<stop  offset="0.1526" style="stop-color:#8D64E5"/>
					<stop  offset="0.1916" style="stop-color:#885DE3"/>
					<stop  offset="0.3" style="stop-color:#875BE3"/>
					<stop  offset="0.3152" style="stop-color:#9869E6"/>
					<stop  offset="0.3352" style="stop-color:#A676E9"/>
					<stop  offset="0.3595" style="stop-color:#AE7DEB"/>
					<stop  offset="0.4" style="stop-color:#B17FEB"/>
					<stop  offset="0.4815" style="stop-color:#AF7CEB"/>
					<stop  offset="0.5306" style="stop-color:#A974ED"/>
					<stop  offset="0.571" style="stop-color:#9F66EF"/>
					<stop  offset="0.6068" style="stop-color:#9052F2"/>
					<stop  offset="0.6391" style="stop-color:#7E38F6"/>
					<stop  offset="0.65" style="stop-color:#762DF8"/>
					<stop  offset="0.8" style="stop-color:#A673E6"/>
					<stop  offset="0.818" style="stop-color:#A270E3"/>
					<stop  offset="0.8366" style="stop-color:#9566D9"/>
					<stop  offset="0.8556" style="stop-color:#8156C8"/>
					<stop  offset="0.8747" style="stop-color:#643FB0"/>
					<stop  offset="0.8938" style="stop-color:#3F2292"/>
					<stop  offset="0.9" style="stop-color:#311787"/>
					<stop  offset="1" style="stop-color:#8228FF"/>
				</linearGradient>
				<path class="st41" d="M308.32,183.66l12.47,7.2v16.5l-10.42,6.02l44.91,16.94v16.5l-15.56,8.98l-51.41-29.68l-16.92,9.77
					l-12.47-7.2v-16.5L308.32,183.66z"/>
			</g>
			<g>
				<g>
					<path class="st34" d="M265.19,282.32l-15.56,8.98l-65.42-7.72l39.4,22.75l-15.56,8.98l-63.88-36.88l15.56-8.98l65.6,7.83
						l-39.58-22.85l15.56-8.98L265.19,282.32z"/>
				</g>
				<g>
					<path class="st34" d="M254.18,214.92l12.47,7.2l-26.02,15.02l13.47,7.78l19.47-11.24l12.1,6.99l-19.47,11.24l25.84,14.92
						l-15.56,8.98l-63.88-36.88L254.18,214.92z"/>
				</g>
				<g>
					<path class="st34" d="M308.32,183.66l12.47,7.2l-16.92,9.77l51.41,29.68l-15.56,8.98l-51.41-29.68l-16.92,9.77l-12.47-7.2
						L308.32,183.66z"/>
				</g>
			</g>
		</g>
	</g>
	<g class="st42">
		<g class="st43">
			<defs>
				<filter id="Adobe_OpacityMaskFilter" filterUnits="userSpaceOnUse" x="115.54" y="6.46" width="281.54" height="335.8">
					<feFlood  style="flood-color:white;flood-opacity:1" result="back"/>
					<feBlend  in="SourceGraphic" in2="back" mode="normal"/>
				</filter>
			</defs>
			<mask maskUnits="userSpaceOnUse" x="115.54" y="6.46" width="281.54" height="335.8" id="SVGID_8_">
				<g class="st44">
					<defs>
						<filter id="Adobe_OpacityMaskFilter_1_" filterUnits="userSpaceOnUse" x="115.54" y="6.46" width="281.54" height="335.8">
							<feFlood  style="flood-color:white;flood-opacity:1" result="back"/>
							<feBlend  in="SourceGraphic" in2="back" mode="normal"/>
						</filter>
					</defs>
					<mask maskUnits="userSpaceOnUse" x="115.54" y="6.46" width="281.54" height="335.8" id="SVGID_8_">
						<g class="st45">
						</g>
					</mask>
					<linearGradient id="SVGID_9_" gradientUnits="userSpaceOnUse" x1="256.3038" y1="342.2547" x2="256.3038" y2="6.4553">
						<stop  offset="0" style="stop-color:#808080"/>
						<stop  offset="0.7" style="stop-color:#000000"/>
					</linearGradient>
					<path class="st46" d="M397.07,87.73v173.25c0,20.8-13.74,41.61-41.23,57.47c-54.97,31.74-144.1,31.74-199.08,0
						c-27.49-15.87-41.23-36.67-41.23-57.47V87.73c0-20.8,13.74-41.59,41.23-57.47c54.97-31.74,144.1-31.74,199.08,0
						C383.33,46.13,397.07,66.93,397.07,87.73z"/>
				</g>
			</mask>
			<linearGradient id="SVGID_10_" gradientUnits="userSpaceOnUse" x1="256.3038" y1="342.2547" x2="256.3038" y2="6.4553">
				<stop  offset="0" style="stop-color:#FFE200"/>
				<stop  offset="0.7" style="stop-color:#FCEE21"/>
			</linearGradient>
			<path class="st47" d="M397.07,87.73v173.25c0,20.8-13.74,41.61-41.23,57.47c-54.97,31.74-144.1,31.74-199.08,0
				c-27.49-15.87-41.23-36.67-41.23-57.47V87.73c0-20.8,13.74-41.59,41.23-57.47c54.97-31.74,144.1-31.74,199.08,0
				C383.33,46.13,397.07,66.93,397.07,87.73z"/>
		</g>
		<g class="st43">
			<g class="st48">
				<ellipse class="st34" cx="256.3" cy="226.81" rx="140.77" ry="81.27"/>
			</g>
		</g>
		<g class="st43">
			<g class="st48">
				<ellipse class="st34" cx="256.3" cy="182.25" rx="140.77" ry="81.27"/>
			</g>
		</g>
		<g class="st43">
			<g class="st48">
				<ellipse class="st34" cx="256.3" cy="127.04" rx="140.77" ry="81.27"/>
			</g>
		</g>
		<g class="st43">
			
				<linearGradient id="SVGID_11_" gradientUnits="userSpaceOnUse" x1="694.1449" y1="-516.9065" x2="701.9291" y2="-561.0532" gradientTransform="matrix(0.9613 0.2756 -0.2756 0.9613 -563.9123 484.328)">
				<stop  offset="0" style="stop-color:#AF7000"/>
				<stop  offset="1" style="stop-color:#FCF588"/>
			</linearGradient>
			<polygon class="st49" points="209.91,157.4 255.94,140.15 302.9,156.69 256.61,183.99 			"/>
			
				<linearGradient id="SVGID_12_" gradientUnits="userSpaceOnUse" x1="1295.793" y1="70.0103" x2="1322.2151" y2="-40.5712" gradientTransform="matrix(1 -7.600000e-03 7.600000e-03 1 -1066.9116 109.6718)">
				<stop  offset="0" style="stop-color:#AF7000"/>
				<stop  offset="1" style="stop-color:#FCF588"/>
			</linearGradient>
			<polygon class="st50" points="206.78,144.07 255.66,59.2 256.55,176.1 			"/>
			
				<linearGradient id="SVGID_13_" gradientUnits="userSpaceOnUse" x1="1323.3295" y1="-40.5225" x2="1349.9769" y2="69.947" gradientTransform="matrix(1 -7.600000e-03 7.600000e-03 1 -1066.9116 109.6718)">
				<stop  offset="0" style="stop-color:#AF7000"/>
				<stop  offset="1" style="stop-color:#FCF588"/>
			</linearGradient>
			<polygon class="st51" points="305.83,143.31 255.66,59.2 256.55,176.1 			"/>
			
				<linearGradient id="SVGID_14_" gradientUnits="userSpaceOnUse" x1="1276.9817" y1="56.8643" x2="1333.2494" y2="116.0302" gradientTransform="matrix(1 -7.600000e-03 7.600000e-03 1 -1066.9116 109.6718)">
				<stop  offset="0" style="stop-color:#AF7000"/>
				<stop  offset="1" style="stop-color:#FCF588"/>
			</linearGradient>
			<polygon class="st52" points="209.91,157.4 256.61,183.99 256.93,225.51 			"/>
			
				<linearGradient id="SVGID_15_" gradientUnits="userSpaceOnUse" x1="1312.5072" y1="115.7119" x2="1369.5212" y2="57.5687" gradientTransform="matrix(1 -7.600000e-03 7.600000e-03 1 -1066.9116 109.6718)">
				<stop  offset="0" style="stop-color:#AF7000"/>
				<stop  offset="1" style="stop-color:#FCF588"/>
			</linearGradient>
			<polygon class="st53" points="302.9,156.69 256.61,183.99 256.93,225.51 			"/>
			<g>
				<g class="st48">
					<polygon class="st34" points="206.78,144.07 256.17,125.73 305.83,143.31 256.55,176.1 					"/>
				</g>
			</g>
		</g>
		<g class="st43">
			<defs>
				<filter id="Adobe_OpacityMaskFilter_2_" filterUnits="userSpaceOnUse" x="115.54" y="87.73" width="281.54" height="254.52">
					<feFlood  style="flood-color:white;flood-opacity:1" result="back"/>
					<feBlend  in="SourceGraphic" in2="back" mode="normal"/>
				</filter>
			</defs>
			<mask maskUnits="userSpaceOnUse" x="115.54" y="87.73" width="281.54" height="254.52" id="SVGID_16_">
				<g class="st54">
					<defs>
						<filter id="Adobe_OpacityMaskFilter_3_" filterUnits="userSpaceOnUse" x="115.54" y="87.73" width="281.54" height="254.52">
							<feFlood  style="flood-color:white;flood-opacity:1" result="back"/>
							<feBlend  in="SourceGraphic" in2="back" mode="normal"/>
						</filter>
					</defs>
					<mask maskUnits="userSpaceOnUse" x="115.54" y="87.73" width="281.54" height="254.52" id="SVGID_16_">
						<g class="st55">
						</g>
					</mask>
					<linearGradient id="SVGID_17_" gradientUnits="userSpaceOnUse" x1="256.3038" y1="342.2547" x2="256.3038" y2="87.73">
						<stop  offset="0" style="stop-color:#808080"/>
						<stop  offset="0.7" style="stop-color:#000000"/>
					</linearGradient>
					<path class="st56" d="M397.07,87.73v173.25c0,20.8-13.74,41.61-41.23,57.47c-54.97,31.74-144.1,31.74-199.08,0
						c-27.49-15.87-41.23-36.67-41.23-57.47V87.73c0,20.8,13.74,41.59,41.23,57.47c54.97,31.74,144.1,31.74,199.08,0
						C383.33,129.32,397.07,108.53,397.07,87.73z"/>
				</g>
			</mask>
			<linearGradient id="SVGID_18_" gradientUnits="userSpaceOnUse" x1="256.3038" y1="342.2547" x2="256.3038" y2="87.73">
				<stop  offset="0" style="stop-color:#FFE200"/>
				<stop  offset="0.7" style="stop-color:#FCEE21"/>
			</linearGradient>
			<path class="st57" d="M397.07,87.73v173.25c0,20.8-13.74,41.61-41.23,57.47c-54.97,31.74-144.1,31.74-199.08,0
				c-27.49-15.87-41.23-36.67-41.23-57.47V87.73c0,20.8,13.74,41.59,41.23,57.47c54.97,31.74,144.1,31.74,199.08,0
				C383.33,129.32,397.07,108.53,397.07,87.73z"/>
		</g>
	</g>
</g>
<g>
	
		<linearGradient id="SVGID_19_" gradientUnits="userSpaceOnUse" x1="689.7095" y1="-532.3773" x2="697.4937" y2="-576.5241" gradientTransform="matrix(0.9613 0.2756 -0.2756 0.9613 -563.9123 484.328)">
		<stop  offset="0" style="stop-color:#AF7000"/>
		<stop  offset="1" style="stop-color:#FCF588"/>
	</linearGradient>
	<polygon class="st58" points="209.91,141.3 255.94,124.06 302.9,140.59 256.61,167.9 	"/>
	
		<linearGradient id="SVGID_20_" gradientUnits="userSpaceOnUse" x1="1295.9153" y1="53.9167" x2="1322.3374" y2="-56.6648" gradientTransform="matrix(1 -7.600000e-03 7.600000e-03 1 -1066.9116 109.6718)">
		<stop  offset="0" style="stop-color:#AF7000"/>
		<stop  offset="1" style="stop-color:#FCF588"/>
	</linearGradient>
	<polygon class="st59" points="206.78,127.97 255.66,43.11 256.55,160.01 	"/>
	
		<linearGradient id="SVGID_21_" gradientUnits="userSpaceOnUse" x1="1323.4518" y1="-56.6161" x2="1350.0992" y2="53.8534" gradientTransform="matrix(1 -7.600000e-03 7.600000e-03 1 -1066.9116 109.6718)">
		<stop  offset="0" style="stop-color:#AF7000"/>
		<stop  offset="1" style="stop-color:#FCF588"/>
	</linearGradient>
	<polygon class="st60" points="305.83,127.22 255.66,43.11 256.55,160.01 	"/>
	
		<linearGradient id="SVGID_22_" gradientUnits="userSpaceOnUse" x1="1277.104" y1="40.7707" x2="1333.3717" y2="99.9366" gradientTransform="matrix(1 -7.600000e-03 7.600000e-03 1 -1066.9116 109.6718)">
		<stop  offset="0" style="stop-color:#AF7000"/>
		<stop  offset="1" style="stop-color:#FCF588"/>
	</linearGradient>
	<polygon class="st61" points="209.91,141.3 256.61,167.9 256.93,209.41 	"/>
	
		<linearGradient id="SVGID_23_" gradientUnits="userSpaceOnUse" x1="1312.6295" y1="99.6183" x2="1369.6436" y2="41.4751" gradientTransform="matrix(1 -7.600000e-03 7.600000e-03 1 -1066.9116 109.6718)">
		<stop  offset="0" style="stop-color:#AF7000"/>
		<stop  offset="1" style="stop-color:#FCF588"/>
	</linearGradient>
	<polygon class="st62" points="302.9,140.59 256.61,167.9 256.93,209.41 	"/>
	<g>
		<g class="st48">
			<polygon class="st34" points="206.78,127.97 256.17,109.63 305.83,127.22 256.55,160.01 			"/>
		</g>
	</g>
</g>
</svg>
