<?xml version="1.0" encoding="utf-8"?>
<!-- Generator: Adobe Illustrator 24.2.3, SVG Export Plug-In . SVG Version: 6.00 Build 0)  -->
<svg version="1.1" id="Layer_1" xmlns="http://www.w3.org/2000/svg" xmlns:xlink="http://www.w3.org/1999/xlink" x="0px" y="0px"
	 viewBox="0 0 512 512" style="enable-background:new 0 0 512 512;" xml:space="preserve">
<style type="text/css">
	.st0{fill:#FFFFFF;}
	.st1{fill:#CDC9E7;}
	.st2{fill:#EB8578;}
	.st3{fill:#F62616;}
	.st4{fill:#FBA991;}
	.st5{fill:#6B392D;}
	.st6{fill:none;stroke:#35344C;stroke-width:27;stroke-miterlimit:10;}
	.st7{fill:#592D7F;}
	.st8{fill:#35344C;}
	.st9{fill:#FDAB93;}
	.st10{fill:#330554;}
	.st11{opacity:0.75;fill:#4F0477;enable-background:new    ;}
	.st12{fill:#2A293D;}
	.st13{fill:none;stroke:#330554;stroke-width:8;stroke-miterlimit:10;}
	.st14{fill:#F79D01;}
	.st15{fill:#F9CA03;}
	.st16{fill:#F58000;}
	.st17{display:none;fill:#F58000;}
	.st18{display:none;fill:#F9CA03;}
	.st19{fill:url(#SVGID_1_);}
	.st20{fill:url(#SVGID_2_);}
	.st21{fill:url(#SVGID_3_);}
	.st22{fill:url(#SVGID_4_);}
	.st23{fill:url(#SVGID_5_);}
	.st24{opacity:0.2;}
	.st25{fill:#FFE683;}
	.st26{fill:#1EB8F7;}
</style>
<g>
	<path class="st0" d="M227.7,195.6c0,0,19.1-3.1,57.3,0v26.7l-55.7,5.8L227.7,195.6z"/>
	<g>
		<g>
			<g>
				<polygon class="st1" points="256.3,208.3 236.8,220 256.3,272.5 275.9,220.1 				"/>
			</g>
		</g>
	</g>
	<g>
		<g>
			<g>
				<path class="st2" d="M276.5,181.9v6.4c0,10.9-8.8,19.9-19.7,20.1c-0.2,0-0.3,0-0.5,0c-0.2,0-0.3,0-0.5,0
					c-10.9-0.1-19.7-9.1-19.7-20.1v-6.4H276.5z"/>
			</g>
		</g>
	</g>
	<g>
		<g>
			<polygon class="st3" points="256.3,208.3 248.9,212.8 254.8,225.7 256.3,222 257.9,225.7 263.8,212.8 			"/>
		</g>
	</g>
	<g>
		<g>
			<g>
				<g>
					<path class="st2" d="M222.6,146.5v7.7h-1.8c-2.2,0-4.2-0.9-5.6-2.3c-1.4-1.4-2.3-3.4-2.3-5.6c0-2.9,1.6-5.5,3.9-6.9
						C217.8,142.5,219.9,145,222.6,146.5z"/>
				</g>
			</g>
			<g>
				<g>
					<path class="st2" d="M299.9,146.3c0,4.4-3.5,7.9-7.9,7.9h-2v-7.7c2.8-1.5,4.9-4.1,5.8-7.2c0.7,0.4,1.3,0.8,1.8,1.4
						C299,142.1,299.9,144.1,299.9,146.3z"/>
				</g>
			</g>
		</g>
	</g>
	<g>
		<g>
			<path class="st4" d="M290,129.7v29.4c0,10.9-5.1,20.5-13.1,26.7c-5.7,4.4-12.9,7-20.6,7c-7.8,0-14.9-2.6-20.6-7
				c-8-6.2-13.1-15.8-13.1-26.7v-29.4c0-4.5,0.9-8.8,2.5-12.7h41c6.9,0,13.2-2.3,18.2-6.1c0.5,0.7,0.9,1.4,1.3,2.1
				c0.1,0.2,0.2,0.3,0.3,0.5l0,0c0.3,0.5,0.6,1.1,0.8,1.6c0.1,0.2,0.2,0.4,0.3,0.6c0.2,0.4,0.3,0.7,0.5,1.1c0,0,0,0,0,0
				c0.1,0.2,0.1,0.4,0.2,0.6c0.1,0.2,0.1,0.4,0.2,0.6s0.1,0.4,0.2,0.6c0.1,0.2,0.1,0.3,0.2,0.5c0,0.1,0,0.1,0.1,0.2
				c0,0.2,0.1,0.3,0.1,0.4c0,0,0,0.1,0,0.1c0,0.2,0.1,0.3,0.1,0.5c0.2,0.8,0.4,1.6,0.6,2.5c0,0.1,0,0.2,0.1,0.3
				c0.1,0.6,0.2,1.1,0.3,1.7c0,0.1,0,0.2,0,0.3c0,0.1,0,0.1,0,0.2c0,0.1,0,0.2,0,0.3c0,0.3,0.1,0.6,0.1,0.9c0,0.1,0,0.2,0,0.3
				s0,0.2,0,0.3c0,0.4,0.1,0.8,0.1,1.2c0,0.1,0,0.1,0,0.2c0,0.1,0,0.2,0,0.3c0,0.1,0,0.3,0,0.4C290,129.4,290,129.5,290,129.7z"/>
		</g>
	</g>
	<g>
		<g>
			<path class="st5" d="M291.8,102.6c2.8,4.1,4.5,9,4.5,14.4v9.5c0,0.1,0,0.2,0,0.3h0v9.5c0,1.1-0.1,2.1-0.4,3.1
				c-0.9,3.1-3,5.7-5.8,7.2v-16.8c0-0.1,0-0.3,0-0.4c0-0.1,0-0.3,0-0.4c0-0.1,0-0.2,0-0.3c0-0.1,0-0.1,0-0.2c0-0.4,0-0.8-0.1-1.2
				c0-0.1,0-0.2,0-0.3s0-0.2,0-0.3c0-0.3-0.1-0.6-0.1-0.9c0-0.1,0-0.2,0-0.3c0-0.1,0-0.1,0-0.2c0-0.1,0-0.2,0-0.3
				c-0.1-0.6-0.2-1.2-0.3-1.7c0-0.1,0-0.2-0.1-0.3c-0.2-0.8-0.4-1.7-0.6-2.5c0-0.2-0.1-0.3-0.1-0.5c0,0,0-0.1,0-0.1
				c0-0.2-0.1-0.3-0.1-0.4c0-0.1,0-0.1-0.1-0.2c-0.1-0.2-0.1-0.3-0.2-0.5c-0.1-0.2-0.1-0.4-0.2-0.6c-0.1-0.2-0.1-0.4-0.2-0.6
				c-0.1-0.2-0.1-0.4-0.2-0.6c0,0,0,0,0,0c-0.1-0.4-0.3-0.7-0.5-1.1c-0.1-0.2-0.2-0.4-0.3-0.6c-0.3-0.6-0.5-1.1-0.8-1.6l0,0
				c-0.1-0.2-0.2-0.3-0.3-0.5c-0.4-0.7-0.8-1.4-1.3-2.1c-5.1,3.8-11.4,6.1-18.2,6.1h-41c-1.6,3.9-2.5,8.2-2.5,12.7v16.8
				c-2.8-1.5-4.9-4-5.7-7.1c-0.3-1-0.4-2.1-0.4-3.2v-9.5h0c0-0.1,0-0.2,0-0.3v-9.5c0-16.7,13.5-30.2,30.2-30.2h10.8
				c5.8-0.1,19.6-1.3,29.4-8.6c0,0,0.9,4.3,0.1,8.6h9.4C296.2,92.6,294.6,98,291.8,102.6z"/>
		</g>
	</g>
	<g>
		<g>
			<path class="st6" d="M239,184.9"/>
		</g>
	</g>
	<g>
		<g>
			<path class="st6" d="M227.7,199.9"/>
		</g>
	</g>
	<g>
		<g>
			<polygon class="st3" points="254.7,217.4 248.1,250.5 256.3,272.5 264.6,250.5 257.9,217.4 			"/>
		</g>
	</g>
	<g>
		<g>
			<path class="st7" d="M285,195.6L285,195.6C285,195.6,285,195.6,285,195.6l-28.7,76.8v2.8l0,0v-2.8l-28.7-76.8l0,0l0,0
				c-7.6,1.1-14.2,3.8-20,7.3v44v87.9h20l0,0h8.4h20.2l0,0h16.8H285l0,0h20V247v-44C299.2,199.4,292.5,196.8,285,195.6z"/>
		</g>
	</g>
	<g>
		<path class="st0" d="M256.3,180c10.2,0,18.4-8.2,18.4-18.4h-36.8C237.9,171.8,246.1,180,256.3,180z"/>
		<g>
			<circle class="st8" cx="241.7" cy="142" r="5.6"/>
			<circle class="st8" cx="270.9" cy="142" r="5.6"/>
		</g>
	</g>
	<g>
		<path class="st7" d="M224,200.7c-1.4-0.4-2.9-0.6-4.3-0.6c-0.7,0-1.4,0.1-2,0.1c-0.2,0-0.4,0-0.7,0.1c-0.9,0.1-1.7,0.2-2.6,0.4
			c-0.4,0.1-0.9,0.2-1.3,0.3c-0.3,0.1-0.7,0.2-1,0.3c-0.1,0-0.1,0-0.2,0.1c-1.5,0.4-2.9,1-4.3,1.6c-14,12.4-37.6,34.2-37.6,34.2
			c-2.9-3.8-30.7-40.6-30.7-40.6l0,0l-0.3-1.7l-0.1,0.1l-6.3,3.5l-0.8,0.4l-10.5,5.9l-0.7,0.4l-0.9,0.5l40.8,60.3c2,3,5.4,4.8,9,4.8
			l0,0c2.4,0,4.8-0.8,6.8-2.4l31.3-24.9l0,0l4-3.5c0,0,3.7-4.1,7.7-9.4c4-5.3,8.2-11.9,9.4-16.9C231.1,203.6,224,200.7,224,200.7z"
			/>
		<g>
			<g>
				<path class="st9" d="M110.4,207.5L110.4,207.5c0.6,0.1,1.1,0.2,1.6,0.2c4.3,0.6,16.7,1.8,23.2-3.5c9.3-7.5,2.2-18.1-3.3-22.7
					c-0.4-0.3-0.7-0.6-1.1-0.9l0,0c-0.3-0.2-0.6-0.5-0.9-0.7c-3.1-2.3-6.9-5-10.6-6.8c-1.7-0.8-3.7-0.2-4.7,1.3s-0.3,3.5,1.4,4.3
					c1.4,0.7,2.9,1.6,4.4,2.6c-0.1,0-0.2,0.1-0.4,0.1c-8.7-2.4-22.8-5.9-24.2-4.4c-2.1,2.2,0.2,4.1,2.2,4.6
					c1.1,0.3,7.8,2.8,13.4,4.9c0,0,0,0,0,0c-9.1-2-22.8-4.8-24.1-3.2c-2,2.4,0.4,4.1,2.4,4.7c1.5,0.4,13,4.1,18.9,6c0,0,0,0,0,0
					c-8.1-0.9-18.3-1.6-19.2-0.2c-1.4,2.4,1,3.6,2.8,3.8c1.5,0.1,14.1,2.9,18.9,4c0,0,0,0,0,0c-6.9-0.6-16.4-1.2-17.2,0
					c-1.2,2,0.9,3.5,2.4,3.6C97.6,205.4,105.6,206.7,110.4,207.5L110.4,207.5z"/>
			</g>
		</g>
		<path class="st7" d="M288.6,200.7c1.5-0.4,2.9-0.6,4.3-0.6c0.7,0,1.4,0.1,2,0.1c0.2,0,0.4,0,0.7,0.1c0.9,0.1,1.7,0.2,2.6,0.4
			c0.5,0.1,0.9,0.2,1.3,0.3c0.3,0.1,0.7,0.2,1,0.3c0.1,0,0.1,0,0.2,0.1c1.5,0.4,3,1,4.3,1.6c14,12.4,37.5,34.2,37.5,34.2
			c2.9-3.8,30.7-40.6,30.7-40.6l0,0l0.3-1.7l0.1,0.1l6.3,3.5l0.8,0.4l10.5,5.9l0.6,0.4l0.9,0.5L352,265.9c-2,3-5.4,4.8-9,4.8l0,0
			c-2.5,0-4.8-0.8-6.8-2.4L305,243.4l0,0l-4-3.5c0,0-3.7-4.1-7.7-9.4c-4-5.3-8.2-11.9-9.4-16.9C281.5,203.6,288.6,200.7,288.6,200.7
			z"/>
		<g>
			<g>
				<path class="st9" d="M402.3,207.5L402.3,207.5c-0.6,0.1-1.1,0.2-1.6,0.2c-4.4,0.6-16.7,1.8-23.2-3.5c-9.3-7.5-2.2-18.1,3.3-22.7
					c0.4-0.3,0.7-0.6,1.1-0.9l0,0c0.3-0.2,0.6-0.5,0.9-0.7c3.1-2.3,6.9-5,10.6-6.8c1.7-0.8,3.7-0.2,4.6,1.3s0.3,3.5-1.4,4.3
					c-1.4,0.7-2.9,1.6-4.4,2.6c0.1,0,0.2,0.1,0.4,0.1c8.7-2.4,22.8-5.9,24.2-4.4c2.1,2.2-0.2,4.1-2.1,4.6c-1.1,0.3-7.8,2.8-13.5,4.9
					c0,0,0,0,0,0c9.1-2,22.8-4.8,24.1-3.2c2,2.4-0.4,4.1-2.4,4.7c-1.5,0.4-13,4.1-18.9,6c0,0,0,0,0,0c8.1-0.9,18.3-1.6,19.2-0.2
					c1.4,2.4-1,3.6-2.9,3.8c-1.5,0.1-14.1,2.9-18.9,4c0,0,0,0,0,0c6.9-0.6,16.4-1.2,17.2,0c1.2,2-0.9,3.5-2.4,3.6
					C415,205.4,407,206.7,402.3,207.5L402.3,207.5z"/>
			</g>
		</g>
	</g>
	<path class="st10" d="M278.8,361.1h-45.3c-11.9,0-21.6-1.5-21.6-13.4v-12.8h88.5v12.8C300.4,359.6,290.7,361.1,278.8,361.1z"/>
	<polygon class="st10" points="211.9,342.5 245.9,342.5 245.9,466 211.9,456.9 	"/>
	<polygon class="st7" points="247.2,463 210.6,456.9 210.6,476.3 247.2,476.3 	"/>
	<polygon class="st10" points="300.4,342.5 266.5,342.5 266.5,466 300.4,456.9 	"/>
	<polygon class="st7" points="265,463 301.9,456.9 301.9,476.3 265,476.3 	"/>
	<ellipse class="st11" cx="256.2" cy="502" rx="101.2" ry="10"/>
	<path class="st12" d="M227.7,195.6c-5.9,0.9-8.7,2.1-8.7,2.1l-1.7,13.5l9.5,4.6l-5.1,9.9l34.6,46.8L227.7,195.6z"/>
	<path class="st12" d="M285,195.6c5.9,0.9,8.7,2.1,8.7,2.1l1.7,13.5l-9.5,4.6l5.1,9.9l-34.6,46.8L285,195.6z"/>
	<line class="st13" x1="256.3" y1="272.5" x2="256.3" y2="334.9"/>
	<g>
		<g>
			<path class="st5" d="M244.8,476.3c-23.5,0.7-57.3-6.4-57.3,21.5h63C254.4,485.7,244.8,476.3,244.8,476.3z"/>
			<path class="st12" d="M247.6,502h-57.1c-1.6,0-2.9-1.3-2.9-2.9v-1.3h63v1.3C250.5,500.7,249.2,502,247.6,502z"/>
		</g>
		<g>
			<path class="st5" d="M267.5,476.3c23.5,0.7,57.3-6.4,57.3,21.5h-63C257.9,485.7,267.5,476.3,267.5,476.3z"/>
			<path class="st12" d="M264.8,502h57.1c1.6,0,2.9-1.3,2.9-2.9v-1.3h-63v1.3C261.8,500.7,263.1,502,264.8,502z"/>
		</g>
	</g>
	<polygon class="st14" points="51.6,171.8 51.6,162.7 127.5,162.7 127.5,170.7 124.5,179.9 69.2,187.7 	"/>
	<path class="st14" d="M123,152.6c-1.4-2.6-3.1-4.9-4.9-7.1c-1.4-1.6-2.9-3-4.5-4.3c-0.2-0.2-0.4-0.3-0.6-0.5
		c-2.9-2.2-6.1-4.1-9.5-5.4c-4-1.6-8.3-2.5-12.8-2.6c-0.4,0-0.7,0-1.1,0c-21,0-38,17-38,38c0,0.4,0,0.7,0,1.1
		c0.1,4.5,1,8.8,2.6,12.8c1.3,3.4,3.2,6.6,5.4,9.5c0.2,0.2,0.3,0.4,0.5,0.6c1.3,1.6,2.8,3.1,4.3,4.5c2.2,1.9,4.5,3.6,7.1,4.9
		c5.4,2.9,11.5,4.6,18.1,4.6c21,0,38-17,38-38C127.5,164.1,125.9,158,123,152.6z M89.6,201c-4.4,0-8.5-0.9-12.3-2.6
		c-2.7-1.2-5.2-2.8-7.4-4.7c-1.6-1.4-3-2.9-4.3-4.5c-2.4-3.2-4.3-6.8-5.3-10.8c-0.7-2.5-1-5.1-1-7.7c0-16.7,13.6-30.3,30.3-30.3
		c2.7,0,5.3,0.4,7.8,1c4,1.1,7.6,2.9,10.8,5.3c1.6,1.3,3.2,2.7,4.5,4.3c1.9,2.2,3.5,4.7,4.7,7.4c1.7,3.8,2.6,7.9,2.6,12.3
		C119.8,187.4,106.3,201,89.6,201z"/>
	<path class="st15" d="M123,145.9c-1.4-2.6-3.1-4.9-4.9-7.1c-1.4-1.6-2.9-3-4.5-4.3c-0.2-0.2-0.4-0.3-0.6-0.5
		c-2.9-2.2-6.1-4.1-9.5-5.4c-4-1.6-8.3-2.5-12.8-2.6c-0.4,0-0.7,0-1.1,0c-21,0-38,17-38,38c0,0.4,0,0.7,0,1.1
		c0.1,4.5,1,8.8,2.6,12.8c1.3,3.4,3.2,6.6,5.4,9.5c0.2,0.2,0.3,0.4,0.5,0.6c1.3,1.6,2.8,3.1,4.3,4.5c2.2,1.9,4.5,3.6,7.1,4.9
		c5.4,2.9,11.5,4.6,18.1,4.6c21,0,38-17,38-38C127.5,157.4,125.9,151.3,123,145.9z M89.6,194.3c-4.4,0-8.5-0.9-12.3-2.6
		c-2.7-1.2-5.2-2.8-7.4-4.7c-1.6-1.4-3-2.9-4.3-4.5c-2.4-3.2-4.3-6.8-5.3-10.8c-0.7-2.5-1-5.1-1-7.7c0-16.7,13.6-30.3,30.3-30.3
		c2.7,0,5.3,0.4,7.8,1c4,1.1,7.6,2.9,10.8,5.3c1.6,1.3,3.2,2.7,4.5,4.3c1.9,2.2,3.5,4.7,4.7,7.4c1.7,3.8,2.6,7.9,2.6,12.3
		C119.8,180.7,106.3,194.3,89.6,194.3z"/>
	<circle class="st14" cx="89.6" cy="164" r="30.3"/>
	<path class="st16" d="M89.6,138c16,0,29.1,12.4,30.2,28.1c0.1-0.7,0.1-1.4,0.1-2.1c0-16.7-13.6-30.3-30.3-30.3S59.3,147.2,59.3,164
		c0,0.7,0,1.4,0.1,2.1C60.4,150.4,73.5,138,89.6,138z"/>
	<path class="st17" d="M104.9,168.4c-1.1-1.4-2.7-2.4-4.7-3c1.4-0.6,2.6-1.6,3.4-2.9c0.8-1.3,1.3-2.8,1.3-4.3c0-1.4-0.3-2.8-1-3.9
		c-0.7-1.2-1.5-2.1-2.6-2.8c-1-0.7-2.2-1.2-3.5-1.4c-0.5-0.1-1.2-0.2-1.9-0.2V146h-6.8v3.6h-3.9l0,0V146h-6.8v3.6l0,0h-3.5v5.6h3.5
		v22.2h-3.5v5.6h3.5v0.1l0,0v3.6h6.8v-3.6h3.9v3.6h6.8V183c1,0,1.7-0.1,2.2-0.1c1.8-0.2,3.3-0.7,4.5-1.6c1.2-0.9,2.2-2,2.9-3.4
		c0.7-1.4,1.1-2.9,1.1-4.4C106.6,171.5,106,169.8,104.9,168.4z M89.2,155.2c3.2,0,5.1,0,5.8,0.1c1.1,0.1,2,0.5,2.5,1.2
		c0.6,0.6,0.9,1.5,0.9,2.5c0,1.1-0.3,1.9-1,2.6c-0.7,0.7-1.6,1.1-2.7,1.2c-0.6,0.1-2.3,0.1-4.9,0.1h-4.4v-7.7L89.2,155.2L89.2,155.2
		z M98.6,175.9c-0.6,0.7-1.4,1.1-2.4,1.3c-0.7,0.1-2.2,0.2-4.6,0.2h-6.2v-8.9h5.4c3.1,0,5.1,0.2,6,0.5c0.9,0.3,1.6,0.8,2.1,1.5
		s0.7,1.6,0.7,2.6C99.6,174.3,99.3,175.2,98.6,175.9z"/>
	<path class="st18" d="M104.9,166c-0.3-0.4-0.6-0.7-0.9-1c-1-0.9-2.2-1.6-3.8-2c1.4-0.6,2.6-1.6,3.4-2.9c0.8-1.3,1.3-2.8,1.3-4.3
		c0-1.1-0.2-2.1-0.6-3.1c-0.1-0.3-0.3-0.6-0.4-0.8c-0.7-1.2-1.5-2.1-2.6-2.8c-0.4-0.3-0.9-0.6-1.4-0.8c-0.7-0.3-1.3-0.5-2.1-0.6
		c-0.5-0.1-1.2-0.2-1.9-0.2v-3.7h-6.8v3.6h-3.9v-3.6h-6.8v3.6h-3.5v5.6h3.5v22.2h-3.5v5.6h3.5v3.7h6.8v-3.6h3.9v3.6h6.8v-3.7
		c1,0,1.7-0.1,2.2-0.1c1.8-0.2,3.3-0.7,4.5-1.6c1.2-0.9,2.2-2,2.9-3.4s1.1-2.9,1.1-4.4C106.6,169.1,106,167.4,104.9,166z
		 M85.3,160.6v-7.7h3.9c3.2,0,5.1,0,5.8,0.1c0.1,0,0.1,0,0.2,0l0,0c1,0.1,1.8,0.5,2.4,1.1c0.6,0.6,0.8,1.5,0.8,2.5
		c0,1.1-0.3,1.9-1,2.6c-0.7,0.7-1.6,1.1-2.7,1.2c-0.6,0.1-2.3,0.1-4.9,0.1L85.3,160.6L85.3,160.6z M98.6,173.5
		c-0.6,0.7-1.4,1.1-2.4,1.3c-0.4,0.1-1.2,0.1-2.3,0.2c-0.7,0-1.4,0-2.3,0h-6.2v-8.9h5.4c3.1,0,5.1,0.2,6,0.5
		c0.9,0.3,1.6,0.8,2.1,1.5c0.3,0.4,0.5,0.9,0.6,1.3c0.1,0.4,0.1,0.8,0.1,1.2C99.6,171.9,99.3,172.8,98.6,173.5z"/>
	<g>
		
			<linearGradient id="SVGID_1_" gradientUnits="userSpaceOnUse" x1="539.8564" y1="989.5489" x2="542.0114" y2="1001.7704" gradientTransform="matrix(0.9613 0.2756 0.2756 -0.9613 -705.0195 976.5136)">
			<stop  offset="0" style="stop-color:#AF7000"/>
			<stop  offset="1" style="stop-color:#FCF588"/>
		</linearGradient>
		<polygon class="st19" points="76.7,168.1 89.5,163.4 102.5,167.9 89.6,175.5 		"/>
		
			<linearGradient id="SVGID_2_" gradientUnits="userSpaceOnUse" x1="1148.4963" y1="441.3611" x2="1155.8099" y2="471.9702" gradientTransform="matrix(1 -7.600000e-03 -7.600000e-03 -1 -1063.0204 621.6718)">
			<stop  offset="0" style="stop-color:#CD9405"/>
			<stop  offset="1" style="stop-color:#FCF588"/>
		</linearGradient>
		<polygon class="st20" points="75.9,164.4 89.4,141 89.6,173.3 		"/>
		
			<linearGradient id="SVGID_3_" gradientUnits="userSpaceOnUse" x1="1156.1179" y1="471.9563" x2="1163.4938" y2="441.3788" gradientTransform="matrix(1 -7.600000e-03 -7.600000e-03 -1 -1063.0204 621.6718)">
			<stop  offset="0" style="stop-color:#CD9405"/>
			<stop  offset="1" style="stop-color:#FCF588"/>
		</linearGradient>
		<polygon class="st21" points="103.3,164.2 89.4,141 89.6,173.3 		"/>
		
			<linearGradient id="SVGID_4_" gradientUnits="userSpaceOnUse" x1="1143.2883" y1="445.0018" x2="1158.8636" y2="428.6242" gradientTransform="matrix(1 -7.600000e-03 -7.600000e-03 -1 -1063.0204 621.6718)">
			<stop  offset="0" style="stop-color:#CD9405"/>
			<stop  offset="1" style="stop-color:#FCF588"/>
		</linearGradient>
		<polygon class="st22" points="76.7,168.1 89.6,175.5 89.7,187 		"/>
		
			<linearGradient id="SVGID_5_" gradientUnits="userSpaceOnUse" x1="1153.123" y1="428.7126" x2="1168.9045" y2="444.8066" gradientTransform="matrix(1 -7.600000e-03 -7.600000e-03 -1 -1063.0204 621.6718)">
			<stop  offset="0" style="stop-color:#CD9405"/>
			<stop  offset="1" style="stop-color:#FCF588"/>
		</linearGradient>
		<polygon class="st23" points="102.5,167.9 89.6,175.5 89.7,187 		"/>
		<g>
			<g class="st24">
				<polygon class="st0" points="75.9,164.4 89.5,159.4 103.3,164.2 89.6,173.3 				"/>
			</g>
		</g>
	</g>
	<g>
		<path class="st25" d="M64.4,192.4c1.1,0.9,2.2,1.8,3.4,2.7l5.6-5.6c-1.2-0.8-2.4-1.6-3.5-2.6L64.4,192.4z"/>
		<path class="st25" d="M118,138.8l-5.5,5.5c0.9,1.1,1.8,2.3,2.6,3.5l5.6-5.6C119.9,141,119,139.9,118,138.8z"/>
		<path class="st25" d="M60.3,171.7l-6.1,6.1c1.3,3.4,3.2,6.6,5.4,9.5c0.2,0.2,0.3,0.4,0.5,0.6l5.5-5.5
			C63.1,179.3,61.3,175.7,60.3,171.7z"/>
		<path class="st25" d="M112.9,134c-2.9-2.2-6.1-4.1-9.5-5.4l-6.1,6.1c4,1.1,7.6,2.9,10.8,5.3l5.5-5.5
			C113.3,134.4,113.1,134.2,112.9,134z"/>
	</g>
	<polygon class="st14" points="385.1,171.8 385.1,162.7 461,162.7 461,170.7 458,179.9 402.7,187.7 	"/>
	<path class="st14" d="M456.5,152.6c-1.4-2.6-3-4.9-5-7.1c-1.4-1.6-2.9-3-4.5-4.3c-0.2-0.2-0.4-0.3-0.6-0.5
		c-2.9-2.2-6.1-4.1-9.5-5.4c-4-1.6-8.3-2.5-12.8-2.6c-0.4,0-0.7,0-1.1,0c-21,0-38,17-38,38c0,0.4,0,0.7,0,1.1
		c0.1,4.5,1,8.8,2.6,12.8c1.4,3.4,3.2,6.6,5.4,9.5c0.2,0.2,0.3,0.4,0.5,0.6c1.3,1.6,2.8,3.1,4.3,4.5c2.2,1.9,4.5,3.6,7.1,4.9
		c5.4,2.9,11.5,4.6,18,4.6c21,0,38-17,38-38C461,164.1,459.4,158,456.5,152.6z M423.1,201c-4.4,0-8.5-0.9-12.3-2.6
		c-2.7-1.2-5.2-2.8-7.4-4.7c-1.6-1.4-3-2.9-4.3-4.5c-2.4-3.2-4.3-6.8-5.3-10.8c-0.6-2.5-1-5.1-1-7.7c0-16.7,13.6-30.3,30.3-30.3
		c2.7,0,5.3,0.4,7.8,1c4,1.1,7.6,2.9,10.8,5.3c1.6,1.3,3.1,2.7,4.5,4.3c1.9,2.2,3.5,4.7,4.7,7.4c1.7,3.8,2.6,7.9,2.6,12.3
		C453.3,187.4,439.8,201,423.1,201z"/>
	<path class="st15" d="M456.5,145.9c-1.4-2.6-3-4.9-5-7.1c-1.4-1.6-2.9-3-4.5-4.3c-0.2-0.2-0.4-0.3-0.6-0.5
		c-2.9-2.2-6.1-4.1-9.5-5.4c-4-1.6-8.3-2.5-12.8-2.6c-0.4,0-0.7,0-1.1,0c-21,0-38,17-38,38c0,0.4,0,0.7,0,1.1
		c0.1,4.5,1,8.8,2.6,12.8c1.4,3.4,3.2,6.6,5.4,9.5c0.2,0.2,0.3,0.4,0.5,0.6c1.3,1.6,2.8,3.1,4.3,4.5c2.2,1.9,4.5,3.6,7.1,4.9
		c5.4,2.9,11.5,4.6,18,4.6c21,0,38-17,38-38C461,157.4,459.4,151.3,456.5,145.9z M423.1,194.3c-4.4,0-8.5-0.9-12.3-2.6
		c-2.7-1.2-5.2-2.8-7.4-4.7c-1.6-1.4-3-2.9-4.3-4.5c-2.4-3.2-4.3-6.8-5.3-10.8c-0.6-2.5-1-5.1-1-7.7c0-16.7,13.6-30.3,30.3-30.3
		c2.7,0,5.3,0.4,7.8,1c4,1.1,7.6,2.9,10.8,5.3c1.6,1.3,3.1,2.7,4.5,4.3c1.9,2.2,3.5,4.7,4.7,7.4c1.7,3.8,2.6,7.9,2.6,12.3
		C453.3,180.7,439.8,194.3,423.1,194.3z"/>
	<circle class="st14" cx="423.1" cy="164" r="30.3"/>
	<path class="st16" d="M423.1,138c16,0,29.1,12.4,30.2,28.1c0-0.7,0.1-1.4,0.1-2.1c0-16.7-13.6-30.3-30.3-30.3s-30.3,13.6-30.3,30.3
		c0,0.7,0,1.4,0.1,2.1C393.9,150.4,407,138,423.1,138z"/>
	<path class="st25" d="M397.9,192.4c1.1,0.9,2.2,1.8,3.4,2.7l5.5-5.6c-1.2-0.8-2.4-1.6-3.5-2.6L397.9,192.4z"/>
	<path class="st25" d="M451.5,138.8l-5.5,5.5c0.9,1.1,1.8,2.3,2.6,3.5l5.5-5.6C453.4,141,452.5,139.9,451.5,138.8z"/>
	<path class="st25" d="M393.8,171.7l-6.1,6.1c1.4,3.4,3.2,6.6,5.4,9.5c0.2,0.2,0.3,0.4,0.5,0.6l5.5-5.5
		C396.6,179.3,394.8,175.7,393.8,171.7z"/>
	<path class="st25" d="M446.4,134c-2.9-2.2-6.1-4.1-9.5-5.4l-6.1,6.1c4,1.1,7.6,2.9,10.8,5.3l5.5-5.5
		C446.8,134.4,446.6,134.2,446.4,134z"/>
	<path class="st16" d="M438.2,170.7c-1.3-3.4-5.1-5.7-12.6-7.9l-0.3-0.1v-10.6c0.7,0,1.4,0.1,2,0.1l0.6,2.5c0.8,3.5,3.1,4.3,5.5,4.3
		c1.7,0,3.5-0.7,3.9-2.5v-2.7h-0.9c-1.7-2.5-5.8-4.1-11.1-4.4v-4.7H421v4.8c-6.9,0.5-11.5,3.1-13,6.6l-0.6-0.1v3.3h0
		c0.2,5.1,4.6,7.8,12.3,10.1l0.9,0.2v11.1c-1.5,0-2.8-0.1-4-0.4l-0.5-3c-0.5-2.7-2-3.6-4.6-3.6c0,0,0,0,0,0c-1,0-1.8,0.4-2.4,0.9
		l-1.2-0.1v2.7l0,0c0,0.9,0.2,1.9,1,2.7c2,2.2,6.1,3.4,11.8,3.6v5.2h4.3v-5.3c8.5-0.8,13.7-4.6,13.9-9.4l0,0v-3.4L438.2,170.7z
		 M421,161.4c-3-1-4.5-2.2-4.5-4.4c0-2.5,1.8-4,4.5-4.6V161.4z M424.9,180.3v-9.4c3.1,1.2,4.4,2.4,4.4,5
		C429.3,178,427.7,179.6,424.9,180.3z"/>
	<path class="st15" d="M433.4,163c-1.2-0.6-2.6-1.2-4.2-1.8c-1.1-0.4-2.3-0.8-3.6-1.1l-0.3-0.1v-10.6c0.7,0,1.4,0.1,2,0.1l0.6,2.5
		c0.1,0.5,0.2,0.9,0.4,1.3c1,2.5,3,3,5.1,3c0.2,0,0.5,0,0.7-0.1l0,0c1.4-0.2,2.8-0.9,3.1-2.5c0-0.2,0-0.4,0-0.6
		c-0.3-2-1.8-3.6-4.1-4.7c-2-1-4.7-1.6-7.9-1.8v-4.7h-4.3v4.8c-0.8,0.1-1.6,0.1-2.4,0.3c-7.1,1.1-11.2,4.7-11.2,9.1
		c0,0.7,0.1,1.3,0.2,1.9c0.8,3.4,3.8,5.7,8.6,7.5c1.1,0.4,2.2,0.8,3.5,1.2l0.9,0.2v11.1c-0.7,0-1.4-0.1-2-0.1
		c-0.7-0.1-1.4-0.1-2-0.2l-0.5-3c0-0.1,0-0.1,0-0.2c-0.5-2.5-2-3.4-4.6-3.4c0,0,0,0,0,0c-0.3,0-0.6,0-0.9,0.1
		c-1.4,0.3-2.3,1.4-2.6,2.7c-0.3,1.1-0.1,2.4,0.9,3.4c0.7,0.7,1.6,1.3,2.7,1.9l0,0c1.3,0.6,2.9,1.1,4.7,1.3c1.3,0.2,2.8,0.3,4.4,0.4
		v5.2h4.3v-5.3c8.7-0.8,13.9-4.7,13.9-9.6C438.7,167.5,437.2,165.1,433.4,163z M421,149.6v9c-3-1-4.5-2.2-4.5-4.4
		C416.5,151.7,418.2,150.2,421,149.6z M424.9,177.6v-9.4c0.9,0.4,1.7,0.7,2.3,1.1c1.5,0.9,2.1,2.1,2.1,3.9
		C429.3,175.3,427.7,176.9,424.9,177.6z"/>
	<path class="st25" d="M410.5,171.1l-2.6,2.7C408.1,172.5,409.1,171.4,410.5,171.1z"/>
	<path class="st25" d="M425.3,146.6v-4.7h-1.7l-2.6,2.6v2.1c-0.8,0.1-1.6,0.1-2.4,0.3l-11,11c0.8,3.4,3.8,5.7,8.6,7.5l9.1-9.1v-6.9
		c0.7,0,1.4,0.1,2,0.1l0.6,2.5c0.1,0.5,0.2,0.9,0.4,1.3l4.8-4.8C431.1,147.4,428.4,146.8,425.3,146.6z M421,158.7
		c-3-1-4.5-2.2-4.5-4.4c0-2.5,1.8-4,4.5-4.6V158.7z"/>
	<path class="st25" d="M416.5,177.6c0.6,0.1,1.3,0.2,2,0.2l-2.5,2.5c-1.8-0.3-3.4-0.7-4.7-1.3l4.6-4.6c0,0.1,0,0.1,0,0.2
		L416.5,177.6z"/>
	<path class="st25" d="M429.2,161.2c1.6,0.6,3,1.2,4.2,1.8l-6.2,6.2c-0.6-0.4-1.4-0.7-2.3-1.1v3.4l-4.3,4.3v-6.1L429.2,161.2z"/>
	<path class="st25" d="M437.3,153.8c-0.4,1.6-1.7,2.3-3.1,2.5l3.1-3.1C437.2,153.4,437.3,153.6,437.3,153.8z"/>
	<path class="st9" d="M139.6,194.9c0-8.7-6.1-21.5-14.8-25.1c-5-2.1-4.1,6.9,0.1,11.8c0,0-1.7,9.5,0.9,12.7
		C132.6,202.7,139.6,198.3,139.6,194.9z"/>
	<path class="st9" d="M373,194.9c0-8.7,6.1-21.5,14.8-25.1c5-2.1,4.1,6.9-0.1,11.8c0,0,1.7,9.5-0.9,12.7
		C380,202.7,373,198.3,373,194.9z"/>
	<path class="st26" d="M410.5,117.5l-3-29.9l-5,1.9c-12.8-25.7-32.3-47.6-56.4-63.4C319.8,8.9,289.2-0.2,257.6-0.2
		c-18.1,0-35.8,3-52.7,8.8c-16.4,5.6-31.6,13.8-45.4,24.4c-13.6,10.4-25.5,22.9-35.2,37c-9.9,14.3-17.3,30.1-22.1,46.8l5.1,1.5
		c19.2-66.5,81-113,150.4-113c59.1,0,113.4,33.7,139.9,86.2l-4.5,1.7L410.5,117.5z"/>
	<path class="st3" d="M102.1,215.2l17.6,24.4l-4.5,1.7c26.4,52.6,80.8,86.2,139.9,86.2c69.4,0,131.2-46.5,150.4-113.1l5.1,1.5
		c-4.8,16.7-12.2,32.4-22.1,46.8c-9.7,14.1-21.6,26.6-35.2,37c-13.8,10.5-29.1,18.7-45.4,24.4c-16.9,5.8-34.6,8.8-52.7,8.8
		c-31.6,0-62.1-9.1-88.4-26.3c-24.2-15.8-43.6-37.7-56.4-63.4l-5,1.9L102.1,215.2z"/>
</g>
</svg>
